ETBook-Italic.ufo
<glyph name="exclam" format="2">
  <advance width="297"/>
  <unicode hex="0021"/>
  <outline>
    <contour>
      <point x="292" y="601" type="line" smooth="yes"/>
      <point x="306" y="651"/>
      <point x="287" y="662"/>
      <point x="259" y="662" type="curve"/>
      <point x="259" y="662"/>
      <point x="242" y="662"/>
      <point x="253" y="662" type="curve"/>
      <point x="225" y="662"/>
      <point x="207" y="653"/>
      <point x="203" y="621" type="curve" smooth="yes"/>
      <point x="146" y="179" type="line"/>
      <point x="146" y="163"/>
      <point x="168" y="164"/>
      <point x="175" y="177" type="curve"/>
    </contour>
    <contour>
      <point x="184" y="49" type="curve" smooth="yes"/>
      <point x="184" y="79"/>
      <point x="166" y="103"/>
      <point x="140" y="103" type="curve" smooth="yes"/>
      <point x="112" y="103"/>
      <point x="90" y="80"/>
      <point x="86" y="48" type="curve"/>
      <point x="76" y="20"/>
      <point x="102" y="-14"/>
      <point x="131" y="-14" type="curve" smooth="yes"/>
      <point x="161" y="-14"/>
      <point x="184" y="13"/>
    </contour>
  </outline>
</glyph>
<glyph name="quotedbl" format="2">
  <advance width="424"/>
  <unicode hex="0022"/>
  <outline>
    <contour>
      <point x="478" y="587" type="curve" smooth="yes"/>
      <point x="488" y="619"/>
      <point x="494" y="662"/>
      <point x="444" y="662" type="curve" smooth="yes"/>
      <point x="400" y="662"/>
      <point x="371" y="622"/>
      <point x="365" y="563" type="curve" smooth="yes"/>
      <point x="360" y="504"/>
      <point x="363" y="540"/>
      <point x="346" y="371" type="curve" smooth="yes"/>
      <point x="344" y="352"/>
      <point x="370" y="348"/>
      <point x="379" y="364" type="curve"/>
      <point x="379" y="364"/>
      <point x="453" y="511"/>
    </contour>
    <contour>
      <point x="309" y="621" type="curve" smooth="yes"/>
      <point x="309" y="646"/>
      <point x="291" y="662"/>
      <point x="266" y="662" type="curve" smooth="yes"/>
      <point x="211" y="662"/>
      <point x="194" y="625"/>
      <point x="183" y="515" type="curve" smooth="yes"/>
      <point x="169" y="370" type="line"/>
      <point x="169" y="354"/>
      <point x="190" y="348"/>
      <point x="200" y="364" type="curve"/>
      <point x="200" y="364"/>
      <point x="309" y="584"/>
    </contour>
  </outline>
</glyph>
<glyph name="numbersign" format="2">
  <advance width="680"/>
  <unicode hex="0023"/>
  <outline>
    <contour>
      <point x="640" y="481" type="line"/>
      <point x="637" y="492"/>
      <point x="633" y="492"/>
      <point x="624" y="492" type="curve" smooth="yes"/>
      <point x="555" y="491" type="line" smooth="yes"/>
      <point x="540" y="491"/>
      <point x="537" y="503"/>
      <point x="540" y="513" type="curve"/>
      <point x="573" y="673" type="line" smooth="yes"/>
      <point x="578" y="696"/>
      <point x="566" y="702"/>
      <point x="560" y="699" type="curve"/>
      <point x="528" y="696" type="line"/>
      <point x="513" y="698"/>
      <point x="511" y="682"/>
      <point x="511" y="674" type="curve"/>
      <point x="478" y="513" type="line"/>
      <point x="475" y="506"/>
      <point x="469" y="492"/>
      <point x="448" y="491" type="curve" smooth="yes"/>
      <point x="407" y="490"/>
      <point x="337" y="488"/>
      <point x="292" y="491" type="curve"/>
      <point x="281" y="493"/>
      <point x="272" y="500"/>
      <point x="274" y="512" type="curve" smooth="yes"/>
      <point x="307" y="670" type="line"/>
      <point x="306" y="683"/>
      <point x="316" y="693"/>
      <point x="294" y="696" type="curve"/>
      <point x="269" y="696" type="line"/>
      <point x="248" y="700"/>
      <point x="249" y="691"/>
      <point x="244" y="668" type="curve" smooth="yes"/>
      <point x="212" y="511" type="line"/>
      <point x="212" y="511"/>
      <point x="208" y="490"/>
      <point x="191" y="490" type="curve" smooth="yes"/>
      <point x="67" y="492" type="line" smooth="yes"/>
      <point x="54" y="492"/>
      <point x="48" y="490"/>
      <point x="44" y="478" type="curve"/>
      <point x="44" y="446" type="line"/>
      <point x="45" y="436"/>
      <point x="56" y="429"/>
      <point x="67" y="427" type="curve"/>
      <point x="170" y="426" type="line"/>
      <point x="187" y="424"/>
      <point x="193" y="419"/>
      <point x="190" y="406" type="curve" smooth="yes"/>
      <point x="160" y="260" type="line"/>
      <point x="157" y="252"/>
      <point x="146" y="244"/>
      <point x="134" y="244" type="curve" smooth="yes"/>
      <point x="69" y="245" type="line" smooth="yes"/>
      <point x="48" y="245"/>
      <point x="44" y="233"/>
      <point x="44" y="227" type="curve" smooth="yes"/>
      <point x="44" y="194" type="line"/>
      <point x="46" y="189"/>
      <point x="53" y="182"/>
      <point x="70" y="180" type="curve"/>
      <point x="121" y="180" type="line" smooth="yes"/>
      <point x="130" y="180"/>
      <point x="139" y="173"/>
      <point x="140" y="161" type="curve"/>
      <point x="104" y="-8" type="line"/>
      <point x="104" y="-13"/>
      <point x="109" y="-22"/>
      <point x="122" y="-25" type="curve"/>
      <point x="150" y="-27" type="line"/>
      <point x="158" y="-28"/>
      <point x="166" y="-21"/>
      <point x="169" y="-5" type="curve" smooth="yes"/>
      <point x="202" y="158" type="line" smooth="yes"/>
      <point x="205" y="175"/>
      <point x="212" y="179"/>
      <point x="219" y="180" type="curve"/>
      <point x="262" y="177"/>
      <point x="352" y="176"/>
      <point x="401" y="180" type="curve"/>
      <point x="413" y="178"/>
      <point x="407" y="164"/>
      <point x="403" y="144" type="curve" smooth="yes"/>
      <point x="373" y="-1" type="line" smooth="yes"/>
      <point x="369" y="-18"/>
      <point x="385" y="-23"/>
      <point x="389" y="-25" type="curve"/>
      <point x="414" y="-26" type="line" smooth="yes"/>
      <point x="424" y="-26"/>
      <point x="433" y="-20"/>
      <point x="437" y="0" type="curve" smooth="yes"/>
      <point x="466" y="144" type="line"/>
      <point x="475" y="169"/>
      <point x="487" y="180"/>
      <point x="495" y="180" type="curve" smooth="yes"/>
      <point x="524" y="179"/>
      <point x="582" y="180"/>
      <point x="611" y="182" type="curve"/>
      <point x="611" y="182"/>
      <point x="636" y="182"/>
      <point x="635" y="201" type="curve" smooth="yes"/>
      <point x="634" y="215" type="line"/>
      <point x="637" y="233"/>
      <point x="629" y="243"/>
      <point x="616" y="246" type="curve"/>
      <point x="589" y="244"/>
      <point x="534" y="242"/>
      <point x="507" y="244" type="curve"/>
      <point x="505" y="244"/>
      <point x="485" y="241"/>
      <point x="490" y="265" type="curve" smooth="yes"/>
      <point x="518" y="402" type="line"/>
      <point x="526" y="419"/>
      <point x="532" y="425"/>
      <point x="548" y="427" type="curve"/>
      <point x="617" y="427" type="line" smooth="yes"/>
      <point x="623" y="427"/>
      <point x="633" y="430"/>
      <point x="636" y="442" type="curve"/>
    </contour>
    <contour>
      <point x="456" y="404" type="curve"/>
      <point x="427" y="264" type="line"/>
      <point x="423" y="254"/>
      <point x="418" y="247"/>
      <point x="405" y="245" type="curve"/>
      <point x="351" y="243"/>
      <point x="281" y="243"/>
      <point x="241" y="245" type="curve" smooth="yes"/>
      <point x="228" y="246"/>
      <point x="221" y="253"/>
      <point x="222" y="259" type="curve" smooth="yes"/>
      <point x="252" y="406" type="line"/>
      <point x="257" y="418"/>
      <point x="262" y="424"/>
      <point x="276" y="427" type="curve"/>
      <point x="315" y="424"/>
      <point x="399" y="425"/>
      <point x="446" y="427" type="curve" smooth="yes"/>
      <point x="460" y="428"/>
      <point x="457" y="419"/>
    </contour>
  </outline>
</glyph>
<glyph name="dollar" format="2">
  <advance width="472"/>
  <unicode hex="0024"/>
  <outline>
    <contour>
      <point x="474" y="490" type="curve" smooth="yes"/>
      <point x="474" y="543"/>
      <point x="444" y="581"/>
      <point x="396" y="599" type="curve"/>
      <point x="389" y="601"/>
      <point x="387" y="605"/>
      <point x="389" y="615" type="curve" smooth="yes"/>
      <point x="397" y="655" type="line" smooth="yes"/>
      <point x="399" y="666"/>
      <point x="388" y="669"/>
      <point x="382" y="669" type="curve" smooth="yes"/>
      <point x="377" y="669"/>
      <point x="367" y="666"/>
      <point x="367" y="657" type="curve"/>
      <point x="359" y="620" type="line" smooth="yes"/>
      <point x="357" y="612"/>
      <point x="355" y="608"/>
      <point x="347" y="609" type="curve"/>
      <point x="341" y="609"/>
      <point x="334" y="609"/>
      <point x="327" y="609" type="curve" smooth="yes"/>
      <point x="319" y="609"/>
      <point x="316" y="611"/>
      <point x="318" y="617" type="curve"/>
      <point x="327" y="664" type="line" smooth="yes"/>
      <point x="329" y="674"/>
      <point x="321" y="678"/>
      <point x="314" y="678" type="curve"/>
      <point x="307" y="677"/>
      <point x="298" y="674"/>
      <point x="296" y="666" type="curve" smooth="yes"/>
      <point x="286" y="617" type="line" smooth="yes"/>
      <point x="284" y="609"/>
      <point x="280" y="605"/>
      <point x="278" y="605" type="curve"/>
      <point x="201" y="587"/>
      <point x="154" y="528"/>
      <point x="154" y="446" type="curve" smooth="yes"/>
      <point x="154" y="394"/>
      <point x="172" y="353"/>
      <point x="211" y="309" type="curve" smooth="yes"/>
      <point x="216" y="303"/>
      <point x="221" y="292"/>
      <point x="218" y="275" type="curve" smooth="yes"/>
      <point x="209" y="215"/>
      <point x="189" y="123"/>
      <point x="172" y="53" type="curve" smooth="yes"/>
      <point x="169" y="39"/>
      <point x="167" y="32"/>
      <point x="161" y="39" type="curve" smooth="yes"/>
      <point x="152" y="49"/>
      <point x="147" y="61"/>
      <point x="147" y="76" type="curve" smooth="yes"/>
      <point x="147" y="90"/>
      <point x="151" y="103"/>
      <point x="151" y="117" type="curve" smooth="yes"/>
      <point x="151" y="140"/>
      <point x="135" y="158"/>
      <point x="113" y="158" type="curve" smooth="yes"/>
      <point x="88" y="158"/>
      <point x="69" y="137"/>
      <point x="69" y="107" type="curve" smooth="yes"/>
      <point x="69" y="60"/>
      <point x="102" y="20"/>
      <point x="149" y="-1" type="curve" smooth="yes"/>
      <point x="159" y="-5"/>
      <point x="159" y="-13"/>
      <point x="155" y="-31" type="curve" smooth="yes"/>
      <point x="145" y="-79" type="line"/>
      <point x="140" y="-90"/>
      <point x="168" y="-96"/>
      <point x="175" y="-83" type="curve"/>
      <point x="186" y="-31" type="line" smooth="yes"/>
      <point x="190" y="-13"/>
      <point x="193" y="-16"/>
      <point x="197" y="-15" type="curve"/>
      <point x="210" y="-18"/>
      <point x="209" y="-16"/>
      <point x="221" y="-16" type="curve"/>
      <point x="226" y="-18"/>
      <point x="226" y="-23"/>
      <point x="226" y="-30" type="curve"/>
      <point x="216" y="-81" type="line"/>
      <point x="214" y="-89"/>
      <point x="221" y="-99"/>
      <point x="228" y="-99" type="curve" smooth="yes"/>
      <point x="235" y="-99"/>
      <point x="244" y="-96"/>
      <point x="245" y="-90" type="curve" smooth="yes"/>
      <point x="257" y="-29" type="line" smooth="yes"/>
      <point x="260" y="-14"/>
      <point x="266" y="-15"/>
      <point x="273" y="-13" type="curve"/>
      <point x="359" y="2"/>
      <point x="413" y="60"/>
      <point x="413" y="143" type="curve" smooth="yes"/>
      <point x="413" y="193"/>
      <point x="389" y="240"/>
      <point x="338" y="292" type="curve" smooth="yes"/>
      <point x="328" y="302"/>
      <point x="326" y="310"/>
      <point x="329" y="322" type="curve" smooth="yes"/>
      <point x="342" y="378"/>
      <point x="365" y="487"/>
      <point x="376" y="554" type="curve"/>
      <point x="378" y="563"/>
      <point x="382" y="565"/>
      <point x="386" y="562" type="curve"/>
      <point x="401" y="552"/>
      <point x="408" y="539"/>
      <point x="408" y="524" type="curve" smooth="yes"/>
      <point x="408" y="520"/>
      <point x="408" y="517"/>
      <point x="407" y="513" type="curve"/>
      <point x="405" y="500"/>
      <point x="401" y="488"/>
      <point x="401" y="475" type="curve" smooth="yes"/>
      <point x="401" y="451"/>
      <point x="414" y="432"/>
      <point x="437" y="432" type="curve" smooth="yes"/>
      <point x="463" y="432"/>
      <point x="474" y="458"/>
    </contour>
    <contour>
      <point x="347" y="562" type="curve"/>
      <point x="336" y="499"/>
      <point x="317" y="404"/>
      <point x="305" y="352" type="curve" smooth="yes"/>
      <point x="301" y="333"/>
      <point x="290" y="339"/>
      <point x="288" y="341" type="curve" smooth="yes"/>
      <point x="271" y="359"/>
      <point x="264" y="353"/>
      <point x="269" y="380" type="curve" smooth="yes"/>
      <point x="306" y="562" type="line"/>
      <point x="307" y="569"/>
      <point x="313" y="577"/>
      <point x="320" y="577" type="curve" smooth="yes"/>
      <point x="326" y="577"/>
      <point x="332" y="577"/>
      <point x="337" y="577" type="curve"/>
      <point x="342" y="576"/>
      <point x="347" y="573"/>
    </contour>
    <contour>
      <point x="272" y="548" type="curve" smooth="yes"/>
      <point x="246" y="419" type="line"/>
      <point x="243" y="410"/>
      <point x="241" y="409"/>
      <point x="237" y="404" type="curve"/>
      <point x="219" y="432"/>
      <point x="215" y="448"/>
      <point x="215" y="473" type="curve" smooth="yes"/>
      <point x="215" y="511"/>
      <point x="233" y="543"/>
      <point x="265" y="562" type="curve"/>
      <point x="269" y="564"/>
      <point x="275" y="563"/>
    </contour>
    <contour>
      <point x="341" y="120" type="curve" smooth="yes"/>
      <point x="341" y="77"/>
      <point x="315" y="41"/>
      <point x="276" y="24" type="curve" smooth="yes"/>
      <point x="269" y="21"/>
      <point x="268" y="26"/>
      <point x="271" y="39" type="curve" smooth="yes"/>
      <point x="301" y="189" type="line" smooth="yes"/>
      <point x="303" y="198"/>
      <point x="307" y="203"/>
      <point x="311" y="198" type="curve" smooth="yes"/>
      <point x="336" y="165"/>
      <point x="341" y="150"/>
    </contour>
    <contour>
      <point x="277" y="217" type="curve" smooth="yes"/>
      <point x="239" y="32" type="line"/>
      <point x="235" y="24"/>
      <point x="233" y="15"/>
      <point x="228" y="15" type="curve" smooth="yes"/>
      <point x="216" y="15"/>
      <point x="216" y="16"/>
      <point x="204" y="18" type="curve" smooth="yes"/>
      <point x="197" y="19"/>
      <point x="200" y="32"/>
      <point x="200" y="37" type="curve"/>
      <point x="212" y="88"/>
      <point x="233" y="185"/>
      <point x="243" y="247" type="curve"/>
      <point x="247" y="259"/>
      <point x="253" y="265"/>
      <point x="260" y="258" type="curve" smooth="yes"/>
      <point x="265" y="253"/>
      <point x="269" y="248"/>
      <point x="273" y="244" type="curve"/>
      <point x="280" y="236"/>
      <point x="279" y="226"/>
    </contour>
  </outline>
</glyph>
<glyph name="percent" format="2">
  <advance width="731"/>
  <unicode hex="0025"/>
  <outline>
    <contour>
      <point x="752" y="195" type="curve" smooth="yes"/>
      <point x="771" y="293"/>
      <point x="729" y="376"/>
      <point x="648" y="376" type="curve" smooth="yes"/>
      <point x="570" y="376"/>
      <point x="496" y="296"/>
      <point x="477" y="198" type="curve" smooth="yes"/>
      <point x="458" y="100"/>
      <point x="500" y="17"/>
      <point x="582" y="17" type="curve" smooth="yes"/>
      <point x="660" y="17"/>
      <point x="733" y="97"/>
    </contour>
    <contour>
      <point x="654" y="619" type="line" smooth="yes"/>
      <point x="656" y="622"/>
      <point x="663" y="633"/>
      <point x="648" y="640" type="curve"/>
      <point x="632" y="644" type="line"/>
      <point x="620" y="644"/>
      <point x="613" y="639"/>
      <point x="607" y="630" type="curve" smooth="yes"/>
      <point x="542" y="534"/>
      <point x="605" y="630"/>
      <point x="194" y="6" type="curve" smooth="yes"/>
      <point x="186" y="-6"/>
      <point x="184" y="-20"/>
      <point x="196" y="-22" type="curve" smooth="yes"/>
      <point x="221" y="-26" type="line"/>
      <point x="229" y="-23"/>
      <point x="235" y="-16"/>
      <point x="239" y="-10" type="curve" smooth="yes"/>
    </contour>
    <contour>
      <point x="384" y="460" type="curve" smooth="yes"/>
      <point x="403" y="558"/>
      <point x="361" y="641"/>
      <point x="281" y="641" type="curve" smooth="yes"/>
      <point x="203" y="641"/>
      <point x="129" y="562"/>
      <point x="110" y="464" type="curve" smooth="yes"/>
      <point x="91" y="366"/>
      <point x="133" y="282"/>
      <point x="214" y="282" type="curve" smooth="yes"/>
      <point x="292" y="282"/>
      <point x="365" y="362"/>
    </contour>
    <contour>
      <point x="678" y="198" type="curve" smooth="yes"/>
      <point x="658" y="92"/>
      <point x="626" y="50"/>
      <point x="585" y="50" type="curve" smooth="yes"/>
      <point x="547" y="50"/>
      <point x="530" y="87"/>
      <point x="551" y="195" type="curve" smooth="yes"/>
      <point x="571" y="301"/>
      <point x="604" y="343"/>
      <point x="645" y="343" type="curve" smooth="yes"/>
      <point x="683" y="343"/>
      <point x="699" y="306"/>
    </contour>
    <contour>
      <point x="311" y="464" type="curve" smooth="yes"/>
      <point x="291" y="358"/>
      <point x="259" y="315"/>
      <point x="217" y="315" type="curve" smooth="yes"/>
      <point x="180" y="315"/>
      <point x="162" y="352"/>
      <point x="183" y="460" type="curve" smooth="yes"/>
      <point x="204" y="566"/>
      <point x="237" y="608"/>
      <point x="278" y="608" type="curve" smooth="yes"/>
      <point x="315" y="608"/>
      <point x="332" y="572"/>
    </contour>
  </outline>
</glyph>
<glyph name="ampersand" format="2">
  <advance width="720"/>
  <unicode hex="0026"/>
  <outline>
    <contour>
      <point x="765" y="392" type="curve" smooth="yes"/>
      <point x="765" y="411"/>
      <point x="754" y="428"/>
      <point x="732" y="428" type="curve" smooth="yes"/>
      <point x="711" y="428"/>
      <point x="700" y="417"/>
      <point x="701" y="400" type="curve"/>
      <point x="702" y="392"/>
      <point x="705" y="386"/>
      <point x="710" y="380" type="curve"/>
      <point x="713" y="376"/>
      <point x="718" y="370"/>
      <point x="718" y="365" type="curve" smooth="yes"/>
      <point x="718" y="356"/>
      <point x="700" y="344"/>
      <point x="664" y="344" type="curve" smooth="yes"/>
      <point x="632" y="344"/>
      <point x="600" y="346"/>
      <point x="568" y="346" type="curve" smooth="yes"/>
      <point x="498" y="346"/>
      <point x="463" y="336"/>
      <point x="431" y="304" type="curve" smooth="yes"/>
      <point x="412" y="284"/>
      <point x="395" y="256"/>
      <point x="397" y="233" type="curve" smooth="yes"/>
      <point x="402" y="175"/>
      <point x="471" y="179"/>
      <point x="468" y="225" type="curve" smooth="yes"/>
      <point x="467" y="238"/>
      <point x="459" y="246"/>
      <point x="451" y="256" type="curve"/>
      <point x="447" y="259"/>
      <point x="445" y="262"/>
      <point x="445" y="265" type="curve" smooth="yes"/>
      <point x="445" y="273"/>
      <point x="473" y="288"/>
      <point x="516" y="288" type="curve" smooth="yes"/>
      <point x="576" y="288"/>
      <point x="609" y="254"/>
      <point x="609" y="203" type="curve" smooth="yes"/>
      <point x="609" y="96"/>
      <point x="479" y="30"/>
      <point x="387" y="30" type="curve" smooth="yes"/>
      <point x="266" y="30"/>
      <point x="190" y="100"/>
      <point x="190" y="208" type="curve" smooth="yes"/>
      <point x="190" y="290"/>
      <point x="241" y="349"/>
      <point x="311" y="349" type="curve" smooth="yes"/>
      <point x="330" y="349"/>
      <point x="389" y="336"/>
      <point x="389" y="371" type="curve" smooth="yes"/>
      <point x="389" y="387"/>
      <point x="376" y="391"/>
      <point x="363" y="392" type="curve" smooth="yes"/>
      <point x="350" y="393"/>
      <point x="335" y="390"/>
      <point x="328" y="390" type="curve" smooth="yes"/>
      <point x="293" y="390"/>
      <point x="265" y="425"/>
      <point x="265" y="477" type="curve" smooth="yes"/>
      <point x="265" y="569"/>
      <point x="326" y="626"/>
      <point x="413" y="626" type="curve" smooth="yes"/>
      <point x="464" y="626"/>
      <point x="491" y="610"/>
      <point x="498" y="581" type="curve" smooth="yes"/>
      <point x="504" y="555"/>
      <point x="511" y="522"/>
      <point x="545" y="522" type="curve" smooth="yes"/>
      <point x="565" y="522"/>
      <point x="584" y="539"/>
      <point x="584" y="559" type="curve" smooth="yes"/>
      <point x="584" y="641"/>
      <point x="457" y="663"/>
      <point x="406" y="663" type="curve" smooth="yes"/>
      <point x="278" y="663"/>
      <point x="173" y="590"/>
      <point x="173" y="491" type="curve" smooth="yes"/>
      <point x="173" y="442"/>
      <point x="204" y="403"/>
      <point x="256" y="381" type="curve"/>
      <point x="262" y="378"/>
      <point x="259" y="373"/>
      <point x="252" y="371" type="curve" smooth="yes"/>
      <point x="157" y="345"/>
      <point x="91" y="273"/>
      <point x="91" y="188" type="curve" smooth="yes"/>
      <point x="91" y="41"/>
      <point x="237" y="-19"/>
      <point x="354" y="-19" type="curve" smooth="yes"/>
      <point x="471" y="-19"/>
      <point x="648" y="57"/>
      <point x="648" y="204" type="curve" smooth="yes"/>
      <point x="648" y="234"/>
      <point x="638" y="257"/>
      <point x="615" y="279" type="curve" smooth="yes"/>
      <point x="609" y="285"/>
      <point x="615" y="287"/>
      <point x="621" y="288" type="curve"/>
      <point x="708" y="295"/>
      <point x="765" y="333"/>
    </contour>
  </outline>
</glyph>
<glyph name="quotesingle" format="2">
  <advance width="223"/>
  <unicode hex="0027"/>
  <outline>
    <contour>
      <point x="252" y="512" type="line" smooth="yes"/>
      <point x="267" y="545"/>
      <point x="332" y="662"/>
      <point x="250" y="662" type="curve" smooth="yes"/>
      <point x="209" y="662"/>
      <point x="181" y="622"/>
      <point x="175" y="564" type="curve" smooth="yes"/>
      <point x="170" y="506"/>
      <point x="173" y="541"/>
      <point x="157" y="376" type="curve"/>
      <point x="157" y="365"/>
      <point x="164" y="363"/>
      <point x="168" y="363" type="curve"/>
      <point x="176" y="361"/>
      <point x="187" y="366"/>
      <point x="192" y="377" type="curve" smooth="yes"/>
    </contour>
  </outline>
</glyph>
<glyph name="parenleft" format="2">
  <advance width="306"/>
  <unicode hex="0028"/>
  <outline>
    <contour>
      <point x="406" y="678" type="curve"/>
      <point x="419" y="700"/>
      <point x="402" y="707"/>
      <point x="392" y="703" type="curve"/>
      <point x="236" y="552"/>
      <point x="100" y="346"/>
      <point x="100" y="122" type="curve" smooth="yes"/>
      <point x="100" y="-3"/>
      <point x="140" y="-132"/>
      <point x="191" y="-245" type="curve"/>
      <point x="204" y="-262"/>
      <point x="225" y="-255"/>
      <point x="217" y="-233" type="curve" smooth="yes"/>
      <point x="161" y="-72"/>
      <point x="147" y="88"/>
      <point x="189" y="253" type="curve" smooth="yes"/>
      <point x="230" y="415"/>
      <point x="299" y="550"/>
    </contour>
  </outline>
</glyph>
<glyph name="parenright" format="2">
  <advance width="286"/>
  <unicode hex="0029"/>
  <outline>
    <contour>
      <point x="260" y="334" type="curve" smooth="yes"/>
      <point x="260" y="463"/>
      <point x="216" y="588"/>
      <point x="169" y="702" type="curve"/>
      <point x="156" y="724"/>
      <point x="137" y="703"/>
      <point x="143" y="689" type="curve"/>
      <point x="197" y="520"/>
      <point x="216" y="376"/>
      <point x="172" y="203" type="curve" smooth="yes"/>
      <point x="131" y="41"/>
      <point x="62" y="-95"/>
      <point x="-47" y="-221" type="curve"/>
      <point x="-63" y="-234"/>
      <point x="-56" y="-259"/>
      <point x="-32" y="-247" type="curve"/>
      <point x="125" y="-96"/>
      <point x="260" y="110"/>
    </contour>
  </outline>
</glyph>
<glyph name="asterisk" format="2">
  <advance width="557"/>
  <unicode hex="002A"/>
  <outline>
    <contour>
      <point x="487" y="377" type="curve" smooth="yes"/>
      <point x="487" y="404"/>
      <point x="470" y="416"/>
      <point x="448" y="424" type="curve" smooth="yes"/>
      <point x="427" y="431"/>
      <point x="400" y="434"/>
      <point x="381" y="440" type="curve" smooth="yes"/>
      <point x="364" y="445"/>
      <point x="354" y="448"/>
      <point x="332" y="461" type="curve" smooth="yes"/>
      <point x="321" y="467"/>
      <point x="312" y="473"/>
      <point x="323" y="479" type="curve" smooth="yes"/>
      <point x="345" y="490"/>
      <point x="364" y="497"/>
      <point x="382" y="503" type="curve"/>
      <point x="400" y="508"/>
      <point x="426" y="512"/>
      <point x="448" y="520" type="curve" smooth="yes"/>
      <point x="470" y="528"/>
      <point x="487" y="541"/>
      <point x="487" y="566" type="curve" smooth="yes"/>
      <point x="487" y="575"/>
      <point x="480" y="604"/>
      <point x="446" y="604" type="curve" smooth="yes"/>
      <point x="423" y="604"/>
      <point x="407" y="581"/>
      <point x="394" y="566" type="curve" smooth="yes"/>
      <point x="377" y="547"/>
      <point x="362" y="528"/>
      <point x="323" y="503" type="curve"/>
      <point x="317" y="500"/>
      <point x="304" y="493"/>
      <point x="304" y="503" type="curve" smooth="yes"/>
      <point x="306" y="545"/>
      <point x="311" y="571"/>
      <point x="317" y="591" type="curve" smooth="yes"/>
      <point x="323" y="611"/>
      <point x="331" y="631"/>
      <point x="331" y="652" type="curve" smooth="yes"/>
      <point x="331" y="673"/>
      <point x="318" y="695"/>
      <point x="292" y="695" type="curve" smooth="yes"/>
      <point x="266" y="695"/>
      <point x="253" y="673"/>
      <point x="253" y="652" type="curve" smooth="yes"/>
      <point x="253" y="631"/>
      <point x="261" y="611"/>
      <point x="267" y="591" type="curve" smooth="yes"/>
      <point x="273" y="571"/>
      <point x="278" y="550"/>
      <point x="280" y="508" type="curve" smooth="yes"/>
      <point x="280" y="496"/>
      <point x="274" y="494"/>
      <point x="265" y="499" type="curve"/>
      <point x="225" y="524"/>
      <point x="207" y="547"/>
      <point x="190" y="566" type="curve" smooth="yes"/>
      <point x="177" y="581"/>
      <point x="161" y="604"/>
      <point x="138" y="604" type="curve" smooth="yes"/>
      <point x="104" y="604"/>
      <point x="97" y="575"/>
      <point x="97" y="566" type="curve" smooth="yes"/>
      <point x="97" y="534"/>
      <point x="116" y="525"/>
      <point x="147" y="517" type="curve" smooth="yes"/>
      <point x="162" y="513"/>
      <point x="181" y="509"/>
      <point x="202" y="503" type="curve" smooth="yes"/>
      <point x="220" y="497"/>
      <point x="232" y="493"/>
      <point x="255" y="481" type="curve" smooth="yes"/>
      <point x="265" y="476"/>
      <point x="259" y="464"/>
      <point x="253" y="461" type="curve"/>
      <point x="232" y="449"/>
      <point x="220" y="445"/>
      <point x="203" y="440" type="curve" smooth="yes"/>
      <point x="182" y="433"/>
      <point x="163" y="429"/>
      <point x="147" y="426" type="curve" smooth="yes"/>
      <point x="116" y="419"/>
      <point x="97" y="412"/>
      <point x="97" y="377" type="curve" smooth="yes"/>
      <point x="97" y="360"/>
      <point x="111" y="340"/>
      <point x="134" y="340" type="curve" smooth="yes"/>
      <point x="162" y="340"/>
      <point x="176" y="359"/>
      <point x="192" y="378" type="curve" smooth="yes"/>
      <point x="208" y="398"/>
      <point x="228" y="424"/>
      <point x="270" y="449" type="curve" smooth="yes"/>
      <point x="277" y="453"/>
      <point x="280" y="441"/>
      <point x="280" y="433" type="curve"/>
      <point x="278" y="379"/>
      <point x="272" y="363"/>
      <point x="266" y="346" type="curve" smooth="yes"/>
      <point x="262" y="336"/>
      <point x="258" y="328"/>
      <point x="256" y="320" type="curve"/>
      <point x="253" y="312"/>
      <point x="252" y="304"/>
      <point x="252" y="292" type="curve" smooth="yes"/>
      <point x="252" y="268"/>
      <point x="267" y="247"/>
      <point x="292" y="247" type="curve" smooth="yes"/>
      <point x="317" y="247"/>
      <point x="332" y="268"/>
      <point x="332" y="292" type="curve" smooth="yes"/>
      <point x="332" y="304"/>
      <point x="331" y="312"/>
      <point x="328" y="320" type="curve"/>
      <point x="326" y="328"/>
      <point x="322" y="336"/>
      <point x="318" y="346" type="curve"/>
      <point x="312" y="364"/>
      <point x="306" y="376"/>
      <point x="305" y="433" type="curve" smooth="yes"/>
      <point x="305" y="438"/>
      <point x="306" y="453"/>
      <point x="315" y="448" type="curve" smooth="yes"/>
      <point x="356" y="423"/>
      <point x="376" y="398"/>
      <point x="392" y="378" type="curve" smooth="yes"/>
      <point x="408" y="359"/>
      <point x="422" y="340"/>
      <point x="450" y="340" type="curve" smooth="yes"/>
      <point x="473" y="340"/>
      <point x="487" y="360"/>
    </contour>
  </outline>
</glyph>
<glyph name="plus" format="2">
  <advance width="679"/>
  <unicode hex="002B"/>
  <outline>
    <contour>
      <point x="609" y="301" type="line"/>
      <point x="609" y="365" type="line"/>
      <point x="371" y="365" type="line"/>
      <point x="371" y="608" type="line"/>
      <point x="306" y="608" type="line"/>
      <point x="306" y="365" type="line"/>
      <point x="69" y="365" type="line"/>
      <point x="69" y="301" type="line"/>
      <point x="306" y="301" type="line"/>
      <point x="306" y="60" type="line"/>
      <point x="371" y="60" type="line"/>
      <point x="371" y="301" type="line"/>
    </contour>
  </outline>
</glyph>
<glyph name="comma" format="2">
  <advance width="257"/>
  <unicode hex="002C"/>
  <outline>
    <contour>
      <point x="209" y="16" type="curve" smooth="yes"/>
      <point x="209" y="55"/>
      <point x="187" y="89"/>
      <point x="157" y="89" type="curve" smooth="yes"/>
      <point x="132" y="89"/>
      <point x="110" y="64"/>
      <point x="110" y="37" type="curve" smooth="yes"/>
      <point x="110" y="8"/>
      <point x="140" y="-15"/>
      <point x="140" y="-46" type="curve" smooth="yes"/>
      <point x="140" y="-92"/>
      <point x="92" y="-123"/>
      <point x="61" y="-148" type="curve" smooth="yes"/>
      <point x="48" y="-158"/>
      <point x="52" y="-181"/>
      <point x="73" y="-172" type="curve"/>
      <point x="165" y="-118"/>
      <point x="209" y="-60"/>
    </contour>
  </outline>
</glyph>
<glyph name="hyphen" format="2">
  <advance width="363"/>
  <unicode hex="002D"/>
  <outline>
    <contour>
      <point x="330" y="234" type="curve" smooth="yes"/>
      <point x="332" y="246"/>
      <point x="326" y="250"/>
      <point x="316" y="250" type="curve" smooth="yes"/>
      <point x="70" y="250" type="line" smooth="yes"/>
      <point x="53" y="250"/>
      <point x="50" y="245"/>
      <point x="47" y="236" type="curve"/>
      <point x="45" y="232"/>
      <point x="44" y="220"/>
      <point x="42" y="210" type="curve"/>
      <point x="41" y="198"/>
      <point x="45" y="185"/>
      <point x="49" y="185" type="curve" smooth="yes"/>
      <point x="307" y="185" type="line"/>
      <point x="311" y="184"/>
      <point x="321" y="186"/>
      <point x="323" y="196" type="curve"/>
      <point x="325" y="202"/>
      <point x="328" y="220"/>
    </contour>
  </outline>
</glyph>
<glyph name="period" format="2">
  <advance width="247"/>
  <unicode hex="002E"/>
  <outline>
    <contour>
      <point x="173" y="46" type="curve" smooth="yes"/>
      <point x="173" y="74"/>
      <point x="155" y="96"/>
      <point x="130" y="96" type="curve" smooth="yes"/>
      <point x="104" y="96"/>
      <point x="84" y="72"/>
      <point x="81" y="42" type="curve" smooth="yes"/>
      <point x="78" y="15"/>
      <point x="89" y="-14"/>
      <point x="121" y="-14" type="curve" smooth="yes"/>
      <point x="150" y="-14"/>
      <point x="173" y="13"/>
    </contour>
  </outline>
</glyph>
<glyph name="slash" format="2">
  <advance width="349"/>
  <unicode hex="002F"/>
  <outline>
    <contour>
      <point x="368" y="584" type="line" smooth="yes"/>
      <point x="381" y="611"/>
      <point x="368" y="616"/>
      <point x="361" y="617" type="curve" smooth="yes"/>
      <point x="331" y="620" type="line" smooth="yes"/>
      <point x="323" y="621"/>
      <point x="311" y="620"/>
      <point x="301" y="599" type="curve" smooth="yes"/>
      <point x="-4" y="-37" type="line"/>
      <point x="-11" y="-45"/>
      <point x="-10" y="-62"/>
      <point x="1" y="-62" type="curve" smooth="yes"/>
      <point x="41" y="-63" type="line" smooth="yes"/>
      <point x="54" y="-63"/>
      <point x="61" y="-53"/>
      <point x="68" y="-42" type="curve"/>
    </contour>
  </outline>
</glyph>
<glyph name="zero" format="2">
  <advance width="432"/>
  <unicode hex="0030"/>
  <outline>
    <contour>
      <point x="412" y="287" type="curve" smooth="yes"/>
      <point x="412" y="372"/>
      <point x="361" y="454"/>
      <point x="310" y="454" type="curve" smooth="yes"/>
      <point x="284" y="454"/>
      <point x="240" y="434"/>
      <point x="201" y="407" type="curve" smooth="yes"/>
      <point x="113" y="345"/>
      <point x="60" y="254"/>
      <point x="60" y="162" type="curve" smooth="yes"/>
      <point x="60" y="73"/>
      <point x="109" y="-16"/>
      <point x="160" y="-16" type="curve" smooth="yes"/>
      <point x="175" y="-16"/>
      <point x="196" y="-9"/>
      <point x="219" y="1" type="curve" smooth="yes"/>
      <point x="270" y="24"/>
      <point x="324" y="68"/>
      <point x="356" y="110" type="curve" smooth="yes"/>
      <point x="393" y="160"/>
      <point x="412" y="221"/>
    </contour>
    <contour>
      <point x="331" y="273" type="curve" smooth="yes"/>
      <point x="331" y="146"/>
      <point x="268" y="38"/>
      <point x="206" y="38" type="curve" smooth="yes"/>
      <point x="174" y="38"/>
      <point x="142" y="88"/>
      <point x="142" y="159" type="curve" smooth="yes"/>
      <point x="142" y="289"/>
      <point x="201" y="397"/>
      <point x="258" y="397" type="curve" smooth="yes"/>
      <point x="296" y="397"/>
      <point x="331" y="347"/>
    </contour>
  </outline>
</glyph>
<glyph name="one" format="2">
  <advance width="380"/>
  <unicode hex="0031"/>
  <outline>
    <contour>
      <point x="320" y="448" type="line"/>
      <point x="322" y="456"/>
      <point x="310" y="460"/>
      <point x="301" y="460" type="curve" smooth="yes"/>
      <point x="294" y="460"/>
      <point x="284" y="458"/>
      <point x="279" y="454" type="curve"/>
      <point x="156" y="382" type="line"/>
      <point x="148" y="379"/>
      <point x="146" y="370"/>
      <point x="146" y="363" type="curve" smooth="yes"/>
      <point x="146" y="355"/>
      <point x="150" y="347"/>
      <point x="156" y="350" type="curve" smooth="yes"/>
      <point x="223" y="380" type="line"/>
      <point x="231" y="382"/>
      <point x="226" y="370"/>
      <point x="224" y="358" type="curve" smooth="yes"/>
      <point x="169" y="76" type="line" smooth="yes"/>
      <point x="162" y="41"/>
      <point x="144" y="33"/>
      <point x="117" y="31" type="curve" smooth="yes"/>
      <point x="104" y="30"/>
      <point x="84" y="39"/>
      <point x="77" y="24" type="curve" smooth="yes"/>
      <point x="72" y="14"/>
      <point x="72" y="-3"/>
      <point x="81" y="-3" type="curve" smooth="yes"/>
      <point x="142" y="-1"/>
      <point x="257" y="-1"/>
      <point x="306" y="-3" type="curve" smooth="yes"/>
      <point x="319" y="-4"/>
      <point x="324" y="29"/>
      <point x="311" y="30" type="curve" smooth="yes"/>
      <point x="241" y="34"/>
      <point x="241" y="41"/>
      <point x="250" y="88" type="curve" smooth="yes"/>
    </contour>
  </outline>
</glyph>
<glyph name="two" format="2">
  <advance width="414"/>
  <unicode hex="0032"/>
  <outline>
    <contour>
      <point x="409" y="346" type="curve" smooth="yes"/>
      <point x="409" y="400"/>
      <point x="366" y="455"/>
      <point x="298" y="455" type="curve" smooth="yes"/>
      <point x="215" y="455"/>
      <point x="154" y="388"/>
      <point x="120" y="346" type="curve"/>
      <point x="113" y="332"/>
      <point x="133" y="310"/>
      <point x="145" y="323" type="curve" smooth="yes"/>
      <point x="177" y="360"/>
      <point x="214" y="402"/>
      <point x="265" y="402" type="curve" smooth="yes"/>
      <point x="296" y="402"/>
      <point x="325" y="385"/>
      <point x="325" y="350" type="curve" smooth="yes"/>
      <point x="325" y="279"/>
      <point x="235" y="221"/>
      <point x="187" y="180" type="curve" smooth="yes"/>
      <point x="117" y="122"/>
      <point x="75" y="73"/>
      <point x="44" y="33" type="curve"/>
      <point x="38" y="23"/>
      <point x="36" y="28"/>
      <point x="36" y="15" type="curve"/>
      <point x="35" y="6"/>
      <point x="41" y="-4"/>
      <point x="47" y="-4" type="curve" smooth="yes"/>
      <point x="109" y="-2"/>
      <point x="240" y="-3"/>
      <point x="305" y="-3" type="curve" smooth="yes"/>
      <point x="317" y="-3"/>
      <point x="325" y="3"/>
      <point x="331" y="11" type="curve"/>
      <point x="351" y="49"/>
      <point x="364" y="93"/>
      <point x="378" y="123" type="curve" smooth="yes"/>
      <point x="385" y="138"/>
      <point x="354" y="144"/>
      <point x="347" y="128" type="curve"/>
      <point x="338" y="113"/>
      <point x="334" y="103"/>
      <point x="329" y="94" type="curve" smooth="yes"/>
      <point x="316" y="72"/>
      <point x="296" y="71"/>
      <point x="273" y="70" type="curve" smooth="yes"/>
      <point x="236" y="68"/>
      <point x="166" y="68"/>
      <point x="132" y="70" type="curve" smooth="yes"/>
      <point x="122" y="71"/>
      <point x="132" y="81"/>
      <point x="133" y="82" type="curve" smooth="yes"/>
      <point x="162" y="110"/>
      <point x="189" y="132"/>
      <point x="279" y="187" type="curve" smooth="yes"/>
      <point x="341" y="224"/>
      <point x="409" y="271"/>
    </contour>
  </outline>
</glyph>
<glyph name="three" format="2">
  <advance width="427"/>
  <unicode hex="0033"/>
  <outline>
    <contour>
      <point x="421" y="365" type="curve" smooth="yes"/>
      <point x="421" y="377"/>
      <point x="418" y="452"/>
      <point x="317" y="452" type="curve" smooth="yes"/>
      <point x="260" y="452"/>
      <point x="197" y="426"/>
      <point x="118" y="339" type="curve"/>
      <point x="106" y="323"/>
      <point x="135" y="309"/>
      <point x="142" y="316" type="curve" smooth="yes"/>
      <point x="202" y="377"/>
      <point x="247" y="399"/>
      <point x="282" y="399" type="curve" smooth="yes"/>
      <point x="311" y="399"/>
      <point x="334" y="379"/>
      <point x="334" y="348" type="curve" smooth="yes"/>
      <point x="334" y="273"/>
      <point x="229" y="222"/>
      <point x="169" y="195" type="curve" smooth="yes"/>
      <point x="152" y="187"/>
      <point x="154" y="153"/>
      <point x="175" y="162" type="curve" smooth="yes"/>
      <point x="196" y="171"/>
      <point x="213" y="176"/>
      <point x="232" y="176" type="curve" smooth="yes"/>
      <point x="273" y="176"/>
      <point x="300" y="138"/>
      <point x="300" y="83" type="curve" smooth="yes"/>
      <point x="300" y="-43"/>
      <point x="205" y="-135"/>
      <point x="136" y="-135" type="curve" smooth="yes"/>
      <point x="103" y="-135"/>
      <point x="81" y="-112"/>
      <point x="52" y="-100" type="curve" smooth="yes"/>
      <point x="23" y="-88"/>
      <point x="-1" y="-108"/>
      <point x="-1" y="-140" type="curve" smooth="yes"/>
      <point x="-1" y="-165"/>
      <point x="21" y="-187"/>
      <point x="72" y="-187" type="curve" smooth="yes"/>
      <point x="196" y="-187"/>
      <point x="386" y="-55"/>
      <point x="386" y="116" type="curve" smooth="yes"/>
      <point x="386" y="163"/>
      <point x="351" y="201"/>
      <point x="309" y="218" type="curve" smooth="yes"/>
      <point x="301" y="221"/>
      <point x="296" y="226"/>
      <point x="304" y="230" type="curve" smooth="yes"/>
      <point x="351" y="254"/>
      <point x="421" y="302"/>
    </contour>
  </outline>
</glyph>
<glyph name="four" format="2">
  <advance width="448"/>
  <unicode hex="0034"/>
  <outline>
    <contour>
      <point x="420" y="94" type="curve" smooth="yes"/>
      <point x="405" y="94"/>
      <point x="375" y="93"/>
      <point x="359" y="94" type="curve"/>
      <point x="356" y="95"/>
      <point x="348" y="97"/>
      <point x="350" y="108" type="curve" smooth="yes"/>
      <point x="410" y="404" type="line" smooth="yes"/>
      <point x="412" y="415"/>
      <point x="422" y="444"/>
      <point x="401" y="444" type="curve" smooth="yes"/>
      <point x="388" y="444"/>
      <point x="382" y="444"/>
      <point x="373" y="435" type="curve" smooth="yes"/>
      <point x="274" y="337"/>
      <point x="185" y="227"/>
      <point x="71" y="85" type="curve" smooth="yes"/>
      <point x="61" y="73"/>
      <point x="62" y="66"/>
      <point x="62" y="52" type="curve" smooth="yes"/>
      <point x="62" y="42"/>
      <point x="72" y="33"/>
      <point x="82" y="33" type="curve" smooth="yes"/>
      <point x="123" y="32"/>
      <point x="191" y="30"/>
      <point x="240" y="33" type="curve"/>
      <point x="248" y="32"/>
      <point x="255" y="25"/>
      <point x="252" y="18" type="curve"/>
      <point x="215" y="-165" type="line" smooth="yes"/>
      <point x="212" y="-179"/>
      <point x="225" y="-184"/>
      <point x="238" y="-184" type="curve" smooth="yes"/>
      <point x="270" y="-185" type="line"/>
      <point x="279" y="-187"/>
      <point x="291" y="-181"/>
      <point x="294" y="-167" type="curve" smooth="yes"/>
      <point x="332" y="21" type="line"/>
      <point x="336" y="29"/>
      <point x="342" y="32"/>
      <point x="352" y="33" type="curve"/>
      <point x="368" y="31"/>
      <point x="397" y="31"/>
      <point x="411" y="33" type="curve"/>
      <point x="428" y="30"/>
      <point x="440" y="95"/>
    </contour>
    <contour>
      <point x="315" y="310" type="curve" smooth="yes"/>
      <point x="271" y="97" type="line" smooth="yes"/>
      <point x="270" y="91"/>
      <point x="257" y="91"/>
      <point x="255" y="90" type="curve"/>
      <point x="225" y="89"/>
      <point x="167" y="89"/>
      <point x="138" y="90" type="curve"/>
      <point x="130" y="92"/>
      <point x="120" y="95"/>
      <point x="123" y="101" type="curve"/>
      <point x="176" y="167"/>
      <point x="237" y="247"/>
      <point x="308" y="324" type="curve"/>
      <point x="313" y="330"/>
      <point x="317" y="320"/>
    </contour>
  </outline>
</glyph>
<glyph name="five" format="2">
  <advance width="432"/>
  <unicode hex="0035"/>
  <outline>
    <contour>
      <point x="387" y="461" type="line"/>
      <point x="388" y="473"/>
      <point x="363" y="472"/>
      <point x="360" y="464" type="curve" smooth="yes"/>
      <point x="358" y="459"/>
      <point x="355" y="447"/>
      <point x="351" y="444" type="curve"/>
      <point x="345" y="438"/>
      <point x="237" y="441"/>
      <point x="221" y="441" type="curve" smooth="yes"/>
      <point x="190" y="441"/>
      <point x="179" y="441"/>
      <point x="171" y="408" type="curve" smooth="yes"/>
      <point x="157" y="348"/>
      <point x="146" y="296"/>
      <point x="131" y="240" type="curve" smooth="yes"/>
      <point x="127" y="227"/>
      <point x="128" y="216"/>
      <point x="148" y="215" type="curve" smooth="yes"/>
      <point x="162" y="214"/>
      <point x="296" y="184"/>
      <point x="296" y="73" type="curve" smooth="yes"/>
      <point x="296" y="-25"/>
      <point x="226" y="-109"/>
      <point x="147" y="-109" type="curve" smooth="yes"/>
      <point x="115" y="-109"/>
      <point x="81" y="-80"/>
      <point x="53" y="-80" type="curve" smooth="yes"/>
      <point x="29" y="-80"/>
      <point x="11" y="-115"/>
      <point x="11" y="-131" type="curve" smooth="yes"/>
      <point x="11" y="-166"/>
      <point x="71" y="-172"/>
      <point x="89" y="-172" type="curve" smooth="yes"/>
      <point x="170" y="-172"/>
      <point x="251" y="-110"/>
      <point x="291" y="-66" type="curve" smooth="yes"/>
      <point x="359" y="9"/>
      <point x="365" y="72"/>
      <point x="365" y="109" type="curve" smooth="yes"/>
      <point x="365" y="210"/>
      <point x="289" y="268"/>
      <point x="195" y="284" type="curve" smooth="yes"/>
      <point x="173" y="288"/>
      <point x="178" y="293"/>
      <point x="181" y="305" type="curve" smooth="yes"/>
      <point x="193" y="351" type="line" smooth="yes"/>
      <point x="195" y="360"/>
      <point x="206" y="363"/>
      <point x="211" y="363" type="curve" smooth="yes"/>
      <point x="226" y="363"/>
      <point x="306" y="360"/>
      <point x="324" y="360" type="curve" smooth="yes"/>
      <point x="350" y="360"/>
      <point x="356" y="353"/>
      <point x="365" y="384" type="curve" smooth="yes"/>
    </contour>
  </outline>
</glyph>
<glyph name="six" format="2">
  <advance width="463"/>
  <unicode hex="0036"/>
  <outline>
    <contour>
      <point x="484" y="640" type="curve"/>
      <point x="497" y="642"/>
      <point x="498" y="670"/>
      <point x="483" y="670" type="curve"/>
      <point x="435" y="663"/>
      <point x="348" y="649"/>
      <point x="245" y="548" type="curve" smooth="yes"/>
      <point x="153" y="459"/>
      <point x="86" y="342"/>
      <point x="86" y="212" type="curve" smooth="yes"/>
      <point x="86" y="112"/>
      <point x="132" y="-9"/>
      <point x="218" y="-9" type="curve" smooth="yes"/>
      <point x="312" y="-9"/>
      <point x="437" y="152"/>
      <point x="437" y="302" type="curve" smooth="yes"/>
      <point x="437" y="388"/>
      <point x="384" y="451"/>
      <point x="347" y="451" type="curve" smooth="yes"/>
      <point x="332" y="451"/>
      <point x="288" y="430"/>
      <point x="251" y="394" type="curve" smooth="yes"/>
      <point x="233" y="377"/>
      <point x="219" y="362"/>
      <point x="206" y="346" type="curve" smooth="yes"/>
      <point x="198" y="337"/>
      <point x="198" y="350"/>
      <point x="202" y="360" type="curve" smooth="yes"/>
      <point x="260" y="520"/>
      <point x="368" y="608"/>
    </contour>
    <contour>
      <point x="357" y="258" type="curve" smooth="yes"/>
      <point x="357" y="142"/>
      <point x="306" y="45"/>
      <point x="254" y="45" type="curve" smooth="yes"/>
      <point x="213" y="45"/>
      <point x="172" y="100"/>
      <point x="172" y="192" type="curve" smooth="yes"/>
      <point x="172" y="235"/>
      <point x="174" y="261"/>
      <point x="223" y="321" type="curve" smooth="yes"/>
      <point x="247" y="349"/>
      <point x="284" y="385"/>
      <point x="305" y="385" type="curve" smooth="yes"/>
      <point x="328" y="385"/>
      <point x="357" y="331"/>
    </contour>
  </outline>
</glyph>
<glyph name="seven" format="2">
  <advance width="409"/>
  <unicode hex="0037"/>
  <outline>
    <contour>
      <point x="420" y="424" type="curve"/>
      <point x="420" y="437"/>
      <point x="421" y="445"/>
      <point x="409" y="444" type="curve" smooth="yes"/>
      <point x="384" y="442"/>
      <point x="357" y="441"/>
      <point x="338" y="441" type="curve" smooth="yes"/>
      <point x="279" y="441"/>
      <point x="231" y="448"/>
      <point x="155" y="443" type="curve" smooth="yes"/>
      <point x="132" y="441"/>
      <point x="124" y="440"/>
      <point x="116" y="418" type="curve" smooth="yes"/>
      <point x="105" y="387"/>
      <point x="91" y="321"/>
      <point x="84" y="287" type="curve" smooth="yes"/>
      <point x="82" y="278"/>
      <point x="81" y="273"/>
      <point x="87" y="270" type="curve"/>
      <point x="94" y="266"/>
      <point x="105" y="266"/>
      <point x="108" y="274" type="curve" smooth="yes"/>
      <point x="127" y="332" type="line" smooth="yes"/>
      <point x="140" y="373"/>
      <point x="147" y="366"/>
      <point x="189" y="366" type="curve" smooth="yes"/>
      <point x="229" y="366"/>
      <point x="288" y="365"/>
      <point x="332" y="366" type="curve" smooth="yes"/>
      <point x="339" y="366"/>
      <point x="342" y="356"/>
      <point x="339" y="351" type="curve" smooth="yes"/>
      <point x="58" y="-124" type="line" smooth="yes"/>
      <point x="51" y="-136"/>
      <point x="31" y="-167"/>
      <point x="59" y="-169" type="curve" smooth="yes"/>
      <point x="87" y="-171" type="line" smooth="yes"/>
      <point x="112" y="-173"/>
      <point x="117" y="-143"/>
      <point x="127" y="-125" type="curve" smooth="yes"/>
      <point x="396" y="375" type="line" smooth="yes"/>
      <point x="405" y="391"/>
      <point x="414" y="407"/>
    </contour>
  </outline>
</glyph>
<glyph name="eight" format="2">
  <advance width="463"/>
  <unicode hex="0038"/>
  <outline>
    <contour>
      <point x="450" y="506" type="curve" smooth="yes"/>
      <point x="450" y="543"/>
      <point x="405" y="614"/>
      <point x="342" y="614" type="curve" smooth="yes"/>
      <point x="306" y="614"/>
      <point x="241" y="572"/>
      <point x="231" y="565" type="curve" smooth="yes"/>
      <point x="160" y="513"/>
      <point x="153" y="477"/>
      <point x="153" y="450" type="curve" smooth="yes"/>
      <point x="153" y="410"/>
      <point x="183" y="370"/>
      <point x="207" y="343" type="curve" smooth="yes"/>
      <point x="212" y="337"/>
      <point x="209" y="330"/>
      <point x="205" y="327" type="curve"/>
      <point x="153" y="295"/>
      <point x="57" y="229"/>
      <point x="57" y="147" type="curve" smooth="yes"/>
      <point x="57" y="115"/>
      <point x="73" y="78"/>
      <point x="94" y="48" type="curve" smooth="yes"/>
      <point x="136" y="-10"/>
      <point x="166" y="-12"/>
      <point x="182" y="-12" type="curve" smooth="yes"/>
      <point x="249" y="-12"/>
      <point x="391" y="76"/>
      <point x="391" y="201" type="curve" smooth="yes"/>
      <point x="391" y="270"/>
      <point x="352" y="314"/>
      <point x="321" y="345" type="curve"/>
      <point x="315" y="350"/>
      <point x="318" y="354"/>
      <point x="323" y="357" type="curve" smooth="yes"/>
      <point x="427" y="422"/>
      <point x="450" y="473"/>
    </contour>
    <contour>
      <point x="379" y="484" type="curve" smooth="yes"/>
      <point x="379" y="439"/>
      <point x="338" y="405"/>
      <point x="302" y="380" type="curve"/>
      <point x="297" y="377"/>
      <point x="291" y="371"/>
      <point x="286" y="376" type="curve" smooth="yes"/>
      <point x="257" y="404"/>
      <point x="222" y="443"/>
      <point x="222" y="484" type="curve" smooth="yes"/>
      <point x="222" y="540"/>
      <point x="282" y="569"/>
      <point x="299" y="569" type="curve" smooth="yes"/>
      <point x="321" y="569"/>
      <point x="379" y="528"/>
    </contour>
    <contour>
      <point x="329" y="162" type="curve" smooth="yes"/>
      <point x="329" y="73"/>
      <point x="237" y="29"/>
      <point x="219" y="29" type="curve" smooth="yes"/>
      <point x="185" y="29"/>
      <point x="128" y="119"/>
      <point x="128" y="174" type="curve" smooth="yes"/>
      <point x="128" y="233"/>
      <point x="186" y="278"/>
      <point x="229" y="307" type="curve" smooth="yes"/>
      <point x="235" y="311"/>
      <point x="240" y="310"/>
      <point x="244" y="307" type="curve" smooth="yes"/>
      <point x="277" y="280"/>
      <point x="329" y="232"/>
    </contour>
  </outline>
</glyph>
<glyph name="nine" format="2">
  <advance width="494"/>
  <unicode hex="0039"/>
  <outline>
    <contour>
      <point x="440" y="229" type="curve" smooth="yes"/>
      <point x="440" y="337"/>
      <point x="388" y="455"/>
      <point x="302" y="455" type="curve" smooth="yes"/>
      <point x="231" y="455"/>
      <point x="86" y="324"/>
      <point x="86" y="141" type="curve" smooth="yes"/>
      <point x="86" y="56"/>
      <point x="125" y="-1"/>
      <point x="178" y="-1" type="curve" smooth="yes"/>
      <point x="229" y="-1"/>
      <point x="277" y="43"/>
      <point x="312" y="78" type="curve" smooth="yes"/>
      <point x="321" y="87"/>
      <point x="320" y="75"/>
      <point x="314" y="61" type="curve" smooth="yes"/>
      <point x="263" y="-56"/>
      <point x="189" y="-131"/>
      <point x="46" y="-182" type="curve"/>
      <point x="37" y="-187"/>
      <point x="35" y="-217"/>
      <point x="57" y="-212" type="curve" smooth="yes"/>
      <point x="153" y="-188"/>
      <point x="229" y="-153"/>
      <point x="301" y="-82" type="curve" smooth="yes"/>
      <point x="390" y="7"/>
      <point x="440" y="128"/>
    </contour>
    <contour>
      <point x="352" y="254" type="curve" smooth="yes"/>
      <point x="352" y="119"/>
      <point x="247" y="62"/>
      <point x="219" y="62" type="curve" smooth="yes"/>
      <point x="188" y="62"/>
      <point x="165" y="120"/>
      <point x="165" y="187" type="curve" smooth="yes"/>
      <point x="165" y="320"/>
      <point x="221" y="399"/>
      <point x="271" y="399" type="curve" smooth="yes"/>
      <point x="307" y="399"/>
      <point x="352" y="347"/>
    </contour>
  </outline>
</glyph>
<glyph name="colon" format="2">
  <advance width="297"/>
  <unicode hex="003A"/>
  <outline>
    <contour>
      <point x="272" y="370" type="curve" smooth="yes"/>
      <point x="272" y="400"/>
      <point x="253" y="425"/>
      <point x="227" y="425" type="curve" smooth="yes"/>
      <point x="194" y="425"/>
      <point x="177" y="395"/>
      <point x="174" y="368" type="curve" smooth="yes"/>
      <point x="171" y="339"/>
      <point x="188" y="308"/>
      <point x="218" y="308" type="curve" smooth="yes"/>
      <point x="248" y="308"/>
      <point x="272" y="334"/>
    </contour>
    <contour>
      <point x="209" y="49" type="curve" smooth="yes"/>
      <point x="209" y="79"/>
      <point x="192" y="102"/>
      <point x="166" y="102" type="curve" smooth="yes"/>
      <point x="133" y="102"/>
      <point x="112" y="68"/>
      <point x="112" y="39" type="curve" smooth="yes"/>
      <point x="112" y="9"/>
      <point x="132" y="-14"/>
      <point x="158" y="-14" type="curve" smooth="yes"/>
      <point x="188" y="-14"/>
      <point x="209" y="13"/>
    </contour>
  </outline>
</glyph>
<glyph name="semicolon" format="2">
  <advance width="297"/>
  <unicode hex="003B"/>
  <outline>
    <contour>
      <point x="268" y="371" type="curve" smooth="yes"/>
      <point x="268" y="387"/>
      <point x="267" y="404"/>
      <point x="253" y="412" type="curve" smooth="yes"/>
      <point x="238" y="420"/>
      <point x="234" y="425"/>
      <point x="221" y="425" type="curve" smooth="yes"/>
      <point x="193" y="425"/>
      <point x="171" y="403"/>
      <point x="167" y="371" type="curve" smooth="yes"/>
      <point x="166" y="358"/>
      <point x="164" y="344"/>
      <point x="174" y="333" type="curve" smooth="yes"/>
      <point x="184" y="323"/>
      <point x="196" y="308"/>
      <point x="212" y="308" type="curve" smooth="yes"/>
      <point x="243" y="308"/>
      <point x="268" y="335"/>
    </contour>
    <contour>
      <point x="210" y="22" type="curve" smooth="yes"/>
      <point x="210" y="64"/>
      <point x="188" y="101"/>
      <point x="156" y="101" type="curve" smooth="yes"/>
      <point x="129" y="101"/>
      <point x="109" y="77"/>
      <point x="109" y="48" type="curve" smooth="yes"/>
      <point x="109" y="33"/>
      <point x="113" y="19"/>
      <point x="124" y="-2" type="curve" smooth="yes"/>
      <point x="136" y="-23"/>
      <point x="138" y="-30"/>
      <point x="138" y="-44" type="curve" smooth="yes"/>
      <point x="138" y="-91"/>
      <point x="94" y="-127"/>
      <point x="60" y="-148" type="curve" smooth="yes"/>
      <point x="48" y="-155"/>
      <point x="50" y="-165"/>
      <point x="54" y="-172" type="curve"/>
      <point x="55" y="-177"/>
      <point x="68" y="-179"/>
      <point x="71" y="-177" type="curve" smooth="yes"/>
      <point x="166" y="-119"/>
      <point x="210" y="-57"/>
    </contour>
  </outline>
</glyph>
<glyph name="less" format="2">
  <advance width="679"/>
  <unicode hex="003C"/>
  <outline>
    <contour>
      <point x="609" y="74" type="line"/>
      <point x="609" y="145" type="line"/>
      <point x="162" y="334" type="line"/>
      <point x="609" y="523" type="line"/>
      <point x="609" y="594" type="line"/>
      <point x="70" y="362" type="line"/>
      <point x="70" y="307" type="line"/>
    </contour>
  </outline>
</glyph>
<glyph name="greater" format="2">
  <advance width="679"/>
  <unicode hex="003E"/>
  <outline>
    <contour>
      <point x="609" y="306" type="line"/>
      <point x="609" y="361" type="line"/>
      <point x="70" y="594" type="line"/>
      <point x="70" y="522" type="line"/>
      <point x="518" y="333" type="line"/>
      <point x="70" y="145" type="line"/>
      <point x="70" y="74" type="line"/>
    </contour>
  </outline>
</glyph>
<glyph name="question" format="2">
  <advance width="403"/>
  <unicode hex="003F"/>
  <outline>
    <contour>
      <point x="396" y="499" type="curve" smooth="yes"/>
      <point x="396" y="596"/>
      <point x="337" y="662"/>
      <point x="252" y="662" type="curve" smooth="yes"/>
      <point x="201" y="662"/>
      <point x="157" y="640"/>
      <point x="157" y="604" type="curve" smooth="yes"/>
      <point x="157" y="582"/>
      <point x="168" y="561"/>
      <point x="187" y="561" type="curve" smooth="yes"/>
      <point x="201" y="561"/>
      <point x="214" y="565"/>
      <point x="227" y="568" type="curve"/>
      <point x="241" y="572"/>
      <point x="255" y="576"/>
      <point x="269" y="576" type="curve" smooth="yes"/>
      <point x="317" y="576"/>
      <point x="352" y="543"/>
      <point x="352" y="501" type="curve" smooth="yes"/>
      <point x="352" y="459"/>
      <point x="326" y="435"/>
      <point x="294" y="415" type="curve" smooth="yes"/>
      <point x="263" y="395"/>
      <point x="223" y="378"/>
      <point x="201" y="348" type="curve" smooth="yes"/>
      <point x="176" y="314"/>
      <point x="156" y="256"/>
      <point x="151" y="176" type="curve" smooth="yes"/>
      <point x="150" y="157"/>
      <point x="179" y="156"/>
      <point x="182" y="170" type="curve" smooth="yes"/>
      <point x="190" y="208"/>
      <point x="195" y="219"/>
      <point x="208" y="244" type="curve" smooth="yes"/>
      <point x="239" y="303"/>
      <point x="299" y="305"/>
      <point x="344" y="348" type="curve" smooth="yes"/>
      <point x="377" y="380"/>
      <point x="396" y="437"/>
    </contour>
    <contour>
      <point x="192" y="45" type="curve" smooth="yes"/>
      <point x="193" y="59"/>
      <point x="186" y="72"/>
      <point x="181" y="84" type="curve" smooth="yes"/>
      <point x="176" y="96"/>
      <point x="160" y="103"/>
      <point x="146" y="103" type="curve" smooth="yes"/>
      <point x="131" y="103"/>
      <point x="120" y="93"/>
      <point x="109" y="84" type="curve"/>
      <point x="98" y="76"/>
      <point x="95" y="61"/>
      <point x="94" y="45" type="curve" smooth="yes"/>
      <point x="91" y="16"/>
      <point x="102" y="-14"/>
      <point x="137" y="-14" type="curve" smooth="yes"/>
      <point x="154" y="-14"/>
      <point x="172" y="-6"/>
      <point x="177" y="4" type="curve"/>
      <point x="181" y="14"/>
      <point x="191" y="27"/>
    </contour>
  </outline>
</glyph>
<glyph name="at" format="2">
  <advance width="933"/>
  <unicode hex="0040"/>
  <outline>
    <contour>
      <point x="969" y="94" type="curve"/>
      <point x="972" y="114"/>
      <point x="936" y="117"/>
      <point x="929" y="94" type="curve"/>
      <point x="854" y="-85"/>
      <point x="704" y="-172"/>
      <point x="527" y="-172" type="curve" smooth="yes"/>
      <point x="305" y="-172"/>
      <point x="158" y="-20"/>
      <point x="158" y="212" type="curve" smooth="yes"/>
      <point x="158" y="477"/>
      <point x="343" y="684"/>
      <point x="575" y="684" type="curve" smooth="yes"/>
      <point x="758" y="684"/>
      <point x="888" y="558"/>
      <point x="888" y="381" type="curve" smooth="yes"/>
      <point x="888" y="279"/>
      <point x="815" y="60"/>
      <point x="685" y="60" type="curve" smooth="yes"/>
      <point x="631" y="60"/>
      <point x="662" y="146"/>
      <point x="670" y="173" type="curve" smooth="yes"/>
      <point x="706" y="301"/>
      <point x="691" y="249"/>
      <point x="750" y="454" type="curve" smooth="yes"/>
      <point x="757" y="479"/>
      <point x="750" y="490"/>
      <point x="733" y="487" type="curve" smooth="yes"/>
      <point x="687" y="480" type="line" smooth="yes"/>
      <point x="666" y="477"/>
      <point x="671" y="483"/>
      <point x="661" y="447" type="curve" smooth="yes"/>
      <point x="657" y="432"/>
      <point x="656" y="441"/>
      <point x="649" y="453" type="curve" smooth="yes"/>
      <point x="633" y="479"/>
      <point x="608" y="492"/>
      <point x="573" y="492" type="curve" smooth="yes"/>
      <point x="528" y="492"/>
      <point x="473" y="462"/>
      <point x="422" y="409" type="curve" smooth="yes"/>
      <point x="347" y="332"/>
      <point x="297" y="221"/>
      <point x="297" y="135" type="curve" smooth="yes"/>
      <point x="297" y="66"/>
      <point x="336" y="12"/>
      <point x="391" y="12" type="curve" smooth="yes"/>
      <point x="427" y="12"/>
      <point x="470" y="32"/>
      <point x="509" y="68" type="curve" smooth="yes"/>
      <point x="530" y="87"/>
      <point x="542" y="99"/>
      <point x="559" y="121" type="curve" smooth="yes"/>
      <point x="579" y="145"/>
      <point x="571" y="98"/>
      <point x="571" y="88" type="curve" smooth="yes"/>
      <point x="571" y="38"/>
      <point x="599" y="12"/>
      <point x="652" y="12" type="curve" smooth="yes"/>
      <point x="806" y="12"/>
      <point x="930" y="175"/>
      <point x="930" y="372" type="curve" smooth="yes"/>
      <point x="930" y="580"/>
      <point x="784" y="723"/>
      <point x="571" y="723" type="curve" smooth="yes"/>
      <point x="307" y="723"/>
      <point x="100" y="504"/>
      <point x="100" y="225" type="curve" smooth="yes"/>
      <point x="100" y="-34"/>
      <point x="275" y="-214"/>
      <point x="525" y="-214" type="curve" smooth="yes"/>
      <point x="726" y="-214"/>
      <point x="907" y="-102"/>
    </contour>
    <contour>
      <point x="634" y="389" type="curve" smooth="yes"/>
      <point x="634" y="362"/>
      <point x="627" y="326"/>
      <point x="612" y="277" type="curve" smooth="yes"/>
      <point x="591" y="209"/>
      <point x="515" y="84"/>
      <point x="436" y="84" type="curve" smooth="yes"/>
      <point x="410" y="84"/>
      <point x="386" y="112"/>
      <point x="386" y="150" type="curve" smooth="yes"/>
      <point x="386" y="217"/>
      <point x="439" y="338"/>
      <point x="501" y="412" type="curve" smooth="yes"/>
      <point x="526" y="441"/>
      <point x="555" y="457"/>
      <point x="578" y="457" type="curve" smooth="yes"/>
      <point x="611" y="457"/>
      <point x="634" y="430"/>
    </contour>
  </outline>
</glyph>
<glyph name="A" format="2">
  <advance width="693"/>
  <unicode hex="0041"/>
  <outline>
    <contour>
      <point x="676" y="12" type="curve"/>
      <point x="678" y="23"/>
      <point x="673" y="33"/>
      <point x="663" y="34" type="curve"/>
      <point x="661" y="34"/>
      <point x="659" y="34"/>
      <point x="656" y="34" type="curve" smooth="yes"/>
      <point x="647" y="34"/>
      <point x="637" y="32"/>
      <point x="629" y="33" type="curve" smooth="yes"/>
      <point x="606" y="36"/>
      <point x="585" y="43"/>
      <point x="585" y="83" type="curve" smooth="yes"/>
      <point x="579" y="653" type="line" smooth="yes"/>
      <point x="579" y="670"/>
      <point x="517" y="666"/>
      <point x="510" y="656" type="curve" smooth="yes"/>
      <point x="98" y="120" type="line" smooth="yes"/>
      <point x="47" y="53"/>
      <point x="25" y="40"/>
      <point x="-25" y="32" type="curve"/>
      <point x="-47" y="32"/>
      <point x="-48" y="-3"/>
      <point x="-32" y="-3" type="curve" smooth="yes"/>
      <point x="40" y="-1"/>
      <point x="137" y="-3"/>
      <point x="206" y="-4" type="curve" smooth="yes"/>
      <point x="224" y="-4"/>
      <point x="228" y="33"/>
      <point x="210" y="33" type="curve" smooth="yes"/>
      <point x="203" y="33"/>
      <point x="194" y="32"/>
      <point x="185" y="33" type="curve" smooth="yes"/>
      <point x="159" y="35"/>
      <point x="134" y="35"/>
      <point x="134" y="65" type="curve" smooth="yes"/>
      <point x="134" y="75"/>
      <point x="137" y="88"/>
      <point x="149" y="104" type="curve" smooth="yes"/>
      <point x="264" y="259" type="line"/>
      <point x="274" y="269"/>
      <point x="286" y="275"/>
      <point x="295" y="275" type="curve"/>
      <point x="343" y="278"/>
      <point x="415" y="278"/>
      <point x="469" y="275" type="curve"/>
      <point x="475" y="275"/>
      <point x="489" y="267"/>
      <point x="489" y="262" type="curve"/>
      <point x="488" y="107" type="line"/>
      <point x="488" y="46"/>
      <point x="469" y="32"/>
      <point x="383" y="32" type="curve" smooth="yes"/>
      <point x="365" y="32"/>
      <point x="364" y="-4"/>
      <point x="379" y="-4" type="curve" smooth="yes"/>
      <point x="450" y="-3"/>
      <point x="590" y="-1"/>
      <point x="658" y="-4" type="curve" smooth="yes"/>
      <point x="670" y="-5"/>
      <point x="675" y="1"/>
    </contour>
    <contour>
      <point x="490" y="343" type="line" smooth="yes"/>
      <point x="490" y="331"/>
      <point x="476" y="328"/>
      <point x="470" y="328" type="curve" smooth="yes"/>
      <point x="438" y="329"/>
      <point x="378" y="330"/>
      <point x="341" y="328" type="curve"/>
      <point x="330" y="328"/>
      <point x="328" y="343"/>
      <point x="332" y="347" type="curve"/>
      <point x="370" y="395"/>
      <point x="424" y="478"/>
      <point x="469" y="535" type="curve"/>
      <point x="472" y="538"/>
      <point x="490" y="556"/>
      <point x="490" y="533" type="curve" smooth="yes"/>
    </contour>
  </outline>
</glyph>
<glyph name="B" format="2">
  <advance width="646"/>
  <unicode hex="0042"/>
  <outline>
    <contour>
      <point x="635" y="505" type="curve" smooth="yes"/>
      <point x="635" y="596"/>
      <point x="557" y="649"/>
      <point x="429" y="646" type="curve" smooth="yes"/>
      <point x="355" y="644"/>
      <point x="216" y="644"/>
      <point x="152" y="647" type="curve" smooth="yes"/>
      <point x="144" y="647"/>
      <point x="138" y="637"/>
      <point x="138" y="630" type="curve"/>
      <point x="135" y="607"/>
      <point x="155" y="612"/>
      <point x="169" y="609" type="curve"/>
      <point x="241" y="610"/>
      <point x="226" y="567"/>
      <point x="216" y="518" type="curve" smooth="yes"/>
      <point x="133" y="128" type="line" smooth="yes"/>
      <point x="119" y="60"/>
      <point x="105" y="42"/>
      <point x="65" y="36" type="curve"/>
      <point x="53" y="33"/>
      <point x="46" y="36"/>
      <point x="37" y="36" type="curve" smooth="yes"/>
      <point x="19" y="36"/>
      <point x="15" y="-6"/>
      <point x="31" y="-3" type="curve"/>
      <point x="114" y="-1"/>
      <point x="269" y="-3"/>
      <point x="341" y="-4" type="curve" smooth="yes"/>
      <point x="511" y="-6"/>
      <point x="617" y="71"/>
      <point x="617" y="194" type="curve" smooth="yes"/>
      <point x="617" y="264"/>
      <point x="573" y="324"/>
      <point x="500" y="353" type="curve"/>
      <point x="493" y="355"/>
      <point x="496" y="360"/>
      <point x="502" y="362" type="curve"/>
      <point x="585" y="382"/>
      <point x="635" y="436"/>
    </contour>
    <contour>
      <point x="535" y="513" type="curve" smooth="yes"/>
      <point x="535" y="466"/>
      <point x="514" y="432"/>
      <point x="474" y="409" type="curve" smooth="yes"/>
      <point x="443" y="392"/>
      <point x="413" y="385"/>
      <point x="344" y="385" type="curve" smooth="yes"/>
      <point x="309" y="385" type="line" smooth="yes"/>
      <point x="297" y="385"/>
      <point x="290" y="406"/>
      <point x="293" y="419" type="curve" smooth="yes"/>
      <point x="328" y="590" type="line" smooth="yes"/>
      <point x="330" y="598"/>
      <point x="343" y="611"/>
      <point x="355" y="611" type="curve" smooth="yes"/>
      <point x="390" y="611" type="line" smooth="yes"/>
      <point x="437" y="611"/>
      <point x="466" y="607"/>
      <point x="487" y="598" type="curve" smooth="yes"/>
      <point x="517" y="585"/>
      <point x="535" y="555"/>
    </contour>
    <contour>
      <point x="514" y="205" type="curve" smooth="yes"/>
      <point x="514" y="146"/>
      <point x="488" y="95"/>
      <point x="445" y="65" type="curve" smooth="yes"/>
      <point x="413" y="43"/>
      <point x="383" y="37"/>
      <point x="323" y="37" type="curve" smooth="yes"/>
      <point x="233" y="37"/>
      <point x="217" y="61"/>
      <point x="233" y="140" type="curve" smooth="yes"/>
      <point x="271" y="322" type="line"/>
      <point x="279" y="341"/>
      <point x="290" y="346"/>
      <point x="302" y="346" type="curve" smooth="yes"/>
      <point x="338" y="346" type="line" smooth="yes"/>
      <point x="449" y="346"/>
      <point x="514" y="292"/>
    </contour>
  </outline>
</glyph>
<glyph name="C" format="2">
  <advance width="712"/>
  <unicode hex="0043"/>
  <outline>
    <contour>
      <point x="727" y="586" type="curve" smooth="yes"/>
      <point x="733" y="605"/>
      <point x="721" y="618"/>
      <point x="713" y="621" type="curve" smooth="yes"/>
      <point x="643" y="648"/>
      <point x="578" y="663"/>
      <point x="500" y="663" type="curve" smooth="yes"/>
      <point x="237" y="663"/>
      <point x="29" y="495"/>
      <point x="29" y="278" type="curve" smooth="yes"/>
      <point x="29" y="93"/>
      <point x="174" y="-18"/>
      <point x="349" y="-18" type="curve" smooth="yes"/>
      <point x="387" y="-18"/>
      <point x="426" y="-13"/>
      <point x="480" y="-2" type="curve" smooth="yes"/>
      <point x="521" y="6"/>
      <point x="532" y="12"/>
      <point x="571" y="0" type="curve"/>
      <point x="578" y="-5"/>
      <point x="589" y="-4"/>
      <point x="592" y="4" type="curve" smooth="yes"/>
      <point x="643" y="159" type="line" smooth="yes"/>
      <point x="649" y="176"/>
      <point x="619" y="182"/>
      <point x="614" y="171" type="curve"/>
      <point x="546" y="73"/>
      <point x="460" y="22"/>
      <point x="354" y="22" type="curve" smooth="yes"/>
      <point x="214" y="22"/>
      <point x="134" y="115"/>
      <point x="134" y="268" type="curve" smooth="yes"/>
      <point x="134" y="465"/>
      <point x="295" y="623"/>
      <point x="493" y="623" type="curve" smooth="yes"/>
      <point x="608" y="623"/>
      <point x="660" y="576"/>
      <point x="660" y="487" type="curve" smooth="yes"/>
      <point x="660" y="475"/>
      <point x="660" y="472"/>
      <point x="657" y="460" type="curve" smooth="yes"/>
      <point x="653" y="444"/>
      <point x="684" y="441"/>
      <point x="689" y="457" type="curve" smooth="yes"/>
      <point x="709" y="529"/>
      <point x="721" y="566"/>
    </contour>
  </outline>
</glyph>
<glyph name="D" format="2">
  <advance width="793"/>
  <unicode hex="0044"/>
  <outline>
    <contour>
      <point x="780" y="357" type="curve" smooth="yes"/>
      <point x="780" y="533"/>
      <point x="637" y="647"/>
      <point x="423" y="646" type="curve" smooth="yes"/>
      <point x="323" y="645"/>
      <point x="198" y="644"/>
      <point x="128" y="646" type="curve" smooth="yes"/>
      <point x="111" y="646"/>
      <point x="104" y="608"/>
      <point x="123" y="607" type="curve" smooth="yes"/>
      <point x="153" y="606" type="line" smooth="yes"/>
      <point x="223" y="604"/>
      <point x="220" y="583"/>
      <point x="209" y="530" type="curve" smooth="yes"/>
      <point x="123" y="128" type="line" smooth="yes"/>
      <point x="107" y="51"/>
      <point x="98" y="42"/>
      <point x="53" y="40" type="curve"/>
      <point x="44" y="39"/>
      <point x="39" y="40"/>
      <point x="34" y="40" type="curve" smooth="yes"/>
      <point x="25" y="40"/>
      <point x="12" y="40"/>
      <point x="6" y="32" type="curve"/>
      <point x="-4" y="21"/>
      <point x="-3" y="-3"/>
      <point x="13" y="-3" type="curve" smooth="yes"/>
      <point x="96" y="-1"/>
      <point x="272" y="-2"/>
      <point x="363" y="-3" type="curve" smooth="yes"/>
      <point x="597" y="-5"/>
      <point x="780" y="155"/>
    </contour>
    <contour>
      <point x="672" y="363" type="curve" smooth="yes"/>
      <point x="672" y="223"/>
      <point x="580" y="98"/>
      <point x="449" y="57" type="curve" smooth="yes"/>
      <point x="414" y="46"/>
      <point x="357" y="39"/>
      <point x="301" y="39" type="curve" smooth="yes"/>
      <point x="223" y="39"/>
      <point x="202" y="44"/>
      <point x="217" y="115" type="curve" smooth="yes"/>
      <point x="318" y="588" type="line"/>
      <point x="323" y="602"/>
      <point x="339" y="607"/>
      <point x="350" y="607" type="curve" smooth="yes"/>
      <point x="521" y="614"/>
      <point x="672" y="548"/>
    </contour>
  </outline>
</glyph>
<glyph name="F" format="2">
  <advance width="549"/>
  <unicode hex="0046"/>
  <outline>
    <contour>
      <point x="610" y="622" type="curve" smooth="yes"/>
      <point x="614" y="645"/>
      <point x="602" y="646"/>
      <point x="589" y="646" type="curve" smooth="yes"/>
      <point x="453" y="645"/>
      <point x="251" y="645"/>
      <point x="140" y="646" type="curve"/>
      <point x="122" y="648"/>
      <point x="121" y="610"/>
      <point x="135" y="610" type="curve" smooth="yes"/>
      <point x="152" y="610" type="line" smooth="yes"/>
      <point x="192" y="610"/>
      <point x="213" y="594"/>
      <point x="213" y="570" type="curve" smooth="yes"/>
      <point x="213" y="561"/>
      <point x="212" y="553"/>
      <point x="207" y="531" type="curve" smooth="yes"/>
      <point x="118" y="116" type="line" smooth="yes"/>
      <point x="104" y="52"/>
      <point x="90" y="38"/>
      <point x="48" y="36" type="curve" smooth="yes"/>
      <point x="40" y="36"/>
      <point x="33" y="35"/>
      <point x="25" y="35" type="curve"/>
      <point x="8" y="37"/>
      <point x="6" y="-4"/>
      <point x="21" y="-3" type="curve" smooth="yes"/>
      <point x="87" y="0"/>
      <point x="222" y="-1"/>
      <point x="291" y="-4" type="curve"/>
      <point x="302" y="-3"/>
      <point x="307" y="13"/>
      <point x="306" y="24" type="curve"/>
      <point x="304" y="32"/>
      <point x="290" y="42"/>
      <point x="278" y="38" type="curve"/>
      <point x="268" y="38"/>
      <point x="259" y="36"/>
      <point x="251" y="37" type="curve" smooth="yes"/>
      <point x="198" y="45"/>
      <point x="207" y="75"/>
      <point x="215" y="114" type="curve" smooth="yes"/>
      <point x="252" y="287" type="line" smooth="yes"/>
      <point x="256" y="304"/>
      <point x="264" y="307"/>
      <point x="267" y="307" type="curve" smooth="yes"/>
      <point x="299" y="307"/>
      <point x="364" y="306"/>
      <point x="399" y="307" type="curve" smooth="yes"/>
      <point x="454" y="309"/>
      <point x="470" y="291"/>
      <point x="470" y="226" type="curve" smooth="yes"/>
      <point x="470" y="213"/>
      <point x="498" y="211"/>
      <point x="501" y="228" type="curve" smooth="yes"/>
      <point x="507" y="268"/>
      <point x="524" y="362"/>
      <point x="538" y="412" type="curve" smooth="yes"/>
      <point x="541" y="421"/>
      <point x="510" y="427"/>
      <point x="506" y="415" type="curve"/>
      <point x="479" y="365"/>
      <point x="461" y="348"/>
      <point x="413" y="349" type="curve" smooth="yes"/>
      <point x="380" y="350"/>
      <point x="314" y="350"/>
      <point x="281" y="349" type="curve" smooth="yes"/>
      <point x="272" y="349"/>
      <point x="266" y="359"/>
      <point x="269" y="372" type="curve" smooth="yes"/>
      <point x="313" y="578" type="line" smooth="yes"/>
      <point x="316" y="593"/>
      <point x="327" y="609"/>
      <point x="340" y="609" type="curve" smooth="yes"/>
      <point x="462" y="608" type="line" smooth="yes"/>
      <point x="535" y="607"/>
      <point x="556" y="587"/>
      <point x="556" y="519" type="curve" smooth="yes"/>
      <point x="556" y="515"/>
      <point x="555" y="509"/>
      <point x="555" y="501" type="curve"/>
      <point x="554" y="485"/>
      <point x="584" y="491"/>
      <point x="585" y="500" type="curve"/>
      <point x="593" y="531"/>
      <point x="605" y="590"/>
    </contour>
  </outline>
</glyph>
<glyph name="G" format="2">
  <advance width="747"/>
  <unicode hex="0047"/>
  <outline>
    <contour>
      <point x="744" y="247" type="curve"/>
      <point x="687" y="245"/>
      <point x="587" y="245"/>
      <point x="515" y="247" type="curve" smooth="yes"/>
      <point x="503" y="247"/>
      <point x="491" y="218"/>
      <point x="509" y="214" type="curve"/>
      <point x="518" y="213" type="line" smooth="yes"/>
      <point x="563" y="208"/>
      <point x="573" y="204"/>
      <point x="573" y="173" type="curve" smooth="yes"/>
      <point x="573" y="146"/>
      <point x="561" y="75"/>
      <point x="542" y="56" type="curve" smooth="yes"/>
      <point x="520" y="36"/>
      <point x="463" y="19"/>
      <point x="404" y="19" type="curve" smooth="yes"/>
      <point x="232" y="19"/>
      <point x="168" y="113"/>
      <point x="168" y="271" type="curve" smooth="yes"/>
      <point x="168" y="470"/>
      <point x="286" y="625"/>
      <point x="474" y="625" type="curve" smooth="yes"/>
      <point x="593" y="625"/>
      <point x="668" y="566"/>
      <point x="693" y="466" type="curve" smooth="yes"/>
      <point x="696" y="454"/>
      <point x="727" y="456"/>
      <point x="722" y="473" type="curve"/>
      <point x="720" y="586" type="line" smooth="yes"/>
      <point x="720" y="603"/>
      <point x="718" y="612"/>
      <point x="709" y="615" type="curve" smooth="yes"/>
      <point x="629" y="645"/>
      <point x="553" y="662"/>
      <point x="479" y="662" type="curve" smooth="yes"/>
      <point x="232" y="662"/>
      <point x="66" y="494"/>
      <point x="66" y="285" type="curve" smooth="yes"/>
      <point x="66" y="87"/>
      <point x="227" y="-18"/>
      <point x="400" y="-18" type="curve" smooth="yes"/>
      <point x="488" y="-18"/>
      <point x="593" y="-3"/>
      <point x="676" y="19" type="curve" smooth="yes"/>
      <point x="689" y="22"/>
      <point x="691" y="45"/>
      <point x="680" y="48" type="curve"/>
      <point x="655" y="49"/>
      <point x="648" y="57"/>
      <point x="648" y="65" type="curve" smooth="yes"/>
      <point x="648" y="94"/>
      <point x="660" y="126"/>
      <point x="665" y="155" type="curve" smooth="yes"/>
      <point x="673" y="201"/>
      <point x="689" y="207"/>
      <point x="729" y="212" type="curve"/>
      <point x="733" y="213"/>
      <point x="737" y="213"/>
      <point x="741" y="213" type="curve"/>
      <point x="754" y="214"/>
      <point x="758" y="245"/>
    </contour>
  </outline>
</glyph>
<glyph name="H" format="2">
  <advance width="773"/>
  <unicode hex="0048"/>
  <outline>
    <contour>
      <point x="830" y="647" type="curve" smooth="yes"/>
      <point x="759" y="645"/>
      <point x="629" y="645"/>
      <point x="566" y="647" type="curve" smooth="yes"/>
      <point x="549" y="647"/>
      <point x="549" y="612"/>
      <point x="561" y="612" type="curve" smooth="yes"/>
      <point x="629" y="612"/>
      <point x="643" y="596"/>
      <point x="630" y="532" type="curve" smooth="yes"/>
      <point x="595" y="362" type="line" smooth="yes"/>
      <point x="594" y="356"/>
      <point x="583" y="350"/>
      <point x="576" y="350" type="curve" smooth="yes"/>
      <point x="503" y="352"/>
      <point x="361" y="352"/>
      <point x="274" y="350" type="curve" smooth="yes"/>
      <point x="269" y="350"/>
      <point x="258" y="358"/>
      <point x="263" y="370" type="curve"/>
      <point x="296" y="529" type="line" smooth="yes"/>
      <point x="309" y="590"/>
      <point x="325" y="607"/>
      <point x="366" y="610" type="curve" smooth="yes"/>
      <point x="379" y="611"/>
      <point x="393" y="611"/>
      <point x="406" y="610" type="curve"/>
      <point x="418" y="610"/>
      <point x="423" y="650"/>
      <point x="408" y="648" type="curve"/>
      <point x="338" y="645"/>
      <point x="196" y="646"/>
      <point x="123" y="648" type="curve" smooth="yes"/>
      <point x="106" y="649"/>
      <point x="103" y="615"/>
      <point x="117" y="612" type="curve"/>
      <point x="125" y="613"/>
      <point x="129" y="608"/>
      <point x="153" y="609" type="curve" smooth="yes"/>
      <point x="215" y="613"/>
      <point x="209" y="574"/>
      <point x="200" y="532" type="curve" smooth="yes"/>
      <point x="115" y="128" type="line" smooth="yes"/>
      <point x="99" y="50"/>
      <point x="77" y="38"/>
      <point x="21" y="35" type="curve" smooth="yes"/>
      <point x="1" y="34" type="line" smooth="yes"/>
      <point x="-14" y="33"/>
      <point x="-17" y="-3"/>
      <point x="-5" y="-3" type="curve" smooth="yes"/>
      <point x="102" y="-1"/>
      <point x="194" y="-1"/>
      <point x="291" y="-3" type="curve"/>
      <point x="303" y="-5"/>
      <point x="312" y="34"/>
      <point x="293" y="34" type="curve"/>
      <point x="284" y="36"/>
      <point x="278" y="37"/>
      <point x="269" y="35" type="curve"/>
      <point x="199" y="35"/>
      <point x="197" y="59"/>
      <point x="209" y="114" type="curve" smooth="yes"/>
      <point x="246" y="288" type="line" smooth="yes"/>
      <point x="248" y="298"/>
      <point x="260" y="304"/>
      <point x="268" y="305" type="curve"/>
      <point x="365" y="306"/>
      <point x="489" y="307"/>
      <point x="561" y="304" type="curve" smooth="yes"/>
      <point x="563" y="304"/>
      <point x="582" y="304"/>
      <point x="578" y="286" type="curve" smooth="yes"/>
      <point x="542" y="116" type="line" smooth="yes"/>
      <point x="529" y="56"/>
      <point x="515" y="40"/>
      <point x="472" y="35" type="curve" smooth="yes"/>
      <point x="459" y="34"/>
      <point x="445" y="38"/>
      <point x="433" y="35" type="curve"/>
      <point x="422" y="36"/>
      <point x="416" y="15"/>
      <point x="420" y="4" type="curve" smooth="yes"/>
      <point x="422" y="-2"/>
      <point x="424" y="-1"/>
      <point x="437" y="-3" type="curve"/>
      <point x="521" y="-2"/>
      <point x="616" y="1"/>
      <point x="690" y="-1" type="curve" smooth="yes"/>
      <point x="703" y="-1"/>
      <point x="716" y="-7"/>
      <point x="723" y="4" type="curve"/>
      <point x="728" y="14"/>
      <point x="725" y="36"/>
      <point x="716" y="37" type="curve"/>
      <point x="706" y="39"/>
      <point x="698" y="36"/>
      <point x="688" y="37" type="curve" smooth="yes"/>
      <point x="649" y="39"/>
      <point x="634" y="50"/>
      <point x="634" y="78" type="curve" smooth="yes"/>
      <point x="634" y="90"/>
      <point x="636" y="102"/>
      <point x="639" y="114" type="curve" smooth="yes"/>
      <point x="724" y="516" type="line" smooth="yes"/>
      <point x="740" y="591"/>
      <point x="756" y="608"/>
      <point x="800" y="612" type="curve" smooth="yes"/>
      <point x="808" y="613"/>
      <point x="818" y="611"/>
      <point x="826" y="611" type="curve"/>
      <point x="837" y="613"/>
      <point x="846" y="648"/>
    </contour>
  </outline>
</glyph>
<glyph name="I" format="2">
  <advance width="356"/>
  <unicode hex="0049"/>
  <outline>
    <contour>
      <point x="417" y="646" type="curve" smooth="yes"/>
      <point x="348" y="644"/>
      <point x="240" y="645"/>
      <point x="165" y="646" type="curve" smooth="yes"/>
      <point x="155" y="646"/>
      <point x="152" y="647"/>
      <point x="147" y="640" type="curve" smooth="yes"/>
      <point x="140" y="631"/>
      <point x="136" y="614"/>
      <point x="150" y="610" type="curve" smooth="yes"/>
      <point x="154" y="609"/>
      <point x="163" y="609"/>
      <point x="167" y="609" type="curve" smooth="yes"/>
      <point x="209" y="607"/>
      <point x="226" y="599"/>
      <point x="226" y="574" type="curve" smooth="yes"/>
      <point x="226" y="566"/>
      <point x="224" y="553"/>
      <point x="220" y="532" type="curve" smooth="yes"/>
      <point x="133" y="116" type="line" smooth="yes"/>
      <point x="120" y="55"/>
      <point x="104" y="33"/>
      <point x="39" y="34" type="curve" smooth="yes"/>
      <point x="22" y="34"/>
      <point x="15" y="-4"/>
      <point x="34" y="-3" type="curve" smooth="yes"/>
      <point x="119" y="0"/>
      <point x="215" y="0"/>
      <point x="300" y="-3" type="curve"/>
      <point x="314" y="-2"/>
      <point x="320" y="33"/>
      <point x="302" y="33" type="curve" smooth="yes"/>
      <point x="256" y="32"/>
      <point x="223" y="34"/>
      <point x="223" y="82" type="curve" smooth="yes"/>
      <point x="223" y="93"/>
      <point x="227" y="103"/>
      <point x="229" y="114" type="curve" smooth="yes"/>
      <point x="316" y="529" type="line" smooth="yes"/>
      <point x="331" y="600"/>
      <point x="344" y="609"/>
      <point x="404" y="612" type="curve"/>
      <point x="408" y="611"/>
      <point x="412" y="612"/>
      <point x="415" y="613" type="curve"/>
      <point x="425" y="614"/>
      <point x="437" y="646"/>
    </contour>
  </outline>
</glyph>
<glyph name="J" format="2">
  <advance width="338"/>
  <unicode hex="004A"/>
  <outline>
    <contour>
      <point x="402" y="646" type="curve" smooth="yes"/>
      <point x="333" y="644"/>
      <point x="200" y="645"/>
      <point x="136" y="647" type="curve" smooth="yes"/>
      <point x="131" y="647"/>
      <point x="127" y="644"/>
      <point x="124" y="641" type="curve"/>
      <point x="115" y="631"/>
      <point x="117" y="610"/>
      <point x="132" y="614" type="curve"/>
      <point x="143" y="611"/>
      <point x="154" y="614"/>
      <point x="164" y="613" type="curve" smooth="yes"/>
      <point x="196" y="609"/>
      <point x="211" y="595"/>
      <point x="211" y="571" type="curve" smooth="yes"/>
      <point x="211" y="563"/>
      <point x="210" y="552"/>
      <point x="206" y="531" type="curve" smooth="yes"/>
      <point x="88" y="-95" type="line" smooth="yes"/>
      <point x="81" y="-131"/>
      <point x="77" y="-145"/>
      <point x="70" y="-162" type="curve" smooth="yes"/>
      <point x="53" y="-200"/>
      <point x="25" y="-224"/>
      <point x="-23" y="-224" type="curve" smooth="yes"/>
      <point x="-43" y="-224"/>
      <point x="-59" y="-219"/>
      <point x="-77" y="-213" type="curve" smooth="yes"/>
      <point x="-93" y="-208"/>
      <point x="-107" y="-198"/>
      <point x="-124" y="-198" type="curve" smooth="yes"/>
      <point x="-136" y="-198"/>
      <point x="-152" y="-202"/>
      <point x="-161" y="-214" type="curve" smooth="yes"/>
      <point x="-171" y="-227"/>
      <point x="-177" y="-247"/>
      <point x="-177" y="-255" type="curve" smooth="yes"/>
      <point x="-177" y="-279"/>
      <point x="-152" y="-287"/>
      <point x="-104" y="-287" type="curve" smooth="yes"/>
      <point x="-24" y="-287"/>
      <point x="38" y="-257"/>
      <point x="98" y="-207" type="curve" smooth="yes"/>
      <point x="158" y="-158"/>
      <point x="182" y="-111"/>
      <point x="200" y="-14" type="curve" smooth="yes"/>
      <point x="302" y="529" type="line" smooth="yes"/>
      <point x="313" y="589"/>
      <point x="329" y="605"/>
      <point x="370" y="609" type="curve" smooth="yes"/>
      <point x="379" y="610"/>
      <point x="389" y="610"/>
      <point x="398" y="610" type="curve"/>
      <point x="410" y="612"/>
      <point x="420" y="646"/>
    </contour>
  </outline>
</glyph>
<glyph name="K" format="2">
  <advance width="710"/>
  <unicode hex="004B"/>
  <outline>
    <contour>
      <point x="792" y="637" type="curve" smooth="yes"/>
      <point x="791" y="646"/>
      <point x="781" y="646"/>
      <point x="775" y="646" type="curve" smooth="yes"/>
      <point x="721" y="644"/>
      <point x="610" y="643"/>
      <point x="554" y="645" type="curve" smooth="yes"/>
      <point x="538" y="645"/>
      <point x="532" y="612"/>
      <point x="546" y="612" type="curve" smooth="yes"/>
      <point x="552" y="612" type="line" smooth="yes"/>
      <point x="580" y="612"/>
      <point x="582" y="599"/>
      <point x="582" y="591" type="curve" smooth="yes"/>
      <point x="582" y="583"/>
      <point x="573" y="567"/>
      <point x="562" y="561" type="curve"/>
      <point x="463" y="492"/>
      <point x="381" y="426"/>
      <point x="283" y="355" type="curve" smooth="yes"/>
      <point x="274" y="348"/>
      <point x="270" y="364"/>
      <point x="271" y="372" type="curve"/>
      <point x="304" y="528" type="line" smooth="yes"/>
      <point x="319" y="599"/>
      <point x="335" y="613"/>
      <point x="394" y="613" type="curve"/>
      <point x="404" y="612" type="line"/>
      <point x="414" y="612"/>
      <point x="421" y="626"/>
      <point x="420" y="635" type="curve"/>
      <point x="419" y="641"/>
      <point x="415" y="646"/>
      <point x="408" y="646" type="curve" smooth="yes"/>
      <point x="346" y="644"/>
      <point x="230" y="646"/>
      <point x="169" y="646" type="curve"/>
      <point x="159" y="647"/>
      <point x="156" y="647"/>
      <point x="150" y="643" type="curve" smooth="yes"/>
      <point x="139" y="636"/>
      <point x="141" y="611"/>
      <point x="153" y="613" type="curve"/>
      <point x="159" y="613" type="line" smooth="yes"/>
      <point x="200" y="613"/>
      <point x="215" y="598"/>
      <point x="215" y="573" type="curve" smooth="yes"/>
      <point x="215" y="565"/>
      <point x="213" y="552"/>
      <point x="209" y="531" type="curve" smooth="yes"/>
      <point x="122" y="115" type="line" smooth="yes"/>
      <point x="109" y="53"/>
      <point x="94" y="35"/>
      <point x="48" y="32" type="curve" smooth="yes"/>
      <point x="37" y="31"/>
      <point x="29" y="32"/>
      <point x="20" y="29" type="curve" smooth="yes"/>
      <point x="14" y="27"/>
      <point x="5" y="11"/>
      <point x="11" y="2" type="curve" smooth="yes"/>
      <point x="13" y="-1"/>
      <point x="17" y="-3"/>
      <point x="22" y="-4" type="curve"/>
      <point x="86" y="-1"/>
      <point x="219" y="-2"/>
      <point x="287" y="-4" type="curve"/>
      <point x="297" y="-1"/>
      <point x="298" y="6"/>
      <point x="300" y="15" type="curve" smooth="yes"/>
      <point x="301" y="20"/>
      <point x="301" y="23"/>
      <point x="298" y="27" type="curve" smooth="yes"/>
      <point x="294" y="32"/>
      <point x="286" y="32"/>
      <point x="280" y="32" type="curve" smooth="yes"/>
      <point x="202" y="32"/>
      <point x="207" y="57"/>
      <point x="218" y="113" type="curve" smooth="yes"/>
      <point x="250" y="271" type="line"/>
      <point x="257" y="289"/>
      <point x="258" y="289"/>
      <point x="274" y="299" type="curve" smooth="yes"/>
      <point x="281" y="303"/>
      <point x="297" y="293"/>
      <point x="303" y="284" type="curve"/>
      <point x="363" y="205"/>
      <point x="465" y="76"/>
      <point x="525" y="3" type="curve"/>
      <point x="529" y="0"/>
      <point x="539" y="-3"/>
      <point x="548" y="-3" type="curve" smooth="yes"/>
      <point x="591" y="-1"/>
      <point x="650" y="-2"/>
      <point x="688" y="-3" type="curve"/>
      <point x="702" y="-5"/>
      <point x="710" y="31"/>
      <point x="694" y="31" type="curve" smooth="yes"/>
      <point x="687" y="31" type="line" smooth="yes"/>
      <point x="642" y="31"/>
      <point x="608" y="44"/>
      <point x="568" y="93" type="curve" smooth="yes"/>
      <point x="515" y="157"/>
      <point x="417" y="282"/>
      <point x="368" y="347" type="curve" smooth="yes"/>
      <point x="363" y="354"/>
      <point x="368" y="366"/>
      <point x="378" y="373" type="curve" smooth="yes"/>
      <point x="454" y="432"/>
      <point x="559" y="511"/>
      <point x="559" y="511" type="curve"/>
      <point x="637" y="571"/>
      <point x="695" y="596"/>
      <point x="734" y="604" type="curve" smooth="yes"/>
      <point x="750" y="608"/>
      <point x="766" y="612"/>
      <point x="782" y="615" type="curve" smooth="yes"/>
      <point x="789" y="616"/>
      <point x="793" y="630"/>
    </contour>
  </outline>
</glyph>
<glyph name="L" format="2">
  <advance width="603"/>
  <unicode hex="004C"/>
  <outline>
    <contour>
      <point x="613" y="139" type="curve"/>
      <point x="616" y="142"/>
      <point x="616" y="151"/>
      <point x="612" y="153" type="curve"/>
      <point x="606" y="157"/>
      <point x="590" y="157"/>
      <point x="585" y="151" type="curve" smooth="yes"/>
      <point x="553" y="110"/>
      <point x="532" y="92"/>
      <point x="500" y="74" type="curve" smooth="yes"/>
      <point x="463" y="54"/>
      <point x="422" y="45"/>
      <point x="363" y="45" type="curve" smooth="yes"/>
      <point x="270" y="45" type="line" smooth="yes"/>
      <point x="216" y="45"/>
      <point x="219" y="83"/>
      <point x="227" y="123" type="curve" smooth="yes"/>
      <point x="312" y="529" type="line" smooth="yes"/>
      <point x="327" y="600"/>
      <point x="344" y="609"/>
      <point x="404" y="609" type="curve" smooth="yes"/>
      <point x="416" y="609" type="line"/>
      <point x="421" y="608"/>
      <point x="428" y="622"/>
      <point x="430" y="629" type="curve"/>
      <point x="431" y="636"/>
      <point x="430" y="646"/>
      <point x="421" y="646" type="curve"/>
      <point x="343" y="642"/>
      <point x="209" y="644"/>
      <point x="147" y="646" type="curve" smooth="yes"/>
      <point x="136" y="646"/>
      <point x="129" y="617"/>
      <point x="136" y="611" type="curve"/>
      <point x="146" y="608"/>
      <point x="150" y="610"/>
      <point x="160" y="610" type="curve" smooth="yes"/>
      <point x="220" y="610"/>
      <point x="227" y="587"/>
      <point x="216" y="532" type="curve" smooth="yes"/>
      <point x="132" y="130" type="line" smooth="yes"/>
      <point x="117" y="58"/>
      <point x="101" y="42"/>
      <point x="55" y="39" type="curve" smooth="yes"/>
      <point x="46" y="38"/>
      <point x="38" y="41"/>
      <point x="30" y="37" type="curve"/>
      <point x="20" y="35"/>
      <point x="12" y="19"/>
      <point x="16" y="5" type="curve"/>
      <point x="18" y="-5"/>
      <point x="28" y="-1"/>
      <point x="35" y="-1" type="curve" smooth="yes"/>
      <point x="168" y="-1"/>
      <point x="348" y="0"/>
      <point x="522" y="-1" type="curve" smooth="yes"/>
      <point x="539" y="-1"/>
      <point x="563" y="-5"/>
      <point x="569" y="14" type="curve" smooth="yes"/>
      <point x="581" y="52"/>
      <point x="601" y="108"/>
    </contour>
  </outline>
</glyph>
<glyph name="M" format="2">
  <advance width="883"/>
  <unicode hex="004D"/>
  <outline>
    <contour>
      <point x="957" y="640" type="curve"/>
      <point x="956" y="643"/>
      <point x="948" y="647"/>
      <point x="942" y="646" type="curve"/>
      <point x="901" y="645"/>
      <point x="831" y="644"/>
      <point x="792" y="646" type="curve"/>
      <point x="785" y="646"/>
      <point x="770" y="645"/>
      <point x="766" y="636" type="curve"/>
      <point x="454" y="163" type="line" smooth="yes"/>
      <point x="445" y="150"/>
      <point x="428" y="132"/>
      <point x="426" y="146" type="curve" smooth="yes"/>
      <point x="357" y="634" type="line" smooth="yes"/>
      <point x="355" y="645"/>
      <point x="347" y="646"/>
      <point x="323" y="646" type="curve" smooth="yes"/>
      <point x="283" y="646"/>
      <point x="201" y="645"/>
      <point x="155" y="646" type="curve"/>
      <point x="146" y="648"/>
      <point x="142" y="635"/>
      <point x="141" y="629" type="curve"/>
      <point x="141" y="623"/>
      <point x="141" y="614"/>
      <point x="148" y="611" type="curve"/>
      <point x="161" y="608"/>
      <point x="164" y="608"/>
      <point x="178" y="610" type="curve"/>
      <point x="209" y="609"/>
      <point x="239" y="606"/>
      <point x="239" y="569" type="curve" smooth="yes"/>
      <point x="239" y="557"/>
      <point x="235" y="537"/>
      <point x="231" y="523" type="curve" smooth="yes"/>
      <point x="131" y="184" type="line" smooth="yes"/>
      <point x="113" y="124"/>
      <point x="97" y="84"/>
      <point x="84" y="67" type="curve" smooth="yes"/>
      <point x="68" y="47"/>
      <point x="44" y="36"/>
      <point x="8" y="31" type="curve" smooth="yes"/>
      <point x="-3" y="30"/>
      <point x="-11" y="-4"/>
      <point x="5" y="-3" type="curve" smooth="yes"/>
      <point x="65" y="1"/>
      <point x="169" y="-1"/>
      <point x="217" y="-3" type="curve"/>
      <point x="230" y="-5"/>
      <point x="235" y="29"/>
      <point x="222" y="30" type="curve" smooth="yes"/>
      <point x="173" y="33"/>
      <point x="153" y="51"/>
      <point x="153" y="90" type="curve" smooth="yes"/>
      <point x="153" y="104"/>
      <point x="156" y="118"/>
      <point x="160" y="130" type="curve" smooth="yes"/>
      <point x="272" y="515" type="line" smooth="yes"/>
      <point x="276" y="529"/>
      <point x="283" y="523"/>
      <point x="285" y="511" type="curve" smooth="yes"/>
      <point x="355" y="5" type="line"/>
      <point x="359" y="-9"/>
      <point x="400" y="-2"/>
      <point x="405" y="2" type="curve"/>
      <point x="734" y="519" type="line" smooth="yes"/>
      <point x="744" y="534"/>
      <point x="746" y="518"/>
      <point x="745" y="512" type="curve" smooth="yes"/>
      <point x="659" y="116" type="line" smooth="yes"/>
      <point x="647" y="60"/>
      <point x="632" y="42"/>
      <point x="596" y="35" type="curve" smooth="yes"/>
      <point x="583" y="33"/>
      <point x="570" y="33"/>
      <point x="557" y="33" type="curve" smooth="yes"/>
      <point x="551" y="33"/>
      <point x="545" y="20"/>
      <point x="544" y="14" type="curve" smooth="yes"/>
      <point x="543" y="8"/>
      <point x="543" y="-5"/>
      <point x="552" y="-3" type="curve"/>
      <point x="621" y="0"/>
      <point x="753" y="0"/>
      <point x="815" y="-3" type="curve"/>
      <point x="828" y="-5"/>
      <point x="838" y="32"/>
      <point x="822" y="34" type="curve"/>
      <point x="817" y="35"/>
      <point x="812" y="36"/>
      <point x="807" y="35" type="curve"/>
      <point x="741" y="35"/>
      <point x="744" y="64"/>
      <point x="755" y="114" type="curve" smooth="yes"/>
      <point x="843" y="529" type="line" smooth="yes"/>
      <point x="858" y="600"/>
      <point x="876" y="610"/>
      <point x="936" y="610" type="curve" smooth="yes"/>
      <point x="942" y="610" type="line"/>
      <point x="953" y="609"/>
      <point x="958" y="634"/>
    </contour>
  </outline>
</glyph>
<glyph name="N" format="2">
  <advance width="790"/>
  <unicode hex="004E"/>
  <outline>
    <contour>
      <point x="858" y="646" type="curve" smooth="yes"/>
      <point x="806" y="644"/>
      <point x="695" y="644"/>
      <point x="638" y="646" type="curve" smooth="yes"/>
      <point x="623" y="646"/>
      <point x="621" y="614"/>
      <point x="632" y="613" type="curve" smooth="yes"/>
      <point x="694" y="610"/>
      <point x="716" y="594"/>
      <point x="716" y="553" type="curve" smooth="yes"/>
      <point x="716" y="542"/>
      <point x="714" y="530"/>
      <point x="711" y="514" type="curve" smooth="yes"/>
      <point x="632" y="145" type="line" smooth="yes"/>
      <point x="629" y="130"/>
      <point x="619" y="137"/>
      <point x="614" y="144" type="curve" smooth="yes"/>
      <point x="283" y="636" type="line" smooth="yes"/>
      <point x="278" y="644"/>
      <point x="268" y="646"/>
      <point x="248" y="646" type="curve" smooth="yes"/>
      <point x="216" y="645"/>
      <point x="168" y="647"/>
      <point x="132" y="648" type="curve" smooth="yes"/>
      <point x="119" y="649"/>
      <point x="113" y="611"/>
      <point x="127" y="611" type="curve"/>
      <point x="158" y="607"/>
      <point x="191" y="611"/>
      <point x="212" y="583" type="curve"/>
      <point x="122" y="138" type="line" smooth="yes"/>
      <point x="106" y="60"/>
      <point x="84" y="40"/>
      <point x="22" y="31" type="curve"/>
      <point x="8" y="32"/>
      <point x="2" y="-4"/>
      <point x="18" y="-3" type="curve" smooth="yes"/>
      <point x="78" y="0"/>
      <point x="189" y="-1"/>
      <point x="242" y="-3" type="curve"/>
      <point x="256" y="-6"/>
      <point x="263" y="32"/>
      <point x="246" y="32" type="curve" smooth="yes"/>
      <point x="239" y="32" type="line"/>
      <point x="183" y="39"/>
      <point x="168" y="58"/>
      <point x="168" y="102" type="curve" smooth="yes"/>
      <point x="168" y="114"/>
      <point x="169" y="129"/>
      <point x="172" y="143" type="curve" smooth="yes"/>
      <point x="242" y="496" type="line" smooth="yes"/>
      <point x="246" y="516"/>
      <point x="257" y="516"/>
      <point x="259" y="513" type="curve" smooth="yes"/>
      <point x="605" y="-10" type="line"/>
      <point x="611" y="-16"/>
      <point x="640" y="-18"/>
      <point x="642" y="-8" type="curve" smooth="yes"/>
      <point x="752" y="512" type="line" smooth="yes"/>
      <point x="767" y="581"/>
      <point x="793" y="606"/>
      <point x="853" y="614" type="curve" smooth="yes"/>
      <point x="866" y="616"/>
      <point x="877" y="647"/>
    </contour>
  </outline>
</glyph>
<glyph name="O" format="2">
  <advance width="819"/>
  <unicode hex="004F"/>
  <outline>
    <contour>
      <point x="776" y="357" type="curve" smooth="yes"/>
      <point x="776" y="529"/>
      <point x="649" y="662"/>
      <point x="475" y="662" type="curve" smooth="yes"/>
      <point x="264" y="662"/>
      <point x="85" y="491"/>
      <point x="85" y="288" type="curve" smooth="yes"/>
      <point x="85" y="115"/>
      <point x="209" y="-18"/>
      <point x="383" y="-18" type="curve" smooth="yes"/>
      <point x="600" y="-18"/>
      <point x="776" y="150"/>
    </contour>
    <contour>
      <point x="676" y="388" type="curve" smooth="yes"/>
      <point x="676" y="179"/>
      <point x="546" y="19"/>
      <point x="384" y="21" type="curve" smooth="yes"/>
      <point x="258" y="22"/>
      <point x="185" y="113"/>
      <point x="185" y="262" type="curve" smooth="yes"/>
      <point x="185" y="437"/>
      <point x="286" y="622"/>
      <point x="476" y="623" type="curve" smooth="yes"/>
      <point x="598" y="624"/>
      <point x="676" y="528"/>
    </contour>
  </outline>
</glyph>
<glyph name="P" format="2">
  <advance width="564"/>
  <unicode hex="0050"/>
  <outline>
    <contour>
      <point x="589" y="465" type="curve" smooth="yes"/>
      <point x="589" y="523"/>
      <point x="565" y="571"/>
      <point x="519" y="604" type="curve" smooth="yes"/>
      <point x="473" y="637"/>
      <point x="428" y="646"/>
      <point x="332" y="646" type="curve" smooth="yes"/>
      <point x="278" y="646"/>
      <point x="169" y="645"/>
      <point x="111" y="647" type="curve" smooth="yes"/>
      <point x="97" y="647"/>
      <point x="88" y="606"/>
      <point x="106" y="611" type="curve"/>
      <point x="116" y="610" type="line"/>
      <point x="157" y="610"/>
      <point x="177" y="593"/>
      <point x="177" y="569" type="curve" smooth="yes"/>
      <point x="177" y="560"/>
      <point x="174" y="547"/>
      <point x="170" y="526" type="curve" smooth="yes"/>
      <point x="87" y="128" type="line" smooth="yes"/>
      <point x="71" y="50"/>
      <point x="51" y="33"/>
      <point x="-6" y="31" type="curve" smooth="yes"/>
      <point x="-19" y="30"/>
      <point x="-25" y="-3"/>
      <point x="-11" y="-3" type="curve" smooth="yes"/>
      <point x="72" y="0"/>
      <point x="171" y="-1"/>
      <point x="252" y="-3" type="curve"/>
      <point x="267" y="-5"/>
      <point x="276" y="31"/>
      <point x="258" y="31" type="curve" smooth="yes"/>
      <point x="244" y="31" type="line" smooth="yes"/>
      <point x="194" y="31"/>
      <point x="175" y="46"/>
      <point x="175" y="78" type="curve" smooth="yes"/>
      <point x="175" y="90"/>
      <point x="177" y="102"/>
      <point x="180" y="114" type="curve" smooth="yes"/>
      <point x="279" y="583" type="line" smooth="yes"/>
      <point x="284" y="605"/>
      <point x="294" y="607"/>
      <point x="301" y="607" type="curve" smooth="yes"/>
      <point x="342" y="607"/>
      <point x="379" y="610"/>
      <point x="418" y="597" type="curve" smooth="yes"/>
      <point x="461" y="583"/>
      <point x="488" y="538"/>
      <point x="488" y="479" type="curve" smooth="yes"/>
      <point x="488" y="435"/>
      <point x="475" y="392"/>
      <point x="451" y="357" type="curve" smooth="yes"/>
      <point x="411" y="298"/>
      <point x="338" y="271"/>
      <point x="267" y="281" type="curve" smooth="yes"/>
      <point x="249" y="283"/>
      <point x="248" y="257"/>
      <point x="261" y="251" type="curve"/>
      <point x="304" y="242"/>
      <point x="372" y="250"/>
      <point x="413" y="259" type="curve" smooth="yes"/>
      <point x="515" y="283"/>
      <point x="589" y="369"/>
    </contour>
  </outline>
</glyph>
<glyph name="Q" format="2">
  <advance width="798"/>
  <unicode hex="0051"/>
  <outline>
    <contour>
      <point x="772" y="357" type="curve" smooth="yes"/>
      <point x="772" y="531"/>
      <point x="641" y="662"/>
      <point x="453" y="662" type="curve" smooth="yes"/>
      <point x="236" y="662"/>
      <point x="61" y="489"/>
      <point x="61" y="287" type="curve" smooth="yes"/>
      <point x="61" y="145"/>
      <point x="163" y="18"/>
      <point x="303" y="-13" type="curve" smooth="yes"/>
      <point x="307" y="-14"/>
      <point x="328" y="-29"/>
      <point x="333" y="-32" type="curve" smooth="yes"/>
      <point x="421" y="-90"/>
      <point x="540" y="-189"/>
      <point x="650" y="-189" type="curve" smooth="yes"/>
      <point x="706" y="-189"/>
      <point x="738" y="-173"/>
      <point x="771" y="-145" type="curve" smooth="yes"/>
      <point x="781" y="-137"/>
      <point x="764" y="-107"/>
      <point x="751" y="-118" type="curve"/>
      <point x="723" y="-132"/>
      <point x="700" y="-136"/>
      <point x="658" y="-125" type="curve" smooth="yes"/>
      <point x="618" y="-115"/>
      <point x="523" y="-57"/>
      <point x="490" y="-33" type="curve" smooth="yes"/>
      <point x="475" y="-22"/>
      <point x="474" y="-11"/>
      <point x="483" y="-9" type="curve" smooth="yes"/>
      <point x="660" y="31"/>
      <point x="772" y="185"/>
    </contour>
    <contour>
      <point x="667" y="386" type="curve" smooth="yes"/>
      <point x="667" y="178"/>
      <point x="555" y="16"/>
      <point x="383" y="16" type="curve" smooth="yes"/>
      <point x="250" y="16"/>
      <point x="165" y="112"/>
      <point x="165" y="261" type="curve" smooth="yes"/>
      <point x="165" y="432"/>
      <point x="276" y="626"/>
      <point x="462" y="626" type="curve" smooth="yes"/>
      <point x="589" y="626"/>
      <point x="667" y="528"/>
    </contour>
  </outline>
</glyph>
<glyph name="R" format="2">
  <advance width="644"/>
  <unicode hex="0052"/>
  <outline>
    <contour>
      <point x="672" y="-4" type="curve"/>
      <point x="680" y="-1"/>
      <point x="684" y="22"/>
      <point x="670" y="22" type="curve" smooth="yes"/>
      <point x="640" y="23"/>
      <point x="612" y="33"/>
      <point x="589" y="52" type="curve" smooth="yes"/>
      <point x="557" y="77"/>
      <point x="533" y="101"/>
      <point x="508" y="151" type="curve" smooth="yes"/>
      <point x="492" y="184"/>
      <point x="477" y="217"/>
      <point x="462" y="250" type="curve" smooth="yes"/>
      <point x="457" y="261"/>
      <point x="451" y="271"/>
      <point x="448" y="278" type="curve"/>
      <point x="445" y="283"/>
      <point x="438" y="292"/>
      <point x="446" y="294" type="curve" smooth="yes"/>
      <point x="556" y="318"/>
      <point x="627" y="390"/>
      <point x="627" y="484" type="curve" smooth="yes"/>
      <point x="627" y="583"/>
      <point x="547" y="645"/>
      <point x="430" y="646" type="curve" smooth="yes"/>
      <point x="364" y="646"/>
      <point x="231" y="646"/>
      <point x="165" y="648" type="curve" smooth="yes"/>
      <point x="147" y="648"/>
      <point x="141" y="611"/>
      <point x="156" y="611" type="curve" smooth="yes"/>
      <point x="175" y="611" type="line" smooth="yes"/>
      <point x="216" y="611"/>
      <point x="236" y="594"/>
      <point x="236" y="568" type="curve" smooth="yes"/>
      <point x="236" y="561"/>
      <point x="234" y="553"/>
      <point x="230" y="532" type="curve" smooth="yes"/>
      <point x="142" y="116" type="line" smooth="yes"/>
      <point x="127" y="46"/>
      <point x="108" y="43"/>
      <point x="43" y="34" type="curve" smooth="yes"/>
      <point x="36" y="33" type="line"/>
      <point x="21" y="35"/>
      <point x="11" y="-4"/>
      <point x="30" y="-4" type="curve" smooth="yes"/>
      <point x="100" y="-2"/>
      <point x="237" y="-4"/>
      <point x="305" y="-4" type="curve" smooth="yes"/>
      <point x="314" y="-4" type="line" smooth="yes"/>
      <point x="320" y="-4"/>
      <point x="323" y="6"/>
      <point x="324" y="10" type="curve" smooth="yes"/>
      <point x="328" y="25"/>
      <point x="323" y="30"/>
      <point x="319" y="31" type="curve"/>
      <point x="303" y="32" type="line" smooth="yes"/>
      <point x="253" y="35"/>
      <point x="232" y="46"/>
      <point x="232" y="78" type="curve" smooth="yes"/>
      <point x="232" y="90"/>
      <point x="236" y="102"/>
      <point x="239" y="114" type="curve" smooth="yes"/>
      <point x="270" y="263" type="line"/>
      <point x="271" y="270"/>
      <point x="280" y="274"/>
      <point x="286" y="274" type="curve" smooth="yes"/>
      <point x="306" y="275"/>
      <point x="319" y="276"/>
      <point x="337" y="277" type="curve"/>
      <point x="347" y="277"/>
      <point x="349" y="269"/>
      <point x="350" y="267" type="curve" smooth="yes"/>
      <point x="359" y="249"/>
      <point x="364" y="238"/>
      <point x="382" y="195" type="curve" smooth="yes"/>
      <point x="397" y="159"/>
      <point x="408" y="120"/>
      <point x="429" y="87" type="curve" smooth="yes"/>
      <point x="483" y="3"/>
      <point x="542" y="-12"/>
      <point x="636" y="-12" type="curve" smooth="yes"/>
      <point x="648" y="-12"/>
      <point x="653" y="-12"/>
      <point x="657" y="-10" type="curve"/>
      <point x="660" y="-9"/>
      <point x="663" y="-8"/>
    </contour>
    <contour>
      <point x="490" y="579" type="curve" smooth="yes"/>
      <point x="562" y="521"/>
      <point x="518" y="391"/>
      <point x="445" y="349" type="curve" smooth="yes"/>
      <point x="381" y="312"/>
      <point x="364" y="312"/>
      <point x="290" y="312" type="curve" smooth="yes"/>
      <point x="282" y="312"/>
      <point x="284" y="328"/>
      <point x="287" y="341" type="curve" smooth="yes"/>
      <point x="340" y="593" type="line" smooth="yes"/>
      <point x="341" y="599"/>
      <point x="350" y="608"/>
      <point x="362" y="608" type="curve" smooth="yes"/>
      <point x="386" y="608"/>
      <point x="397" y="608"/>
      <point x="422" y="605" type="curve" smooth="yes"/>
      <point x="447" y="602"/>
      <point x="471" y="594"/>
    </contour>
  </outline>
</glyph>
<glyph name="S" format="2">
  <advance width="517"/>
  <unicode hex="0053"/>
  <outline>
    <contour>
      <point x="510" y="641" type="curve" smooth="yes"/>
      <point x="511" y="653"/>
      <point x="485" y="657"/>
      <point x="479" y="645" type="curve"/>
      <point x="471" y="637"/>
      <point x="461" y="634"/>
      <point x="450" y="634" type="curve" smooth="yes"/>
      <point x="430" y="634"/>
      <point x="412" y="639"/>
      <point x="393" y="643" type="curve" smooth="yes"/>
      <point x="373" y="648"/>
      <point x="351" y="653"/>
      <point x="327" y="653" type="curve" smooth="yes"/>
      <point x="210" y="653"/>
      <point x="126" y="577"/>
      <point x="126" y="482" type="curve" smooth="yes"/>
      <point x="126" y="418"/>
      <point x="156" y="365"/>
      <point x="262" y="290" type="curve" smooth="yes"/>
      <point x="315" y="252"/>
      <point x="389" y="200"/>
      <point x="389" y="133" type="curve" smooth="yes"/>
      <point x="389" y="66"/>
      <point x="335" y="19"/>
      <point x="240" y="19" type="curve" smooth="yes"/>
      <point x="131" y="19"/>
      <point x="75" y="77"/>
      <point x="75" y="174" type="curve" smooth="yes"/>
      <point x="75" y="180"/>
      <point x="76" y="184"/>
      <point x="76" y="196" type="curve"/>
      <point x="78" y="209"/>
      <point x="50" y="211"/>
      <point x="46" y="198" type="curve" smooth="yes"/>
      <point x="32" y="156"/>
      <point x="18" y="102"/>
      <point x="13" y="66" type="curve" smooth="yes"/>
      <point x="12" y="60"/>
      <point x="15" y="48"/>
      <point x="17" y="46" type="curve"/>
      <point x="87" y="7"/>
      <point x="165" y="-18"/>
      <point x="237" y="-18" type="curve" smooth="yes"/>
      <point x="380" y="-18"/>
      <point x="472" y="59"/>
      <point x="472" y="170" type="curve" smooth="yes"/>
      <point x="472" y="217"/>
      <point x="447" y="266"/>
      <point x="414" y="299" type="curve" smooth="yes"/>
      <point x="392" y="321"/>
      <point x="356" y="350"/>
      <point x="286" y="401" type="curve" smooth="yes"/>
      <point x="216" y="453"/>
      <point x="204" y="482"/>
      <point x="204" y="520" type="curve" smooth="yes"/>
      <point x="204" y="576"/>
      <point x="247" y="616"/>
      <point x="327" y="616" type="curve" smooth="yes"/>
      <point x="415" y="616"/>
      <point x="456" y="567"/>
      <point x="456" y="474" type="curve" smooth="yes"/>
      <point x="456" y="468"/>
      <point x="465" y="465"/>
      <point x="472" y="465" type="curve" smooth="yes"/>
      <point x="477" y="465"/>
      <point x="486" y="467"/>
      <point x="488" y="474" type="curve"/>
      <point x="496" y="517"/>
      <point x="505" y="590"/>
    </contour>
  </outline>
</glyph>
<glyph name="T" format="2">
  <advance width="664"/>
  <unicode hex="0054"/>
  <outline>
    <contour>
      <point x="732" y="669" type="curve"/>
      <point x="733" y="674"/>
      <point x="725" y="678"/>
      <point x="718" y="678" type="curve" smooth="yes"/>
      <point x="714" y="678"/>
      <point x="706" y="677"/>
      <point x="703" y="673" type="curve"/>
      <point x="679" y="650"/>
      <point x="667" y="646"/>
      <point x="594" y="646" type="curve"/>
      <point x="594" y="646"/>
      <point x="478" y="648"/>
      <point x="407" y="646" type="curve" smooth="yes"/>
      <point x="336" y="644"/>
      <point x="204" y="646"/>
      <point x="204" y="646" type="curve"/>
      <point x="166" y="646"/>
      <point x="155" y="651"/>
      <point x="138" y="672" type="curve"/>
      <point x="138" y="677"/>
      <point x="130" y="679"/>
      <point x="125" y="679" type="curve" smooth="yes"/>
      <point x="120" y="679"/>
      <point x="111" y="677"/>
      <point x="110" y="671" type="curve" smooth="yes"/>
      <point x="97" y="596"/>
      <point x="80" y="543"/>
      <point x="75" y="506" type="curve"/>
      <point x="67" y="494"/>
      <point x="98" y="487"/>
      <point x="103" y="499" type="curve" smooth="yes"/>
      <point x="123" y="544"/>
      <point x="134" y="564"/>
      <point x="157" y="583" type="curve" smooth="yes"/>
      <point x="180" y="601"/>
      <point x="208" y="605"/>
      <point x="258" y="605" type="curve" smooth="yes"/>
      <point x="342" y="605" type="line" smooth="yes"/>
      <point x="345" y="605"/>
      <point x="362" y="605"/>
      <point x="357" y="581" type="curve" smooth="yes"/>
      <point x="256" y="116" type="line" smooth="yes"/>
      <point x="242" y="53"/>
      <point x="229" y="39"/>
      <point x="179" y="35" type="curve"/>
      <point x="173" y="35"/>
      <point x="168" y="37"/>
      <point x="161" y="37" type="curve" smooth="yes"/>
      <point x="151" y="37"/>
      <point x="142" y="32"/>
      <point x="139" y="23" type="curve"/>
      <point x="138" y="18"/>
      <point x="136" y="13"/>
      <point x="136" y="8" type="curve" smooth="yes"/>
      <point x="136" y="-3"/>
      <point x="148" y="-4"/>
      <point x="157" y="-4" type="curve" smooth="yes"/>
      <point x="224" y="-3"/>
      <point x="346" y="-1"/>
      <point x="431" y="-5" type="curve" smooth="yes"/>
      <point x="442" y="-5"/>
      <point x="451" y="8"/>
      <point x="451" y="20" type="curve"/>
      <point x="452" y="27"/>
      <point x="447" y="36"/>
      <point x="442" y="37" type="curve"/>
      <point x="428" y="41"/>
      <point x="414" y="37"/>
      <point x="403" y="37" type="curve"/>
      <point x="355" y="42"/>
      <point x="340" y="53"/>
      <point x="353" y="114" type="curve" smooth="yes"/>
      <point x="453" y="585" type="line" smooth="yes"/>
      <point x="455" y="596"/>
      <point x="463" y="604"/>
      <point x="471" y="605" type="curve"/>
      <point x="593" y="605" type="line" smooth="yes"/>
      <point x="632" y="605"/>
      <point x="649" y="595"/>
      <point x="657" y="578" type="curve" smooth="yes"/>
      <point x="661" y="569"/>
      <point x="663" y="558"/>
      <point x="665" y="545" type="curve"/>
      <point x="666" y="532"/>
      <point x="665" y="518"/>
      <point x="666" y="502" type="curve"/>
      <point x="666" y="488"/>
      <point x="695" y="494"/>
      <point x="697" y="501" type="curve"/>
      <point x="701" y="521"/>
      <point x="711" y="550"/>
      <point x="715" y="582" type="curve" smooth="yes"/>
      <point x="719" y="614"/>
      <point x="729" y="644"/>
    </contour>
  </outline>
</glyph>
<glyph name="V" format="2">
  <advance width="607"/>
  <unicode hex="0056"/>
  <outline>
    <contour>
      <point x="736" y="648" type="curve" smooth="yes"/>
      <point x="643" y="645"/>
      <point x="604" y="647"/>
      <point x="537" y="649" type="curve" smooth="yes"/>
      <point x="521" y="649"/>
      <point x="520" y="612"/>
      <point x="531" y="612" type="curve" smooth="yes"/>
      <point x="543" y="612"/>
      <point x="556" y="612"/>
      <point x="568" y="611" type="curve" smooth="yes"/>
      <point x="584" y="609"/>
      <point x="593" y="603"/>
      <point x="593" y="584" type="curve" smooth="yes"/>
      <point x="593" y="569"/>
      <point x="586" y="554"/>
      <point x="554" y="517" type="curve" smooth="yes"/>
      <point x="219" y="122" type="line"/>
      <point x="215" y="116"/>
      <point x="202" y="113"/>
      <point x="202" y="121" type="curve"/>
      <point x="227" y="530" type="line" smooth="yes"/>
      <point x="231" y="590"/>
      <point x="245" y="615"/>
      <point x="303" y="610" type="curve"/>
      <point x="308" y="611"/>
      <point x="316" y="610"/>
      <point x="320" y="611" type="curve"/>
      <point x="338" y="612"/>
      <point x="341" y="648"/>
      <point x="326" y="647" type="curve" smooth="yes"/>
      <point x="261" y="644"/>
      <point x="178" y="644"/>
      <point x="64" y="647" type="curve" smooth="yes"/>
      <point x="47" y="647"/>
      <point x="46" y="609"/>
      <point x="62" y="611" type="curve"/>
      <point x="67" y="611" type="line" smooth="yes"/>
      <point x="110" y="611"/>
      <point x="132" y="597"/>
      <point x="132" y="548" type="curve" smooth="yes"/>
      <point x="132" y="531" type="line"/>
      <point x="105" y="-8" type="line"/>
      <point x="102" y="-29"/>
      <point x="147" y="-23"/>
      <point x="154" y="-15" type="curve" smooth="yes"/>
      <point x="617" y="524" type="line" smooth="yes"/>
      <point x="660" y="575"/>
      <point x="688" y="602"/>
      <point x="730" y="615" type="curve"/>
      <point x="750" y="617"/>
      <point x="752" y="648"/>
    </contour>
  </outline>
</glyph>
<glyph name="W" format="2">
  <advance width="897"/>
  <unicode hex="0057"/>
  <outline>
    <contour>
      <point x="1010" y="642" type="curve"/>
      <point x="1008" y="645"/>
      <point x="1002" y="647"/>
      <point x="998" y="647" type="curve" smooth="yes"/>
      <point x="930" y="646"/>
      <point x="860" y="646"/>
      <point x="804" y="647" type="curve"/>
      <point x="789" y="649"/>
      <point x="782" y="611"/>
      <point x="797" y="611" type="curve" smooth="yes"/>
      <point x="804" y="611"/>
      <point x="814" y="612"/>
      <point x="821" y="612" type="curve" smooth="yes"/>
      <point x="844" y="611"/>
      <point x="863" y="605"/>
      <point x="863" y="577" type="curve" smooth="yes"/>
      <point x="863" y="563"/>
      <point x="854" y="545"/>
      <point x="836" y="520" type="curve" smooth="yes"/>
      <point x="581" y="162" type="line" smooth="yes"/>
      <point x="576" y="155"/>
      <point x="554" y="140"/>
      <point x="555" y="149" type="curve" smooth="yes"/>
      <point x="582" y="535" type="line" smooth="yes"/>
      <point x="587" y="601"/>
      <point x="587" y="604"/>
      <point x="660" y="612" type="curve"/>
      <point x="671" y="612"/>
      <point x="681" y="647"/>
      <point x="664" y="647" type="curve" smooth="yes"/>
      <point x="589" y="646"/>
      <point x="489" y="646"/>
      <point x="416" y="647" type="curve" smooth="yes"/>
      <point x="403" y="647"/>
      <point x="398" y="611"/>
      <point x="414" y="613" type="curve"/>
      <point x="476" y="611"/>
      <point x="485" y="603"/>
      <point x="485" y="560" type="curve" smooth="yes"/>
      <point x="485" y="525" type="line"/>
      <point x="201" y="163" type="line" smooth="yes"/>
      <point x="191" y="150"/>
      <point x="179" y="151"/>
      <point x="180" y="159" type="curve" smooth="yes"/>
      <point x="218" y="523" type="line" smooth="yes"/>
      <point x="226" y="595"/>
      <point x="233" y="605"/>
      <point x="298" y="613" type="curve"/>
      <point x="309" y="613"/>
      <point x="317" y="648"/>
      <point x="300" y="647" type="curve" smooth="yes"/>
      <point x="235" y="644"/>
      <point x="118" y="645"/>
      <point x="62" y="647" type="curve" smooth="yes"/>
      <point x="54" y="647"/>
      <point x="52" y="637"/>
      <point x="50" y="632" type="curve"/>
      <point x="48" y="621"/>
      <point x="52" y="613"/>
      <point x="61" y="612" type="curve"/>
      <point x="70" y="610"/>
      <point x="79" y="611"/>
      <point x="88" y="611" type="curve"/>
      <point x="107" y="610"/>
      <point x="126" y="606"/>
      <point x="126" y="558" type="curve" smooth="yes"/>
      <point x="126" y="552"/>
      <point x="126" y="546"/>
      <point x="125" y="540" type="curve"/>
      <point x="79" y="-7" type="line" smooth="yes"/>
      <point x="78" y="-19"/>
      <point x="120" y="-21"/>
      <point x="128" y="-11" type="curve"/>
      <point x="128" y="-11"/>
      <point x="447" y="406"/>
      <point x="460" y="423" type="curve" smooth="yes"/>
      <point x="468" y="433"/>
      <point x="484" y="440"/>
      <point x="483" y="427" type="curve" smooth="yes"/>
      <point x="452" y="-6" type="line"/>
      <point x="452" y="-13"/>
      <point x="465" y="-16"/>
      <point x="477" y="-16" type="curve" smooth="yes"/>
      <point x="488" y="-16"/>
      <point x="507" y="-14"/>
      <point x="510" y="-9" type="curve"/>
      <point x="896" y="531" type="line" smooth="yes"/>
      <point x="936" y="587"/>
      <point x="962" y="606"/>
      <point x="994" y="614" type="curve"/>
      <point x="997" y="614"/>
      <point x="1003" y="616"/>
      <point x="1006" y="619" type="curve"/>
      <point x="1010" y="625"/>
      <point x="1012" y="636"/>
    </contour>
  </outline>
</glyph>
<glyph name="X" format="2">
  <advance width="704"/>
  <unicode hex="0058"/>
  <outline>
    <contour>
      <point x="769" y="647" type="curve"/>
      <point x="705" y="644"/>
      <point x="605" y="645"/>
      <point x="531" y="647" type="curve"/>
      <point x="517" y="650"/>
      <point x="511" y="613"/>
      <point x="528" y="615" type="curve"/>
      <point x="585" y="612"/>
      <point x="596" y="604"/>
      <point x="596" y="588" type="curve" smooth="yes"/>
      <point x="596" y="577"/>
      <point x="590" y="565"/>
      <point x="572" y="548" type="curve" smooth="yes"/>
      <point x="510" y="489"/>
      <point x="464" y="436"/>
      <point x="440" y="410" type="curve"/>
      <point x="434" y="406"/>
      <point x="424" y="411"/>
      <point x="422" y="416" type="curve"/>
      <point x="351" y="556" type="line" smooth="yes"/>
      <point x="346" y="566"/>
      <point x="338" y="578"/>
      <point x="338" y="590" type="curve" smooth="yes"/>
      <point x="338" y="607"/>
      <point x="349" y="612"/>
      <point x="408" y="613" type="curve"/>
      <point x="418" y="612"/>
      <point x="425" y="646"/>
      <point x="409" y="646" type="curve" smooth="yes"/>
      <point x="339" y="644"/>
      <point x="200" y="644"/>
      <point x="133" y="646" type="curve" smooth="yes"/>
      <point x="121" y="646"/>
      <point x="116" y="612"/>
      <point x="127" y="612" type="curve" smooth="yes"/>
      <point x="195" y="610"/>
      <point x="222" y="595"/>
      <point x="244" y="554" type="curve" smooth="yes"/>
      <point x="359" y="341" type="line" smooth="yes"/>
      <point x="363" y="334"/>
      <point x="357" y="325"/>
      <point x="350" y="318" type="curve" smooth="yes"/>
      <point x="129" y="94" type="line" smooth="yes"/>
      <point x="98" y="63"/>
      <point x="85" y="43"/>
      <point x="39" y="35" type="curve" smooth="yes"/>
      <point x="29" y="33"/>
      <point x="16" y="33"/>
      <point x="0" y="31" type="curve" smooth="yes"/>
      <point x="-14" y="29"/>
      <point x="-18" y="-5"/>
      <point x="-6" y="-4" type="curve" smooth="yes"/>
      <point x="52" y="-1"/>
      <point x="170" y="-1"/>
      <point x="230" y="-4" type="curve" smooth="yes"/>
      <point x="235" y="-4"/>
      <point x="240" y="5"/>
      <point x="242" y="10" type="curve"/>
      <point x="244" y="16"/>
      <point x="243" y="27"/>
      <point x="237" y="28" type="curve"/>
      <point x="163" y="33"/>
      <point x="139" y="52"/>
      <point x="201" y="114" type="curve" smooth="yes"/>
      <point x="364" y="279" type="line" smooth="yes"/>
      <point x="372" y="287"/>
      <point x="385" y="290"/>
      <point x="389" y="287" type="curve"/>
      <point x="425" y="224"/>
      <point x="472" y="133"/>
      <point x="498" y="81" type="curve" smooth="yes"/>
      <point x="522" y="34"/>
      <point x="497" y="31"/>
      <point x="441" y="28" type="curve"/>
      <point x="436" y="29"/>
      <point x="432" y="19"/>
      <point x="431" y="13" type="curve" smooth="yes"/>
      <point x="430" y="7"/>
      <point x="430" y="-4"/>
      <point x="439" y="-4" type="curve"/>
      <point x="504" y="0"/>
      <point x="632" y="-1"/>
      <point x="692" y="-4" type="curve" smooth="yes"/>
      <point x="702" y="-5"/>
      <point x="712" y="26"/>
      <point x="697" y="28" type="curve" smooth="yes"/>
      <point x="637" y="38"/>
      <point x="621" y="43"/>
      <point x="586" y="109" type="curve" smooth="yes"/>
      <point x="547" y="185"/>
      <point x="500" y="276"/>
      <point x="463" y="340" type="curve" smooth="yes"/>
      <point x="453" y="358"/>
      <point x="455" y="371"/>
      <point x="460" y="377" type="curve"/>
      <point x="613" y="536" type="line" smooth="yes"/>
      <point x="665" y="590"/>
      <point x="708" y="609"/>
      <point x="767" y="617" type="curve"/>
      <point x="780" y="617"/>
      <point x="791" y="652"/>
    </contour>
  </outline>
</glyph>
<glyph name="Y" format="2">
  <advance width="653"/>
  <unicode hex="0059"/>
  <outline>
    <contour>
      <point x="764" y="633" type="curve"/>
      <point x="766" y="639"/>
      <point x="761" y="647"/>
      <point x="753" y="646" type="curve"/>
      <point x="707" y="645"/>
      <point x="639" y="645"/>
      <point x="589" y="646" type="curve"/>
      <point x="583" y="648"/>
      <point x="576" y="648"/>
      <point x="569" y="647" type="curve"/>
      <point x="557" y="649"/>
      <point x="553" y="617"/>
      <point x="565" y="615" type="curve"/>
      <point x="608" y="613"/>
      <point x="623" y="603"/>
      <point x="623" y="586" type="curve" smooth="yes"/>
      <point x="623" y="574"/>
      <point x="616" y="564"/>
      <point x="586" y="529" type="curve" smooth="yes"/>
      <point x="412" y="328" type="line" smooth="yes"/>
      <point x="407" y="322"/>
      <point x="393" y="316"/>
      <point x="392" y="320" type="curve"/>
      <point x="293" y="547" type="line" smooth="yes"/>
      <point x="266" y="609"/>
      <point x="275" y="610"/>
      <point x="330" y="615" type="curve"/>
      <point x="337" y="614"/>
      <point x="340" y="621"/>
      <point x="342" y="629" type="curve" smooth="yes"/>
      <point x="345" y="641"/>
      <point x="340" y="646"/>
      <point x="334" y="647" type="curve"/>
      <point x="275" y="642"/>
      <point x="168" y="644"/>
      <point x="116" y="647" type="curve"/>
      <point x="110" y="647"/>
      <point x="105" y="637"/>
      <point x="104" y="632" type="curve" smooth="yes"/>
      <point x="101" y="614"/>
      <point x="111" y="615"/>
      <point x="123" y="614" type="curve" smooth="yes"/>
      <point x="153" y="611"/>
      <point x="167" y="599"/>
      <point x="191" y="545" type="curve" smooth="yes"/>
      <point x="314" y="264" type="line"/>
      <point x="283" y="116" type="line" smooth="yes"/>
      <point x="275" y="76"/>
      <point x="265" y="59"/>
      <point x="250" y="49" type="curve"/>
      <point x="243" y="45"/>
      <point x="234" y="42"/>
      <point x="224" y="40" type="curve"/>
      <point x="213" y="39"/>
      <point x="200" y="38"/>
      <point x="186" y="37" type="curve" smooth="yes"/>
      <point x="171" y="36" type="line" smooth="yes"/>
      <point x="157" y="35"/>
      <point x="153" y="-1"/>
      <point x="167" y="-3" type="curve"/>
      <point x="249" y="1"/>
      <point x="394" y="0"/>
      <point x="464" y="-3" type="curve" smooth="yes"/>
      <point x="475" y="-3"/>
      <point x="481" y="28"/>
      <point x="472" y="34" type="curve" smooth="yes"/>
      <point x="465" y="39"/>
      <point x="450" y="36"/>
      <point x="442" y="36" type="curve" smooth="yes"/>
      <point x="400" y="35"/>
      <point x="383" y="45"/>
      <point x="377" y="59" type="curve" smooth="yes"/>
      <point x="370" y="75"/>
      <point x="377" y="97"/>
      <point x="380" y="114" type="curve" smooth="yes"/>
      <point x="410" y="261" type="line"/>
      <point x="660" y="549" type="line" smooth="yes"/>
      <point x="701" y="596"/>
      <point x="713" y="602"/>
      <point x="755" y="618" type="curve"/>
      <point x="755" y="619"/>
      <point x="761" y="622"/>
    </contour>
  </outline>
</glyph>
<glyph name="Z" format="2">
  <advance width="687"/>
  <unicode hex="005A"/>
  <outline>
    <contour>
      <point x="723" y="616" type="curve"/>
      <point x="728" y="633"/>
      <point x="729" y="649"/>
      <point x="704" y="646" type="curve"/>
      <point x="577" y="645"/>
      <point x="352" y="644"/>
      <point x="228" y="646" type="curve" smooth="yes"/>
      <point x="224" y="646"/>
      <point x="209" y="643"/>
      <point x="207" y="637" type="curve" smooth="yes"/>
      <point x="193" y="595"/>
      <point x="174" y="513"/>
      <point x="167" y="471" type="curve" smooth="yes"/>
      <point x="165" y="458"/>
      <point x="199" y="459"/>
      <point x="201" y="469" type="curve"/>
      <point x="239" y="568"/>
      <point x="290" y="606"/>
      <point x="389" y="606" type="curve" smooth="yes"/>
      <point x="557" y="606" type="line" smooth="yes"/>
      <point x="563" y="606"/>
      <point x="580" y="601"/>
      <point x="573" y="594" type="curve" smooth="yes"/>
      <point x="405" y="432"/>
      <point x="162" y="186"/>
      <point x="23" y="43" type="curve" smooth="yes"/>
      <point x="16" y="36"/>
      <point x="6" y="24"/>
      <point x="6" y="13" type="curve" smooth="yes"/>
      <point x="6" y="6"/>
      <point x="7" y="-1"/>
      <point x="11" y="-2" type="curve"/>
      <point x="585" y="-2" type="line" smooth="yes"/>
      <point x="594" y="-2"/>
      <point x="611" y="4"/>
      <point x="614" y="10" type="curve"/>
      <point x="631" y="64"/>
      <point x="649" y="118"/>
      <point x="660" y="175" type="curve"/>
      <point x="662" y="182"/>
      <point x="661" y="188"/>
      <point x="657" y="189" type="curve"/>
      <point x="652" y="191"/>
      <point x="637" y="189"/>
      <point x="632" y="186" type="curve"/>
      <point x="603" y="136"/>
      <point x="581" y="106"/>
      <point x="553" y="81" type="curve" smooth="yes"/>
      <point x="519" y="50"/>
      <point x="502" y="41"/>
      <point x="436" y="41" type="curve" smooth="yes"/>
      <point x="186" y="42" type="line" smooth="yes"/>
      <point x="177" y="42"/>
      <point x="154" y="46"/>
      <point x="164" y="56" type="curve" smooth="yes"/>
      <point x="281" y="179"/>
      <point x="555" y="459"/>
    </contour>
  </outline>
</glyph>
<glyph name="bracketleft" format="2">
  <advance width="307"/>
  <unicode hex="005B"/>
  <outline>
    <contour>
      <point x="433" y="668" type="curve"/>
      <point x="433" y="676"/>
      <point x="432" y="680"/>
      <point x="421" y="681" type="curve"/>
      <point x="257" y="681" type="line"/>
      <point x="243" y="677"/>
      <point x="235" y="669"/>
      <point x="232" y="661" type="curve"/>
      <point x="62" y="-209" type="line"/>
      <point x="62" y="-214"/>
      <point x="60" y="-228"/>
      <point x="93" y="-228" type="curve" smooth="yes"/>
      <point x="238" y="-228" type="line" smooth="yes"/>
      <point x="250" y="-228"/>
      <point x="256" y="-223"/>
      <point x="258" y="-218" type="curve"/>
      <point x="260" y="-208" type="line"/>
      <point x="258" y="-203"/>
      <point x="255" y="-200"/>
      <point x="243" y="-200" type="curve"/>
      <point x="230" y="-201"/>
      <point x="201" y="-200"/>
      <point x="187" y="-200" type="curve" smooth="yes"/>
      <point x="148" y="-199"/>
      <point x="136" y="-200"/>
      <point x="143" y="-165" type="curve" smooth="yes"/>
      <point x="298" y="618" type="line" smooth="yes"/>
      <point x="303" y="645"/>
      <point x="310" y="652"/>
      <point x="334" y="652" type="curve" smooth="yes"/>
      <point x="411" y="652" type="line" smooth="yes"/>
      <point x="424" y="652"/>
      <point x="428" y="655"/>
    </contour>
  </outline>
</glyph>
<glyph name="backslash" format="2">
  <advance width="223"/>
  <unicode hex="005C"/>
  <outline>
    <contour>
      <point x="226" y="22" type="curve" smooth="yes"/>
      <point x="151" y="625" type="line"/>
      <point x="143" y="644"/>
      <point x="148" y="657"/>
      <point x="121" y="662" type="curve"/>
      <point x="99" y="662" type="line" smooth="yes"/>
      <point x="85" y="662"/>
      <point x="78" y="642"/>
      <point x="78" y="630" type="curve"/>
      <point x="157" y="4" type="line" smooth="yes"/>
      <point x="160" y="-17"/>
      <point x="180" y="-16"/>
      <point x="182" y="-16" type="curve" smooth="yes"/>
      <point x="211" y="-16" type="line"/>
      <point x="228" y="-12"/>
      <point x="229" y="-1"/>
    </contour>
  </outline>
</glyph>
<glyph name="bracketright" format="2">
  <advance width="307"/>
  <unicode hex="005D"/>
  <outline>
    <contour>
      <point x="330" y="655" type="line"/>
      <point x="330" y="655"/>
      <point x="336" y="682"/>
      <point x="308" y="682" type="curve" smooth="yes"/>
      <point x="152" y="681" type="line" smooth="yes"/>
      <point x="140" y="681"/>
      <point x="131" y="673"/>
      <point x="135" y="669" type="curve"/>
      <point x="130" y="664"/>
      <point x="127" y="653"/>
      <point x="155" y="653" type="curve" smooth="yes"/>
      <point x="206" y="653" type="line" smooth="yes"/>
      <point x="242" y="653"/>
      <point x="257" y="654"/>
      <point x="250" y="619" type="curve" smooth="yes"/>
      <point x="96" y="-164" type="line" smooth="yes"/>
      <point x="90" y="-193"/>
      <point x="83" y="-198"/>
      <point x="59" y="-198" type="curve" smooth="yes"/>
      <point x="-19" y="-198" type="line" smooth="yes"/>
      <point x="-23" y="-198"/>
      <point x="-36" y="-197"/>
      <point x="-39" y="-213" type="curve"/>
      <point x="-39" y="-217" type="line"/>
      <point x="-43" y="-227"/>
      <point x="-28" y="-228"/>
      <point x="-21" y="-228" type="curve" smooth="yes"/>
      <point x="138" y="-227" type="line" smooth="yes"/>
      <point x="156" y="-227"/>
      <point x="160" y="-208"/>
      <point x="160" y="-208" type="curve"/>
    </contour>
  </outline>
</glyph>
<glyph name="asciicircum" format="2">
  <advance width="434"/>
  <unicode hex="005E"/>
  <outline>
    <contour>
      <point x="488" y="360" type="curve" smooth="yes"/>
      <point x="298" y="685" type="line" smooth="yes"/>
      <point x="289" y="700"/>
      <point x="275" y="709"/>
      <point x="262" y="688" type="curve" smooth="yes"/>
      <point x="211" y="608"/>
      <point x="129" y="470"/>
      <point x="65" y="358" type="curve" smooth="yes"/>
      <point x="57" y="343"/>
      <point x="62" y="333"/>
      <point x="75" y="333" type="curve"/>
      <point x="82" y="334"/>
      <point x="83" y="331"/>
      <point x="90" y="331" type="curve" smooth="yes"/>
      <point x="108" y="331"/>
      <point x="109" y="331"/>
      <point x="117" y="345" type="curve" smooth="yes"/>
      <point x="151" y="405"/>
      <point x="219" y="528"/>
      <point x="268" y="601" type="curve" smooth="yes"/>
      <point x="278" y="617"/>
      <point x="284" y="606"/>
      <point x="288" y="601" type="curve"/>
      <point x="437" y="348" type="line" smooth="yes"/>
      <point x="447" y="331"/>
      <point x="451" y="331"/>
      <point x="464" y="332" type="curve"/>
      <point x="482" y="335" type="line"/>
      <point x="497" y="336"/>
      <point x="495" y="348"/>
    </contour>
  </outline>
</glyph>
<glyph name="underscore" format="2">
  <advance width="509"/>
  <unicode hex="005F"/>
  <outline>
    <contour>
      <point x="518" y="-209" type="curve" smooth="yes"/>
      <point x="518" y="-191" type="line" smooth="yes"/>
      <point x="518" y="-183"/>
      <point x="511" y="-180"/>
      <point x="493" y="-180" type="curve" smooth="yes"/>
      <point x="372" y="-181"/>
      <point x="137" y="-181"/>
      <point x="20" y="-180" type="curve" smooth="yes"/>
      <point x="7" y="-180"/>
      <point x="-10" y="-178"/>
      <point x="-10" y="-190" type="curve" smooth="yes"/>
      <point x="-10" y="-205" type="line" smooth="yes"/>
      <point x="-10" y="-217"/>
      <point x="-12" y="-226"/>
      <point x="1" y="-226" type="curve" smooth="yes"/>
      <point x="486" y="-226" type="line" smooth="yes"/>
      <point x="500" y="-226"/>
      <point x="518" y="-226"/>
    </contour>
  </outline>
</glyph>
<glyph name="grave" format="2">
  <advance width="339"/>
  <unicode hex="0060"/>
  <outline>
    <contour>
      <point x="313" y="504" type="curve" smooth="yes"/>
      <point x="303" y="539"/>
      <point x="281" y="621"/>
      <point x="269" y="643" type="curve" smooth="yes"/>
      <point x="262" y="656"/>
      <point x="253" y="657"/>
      <point x="243" y="657" type="curve" smooth="yes"/>
      <point x="187" y="657" type="line" smooth="yes"/>
      <point x="181" y="657"/>
      <point x="165" y="647"/>
      <point x="177" y="635" type="curve" smooth="yes"/>
      <point x="210" y="602"/>
      <point x="263" y="535"/>
      <point x="290" y="499" type="curve" smooth="yes"/>
      <point x="295" y="492"/>
      <point x="317" y="491"/>
    </contour>
  </outline>
</glyph>
<glyph name="a" format="2">
  <advance width="420"/>
  <unicode hex="0061"/>
  <outline>
    <contour>
      <point x="395" y="93" type="curve"/>
      <point x="394" y="106"/>
      <point x="380" y="122"/>
      <point x="374" y="107" type="curve"/>
      <point x="364" y="95"/>
      <point x="354" y="83"/>
      <point x="342" y="73" type="curve" smooth="yes"/>
      <point x="336" y="68"/>
      <point x="322" y="64"/>
      <point x="322" y="78" type="curve" smooth="yes"/>
      <point x="322" y="84"/>
      <point x="324" y="100"/>
      <point x="330" y="130" type="curve" smooth="yes"/>
      <point x="387" y="413" type="line"/>
      <point x="386" y="422"/>
      <point x="383" y="428"/>
      <point x="378" y="428" type="curve" smooth="yes"/>
      <point x="319" y="427"/>
      <point x="270" y="416"/>
      <point x="217" y="385" type="curve" smooth="yes"/>
      <point x="111" y="323"/>
      <point x="32" y="202"/>
      <point x="32" y="99" type="curve" smooth="yes"/>
      <point x="32" y="44"/>
      <point x="59" y="-12"/>
      <point x="96" y="-12" type="curve" smooth="yes"/>
      <point x="131" y="-12"/>
      <point x="210" y="69"/>
      <point x="241" y="103" type="curve" smooth="yes"/>
      <point x="245" y="107"/>
      <point x="252" y="104"/>
      <point x="250" y="95" type="curve" smooth="yes"/>
      <point x="246" y="77"/>
      <point x="244" y="66"/>
      <point x="244" y="46" type="curve"/>
      <point x="243" y="17"/>
      <point x="250" y="-12"/>
      <point x="278" y="-12" type="curve" smooth="yes"/>
      <point x="295" y="-12"/>
      <point x="319" y="8"/>
      <point x="340" y="28" type="curve" smooth="yes"/>
      <point x="361" y="49"/>
      <point x="381" y="70"/>
      <point x="390" y="80" type="curve"/>
      <point x="395" y="85"/>
      <point x="396" y="88"/>
    </contour>
    <contour>
      <point x="301" y="342" type="curve"/>
      <point x="264" y="167" type="line"/>
      <point x="248" y="151"/>
      <point x="144" y="52"/>
      <point x="132" y="52" type="curve" smooth="yes"/>
      <point x="120" y="52"/>
      <point x="105" y="76"/>
      <point x="105" y="120" type="curve" smooth="yes"/>
      <point x="105" y="206"/>
      <point x="141" y="289"/>
      <point x="197" y="327" type="curve" smooth="yes"/>
      <point x="223" y="345"/>
      <point x="253" y="358"/>
      <point x="294" y="363" type="curve" smooth="yes"/>
      <point x="300" y="364"/>
      <point x="302" y="349"/>
    </contour>
  </outline>
</glyph>
<glyph name="b" format="2">
  <advance width="415"/>
  <unicode hex="0062"/>
  <outline>
    <contour>
      <point x="357" y="406" type="curve" smooth="yes"/>
      <point x="349" y="420"/>
      <point x="339" y="433"/>
      <point x="327" y="433" type="curve" smooth="yes"/>
      <point x="293" y="433"/>
      <point x="220" y="353"/>
      <point x="184" y="313" type="curve"/>
      <point x="176" y="303"/>
      <point x="175" y="322"/>
      <point x="177" y="335" type="curve" smooth="yes"/>
      <point x="193" y="431"/>
      <point x="231" y="624"/>
      <point x="254" y="723" type="curve" smooth="yes"/>
      <point x="263" y="763"/>
      <point x="245" y="766"/>
      <point x="209" y="745" type="curve" smooth="yes"/>
      <point x="124" y="695" type="line" smooth="yes"/>
      <point x="112" y="688"/>
      <point x="110" y="659"/>
      <point x="137" y="671" type="curve"/>
      <point x="147" y="674"/>
      <point x="157" y="681"/>
      <point x="164" y="684" type="curve" smooth="yes"/>
      <point x="171" y="687"/>
      <point x="175" y="689"/>
      <point x="170" y="668" type="curve" smooth="yes"/>
      <point x="128" y="487"/>
      <point x="100" y="328"/>
      <point x="68" y="146" type="curve" smooth="yes"/>
      <point x="55" y="72"/>
      <point x="62" y="-12"/>
      <point x="162" y="-12" type="curve" smooth="yes"/>
      <point x="317" y="-12"/>
      <point x="443" y="256"/>
    </contour>
    <contour>
      <point x="311" y="265" type="curve" smooth="yes"/>
      <point x="311" y="195"/>
      <point x="259" y="22"/>
      <point x="176" y="22" type="curve" smooth="yes"/>
      <point x="121" y="22"/>
      <point x="133" y="100"/>
      <point x="141" y="143" type="curve" smooth="yes"/>
      <point x="155" y="223" type="line" smooth="yes"/>
      <point x="157" y="234"/>
      <point x="161" y="245"/>
      <point x="167" y="252" type="curve" smooth="yes"/>
      <point x="194" y="285"/>
      <point x="259" y="365"/>
      <point x="283" y="365" type="curve" smooth="yes"/>
      <point x="296" y="365"/>
      <point x="311" y="330"/>
    </contour>
  </outline>
</glyph>
<glyph name="c" format="2">
  <advance width="320"/>
  <unicode hex="0063"/>
  <outline>
    <contour>
      <point x="334" y="386" type="curve" smooth="yes"/>
      <point x="334" y="414"/>
      <point x="309" y="429"/>
      <point x="278" y="429" type="curve" smooth="yes"/>
      <point x="142" y="429"/>
      <point x="53" y="212"/>
      <point x="53" y="100" type="curve" smooth="yes"/>
      <point x="53" y="34"/>
      <point x="89" y="-12"/>
      <point x="144" y="-12" type="curve" smooth="yes"/>
      <point x="189" y="-12"/>
      <point x="250" y="23"/>
      <point x="298" y="81" type="curve"/>
      <point x="305" y="95"/>
      <point x="279" y="119"/>
      <point x="271" y="103" type="curve"/>
      <point x="240" y="65"/>
      <point x="205" y="43"/>
      <point x="177" y="43" type="curve" smooth="yes"/>
      <point x="82" y="43"/>
      <point x="150" y="252"/>
      <point x="171" y="306" type="curve" smooth="yes"/>
      <point x="190" y="354"/>
      <point x="210" y="374"/>
      <point x="228" y="374" type="curve" smooth="yes"/>
      <point x="235" y="374"/>
      <point x="241" y="372"/>
      <point x="253" y="365" type="curve" smooth="yes"/>
      <point x="270" y="356"/>
      <point x="282" y="347"/>
      <point x="302" y="347" type="curve" smooth="yes"/>
      <point x="322" y="347"/>
      <point x="334" y="365"/>
    </contour>
  </outline>
</glyph>
<glyph name="d" format="2">
  <advance width="450"/>
  <unicode hex="0064"/>
  <outline>
    <contour>
      <point x="459" y="718" type="line" smooth="yes"/>
      <point x="468" y="764"/>
      <point x="436" y="753"/>
      <point x="417" y="742" type="curve" smooth="yes"/>
      <point x="313" y="683" type="line"/>
      <point x="295" y="678"/>
      <point x="303" y="640"/>
      <point x="321" y="652" type="curve"/>
      <point x="337" y="660"/>
      <point x="348" y="668"/>
      <point x="364" y="677" type="curve"/>
      <point x="376" y="682"/>
      <point x="378" y="683"/>
      <point x="374" y="663" type="curve" smooth="yes"/>
      <point x="332" y="427" type="line" smooth="yes"/>
      <point x="331" y="422"/>
      <point x="325" y="410"/>
      <point x="319" y="415" type="curve" smooth="yes"/>
      <point x="283" y="448"/>
      <point x="237" y="431"/>
      <point x="201" y="405" type="curve" smooth="yes"/>
      <point x="109" y="336"/>
      <point x="49" y="224"/>
      <point x="49" y="117" type="curve" smooth="yes"/>
      <point x="49" y="47"/>
      <point x="72" y="-12"/>
      <point x="112" y="-12" type="curve" smooth="yes"/>
      <point x="143" y="-12"/>
      <point x="202" y="37"/>
      <point x="265" y="117" type="curve"/>
      <point x="269" y="121"/>
      <point x="271" y="113"/>
      <point x="269" y="106" type="curve"/>
      <point x="268" y="101"/>
      <point x="269" y="102"/>
      <point x="264" y="81" type="curve" smooth="yes"/>
      <point x="259" y="56"/>
      <point x="257" y="37"/>
      <point x="257" y="25" type="curve" smooth="yes"/>
      <point x="257" y="4"/>
      <point x="266" y="-12"/>
      <point x="284" y="-12" type="curve" smooth="yes"/>
      <point x="314" y="-12"/>
      <point x="373" y="39"/>
      <point x="410" y="98" type="curve"/>
      <point x="415" y="117"/>
      <point x="396" y="130"/>
      <point x="388" y="119" type="curve" smooth="yes"/>
      <point x="367" y="89"/>
      <point x="353" y="72"/>
      <point x="344" y="64" type="curve" smooth="yes"/>
      <point x="334" y="55"/>
      <point x="337" y="66"/>
      <point x="337" y="78" type="curve"/>
    </contour>
    <contour>
      <point x="314" y="337" type="curve"/>
      <point x="286" y="191" type="line"/>
      <point x="225" y="104"/>
      <point x="170" y="49"/>
      <point x="151" y="49" type="curve" smooth="yes"/>
      <point x="137" y="49"/>
      <point x="123" y="73"/>
      <point x="123" y="123" type="curve" smooth="yes"/>
      <point x="123" y="188"/>
      <point x="143" y="259"/>
      <point x="180" y="324" type="curve" smooth="yes"/>
      <point x="207" y="371"/>
      <point x="233" y="393"/>
      <point x="256" y="393" type="curve" smooth="yes"/>
      <point x="279" y="393"/>
      <point x="300" y="373"/>
    </contour>
  </outline>
</glyph>
<glyph name="f" format="2">
  <advance width="283"/>
  <unicode hex="0066"/>
  <outline>
    <contour>
      <point x="444" y="699" type="curve" smooth="yes"/>
      <point x="445" y="732"/>
      <point x="406" y="758"/>
      <point x="366" y="758" type="curve" smooth="yes"/>
      <point x="318" y="758"/>
      <point x="266" y="730"/>
      <point x="229" y="684" type="curve" smooth="yes"/>
      <point x="203" y="651"/>
      <point x="184" y="615"/>
      <point x="164" y="556" type="curve" smooth="yes"/>
      <point x="150" y="516"/>
      <point x="137" y="454"/>
      <point x="131" y="418" type="curve"/>
      <point x="122" y="415"/>
      <point x="114" y="412"/>
      <point x="106" y="410" type="curve" smooth="yes"/>
      <point x="97" y="408"/>
      <point x="87" y="406"/>
      <point x="72" y="405" type="curve" smooth="yes"/>
      <point x="58" y="404"/>
      <point x="55" y="370"/>
      <point x="69" y="374" type="curve"/>
      <point x="108" y="374" type="line" smooth="yes"/>
      <point x="115" y="374"/>
      <point x="121" y="365"/>
      <point x="120" y="357" type="curve" smooth="yes"/>
      <point x="101" y="245"/>
      <point x="84" y="134"/>
      <point x="62" y="19" type="curve" smooth="yes"/>
      <point x="52" y="-31"/>
      <point x="37" y="-132"/>
      <point x="16" y="-175" type="curve" smooth="yes"/>
      <point x="0" y="-206"/>
      <point x="-31" y="-229"/>
      <point x="-59" y="-229" type="curve" smooth="yes"/>
      <point x="-74" y="-229"/>
      <point x="-85" y="-221"/>
      <point x="-95" y="-211" type="curve" smooth="yes"/>
      <point x="-106" y="-201"/>
      <point x="-118" y="-185"/>
      <point x="-133" y="-184" type="curve" smooth="yes"/>
      <point x="-151" y="-182"/>
      <point x="-172" y="-182"/>
      <point x="-178" y="-215" type="curve" smooth="yes"/>
      <point x="-184" y="-245"/>
      <point x="-142" y="-274"/>
      <point x="-99" y="-274" type="curve" smooth="yes"/>
      <point x="-62" y="-274"/>
      <point x="-29" y="-260"/>
      <point x="1" y="-238" type="curve" smooth="yes"/>
      <point x="106" y="-161"/>
      <point x="131" y="-7"/>
      <point x="152" y="112" type="curve" smooth="yes"/>
      <point x="196" y="362" type="line"/>
      <point x="201" y="372"/>
      <point x="198" y="371"/>
      <point x="211" y="374" type="curve"/>
      <point x="261" y="374" type="line" smooth="yes"/>
      <point x="275" y="374"/>
      <point x="288" y="419"/>
      <point x="271" y="419" type="curve" smooth="yes"/>
      <point x="216" y="419" type="line"/>
      <point x="209" y="420"/>
      <point x="208" y="431"/>
      <point x="210" y="442" type="curve" smooth="yes"/>
      <point x="223" y="518" type="line" smooth="yes"/>
      <point x="237" y="601"/>
      <point x="251" y="649"/>
      <point x="268" y="675" type="curve" smooth="yes"/>
      <point x="281" y="696"/>
      <point x="303" y="710"/>
      <point x="320" y="710" type="curve" smooth="yes"/>
      <point x="358" y="711"/>
      <point x="364" y="672"/>
      <point x="397" y="668" type="curve" smooth="yes"/>
      <point x="418" y="666"/>
      <point x="443" y="672"/>
    </contour>
  </outline>
</glyph>
<glyph name="g" format="2">
  <advance width="398"/>
  <unicode hex="0067"/>
  <outline>
    <contour>
      <point x="390" y="359" type="line"/>
      <point x="411" y="353"/>
      <point x="408" y="421"/>
      <point x="390" y="421" type="curve" smooth="yes"/>
      <point x="373" y="421"/>
      <point x="314" y="428"/>
      <point x="276" y="430" type="curve" smooth="yes"/>
      <point x="231" y="432"/>
      <point x="196" y="414"/>
      <point x="162" y="386" type="curve" smooth="yes"/>
      <point x="99" y="334"/>
      <point x="50" y="258"/>
      <point x="50" y="193" type="curve" smooth="yes"/>
      <point x="50" y="139"/>
      <point x="74" y="90"/>
      <point x="115" y="59" type="curve"/>
      <point x="118" y="57"/>
      <point x="125" y="50"/>
      <point x="117" y="44" type="curve" smooth="yes"/>
      <point x="90" y="24"/>
      <point x="74" y="5"/>
      <point x="90" y="-29" type="curve" smooth="yes"/>
      <point x="92" y="-33"/>
      <point x="91" y="-39"/>
      <point x="84" y="-43" type="curve" smooth="yes"/>
      <point x="47" y="-63"/>
      <point x="12" y="-83"/>
      <point x="-23" y="-107" type="curve" smooth="yes"/>
      <point x="-61" y="-132"/>
      <point x="-83" y="-158"/>
      <point x="-83" y="-184" type="curve" smooth="yes"/>
      <point x="-83" y="-240"/>
      <point x="2" y="-275"/>
      <point x="111" y="-275" type="curve" smooth="yes"/>
      <point x="234" y="-275"/>
      <point x="332" y="-234"/>
      <point x="332" y="-170" type="curve" smooth="yes"/>
      <point x="332" y="-137"/>
      <point x="299" y="-105"/>
      <point x="210" y="-44" type="curve" smooth="yes"/>
      <point x="155" y="-7"/>
      <point x="142" y="7"/>
      <point x="142" y="19" type="curve" smooth="yes"/>
      <point x="142" y="27"/>
      <point x="147" y="36"/>
      <point x="176" y="49" type="curve" smooth="yes"/>
      <point x="213" y="65"/>
      <point x="268" y="99"/>
      <point x="296" y="124" type="curve" smooth="yes"/>
      <point x="337" y="160"/>
      <point x="364" y="219"/>
      <point x="364" y="276" type="curve" smooth="yes"/>
      <point x="364" y="302"/>
      <point x="361" y="322"/>
      <point x="349" y="353" type="curve" smooth="yes"/>
      <point x="346" y="360"/>
      <point x="356" y="363"/>
      <point x="359" y="362" type="curve"/>
    </contour>
    <contour>
      <point x="285" y="289" type="curve" smooth="yes"/>
      <point x="285" y="231"/>
      <point x="269" y="173"/>
      <point x="242" y="132" type="curve" smooth="yes"/>
      <point x="223" y="104"/>
      <point x="202" y="89"/>
      <point x="183" y="89" type="curve" smooth="yes"/>
      <point x="155" y="89"/>
      <point x="126" y="130"/>
      <point x="126" y="185" type="curve" smooth="yes"/>
      <point x="126" y="211"/>
      <point x="133" y="247"/>
      <point x="147" y="287" type="curve" smooth="yes"/>
      <point x="171" y="358"/>
      <point x="199" y="390"/>
      <point x="231" y="390" type="curve" smooth="yes"/>
      <point x="261" y="390"/>
      <point x="285" y="352"/>
    </contour>
    <contour>
      <point x="264" y="-193" type="curve" smooth="yes"/>
      <point x="264" y="-220"/>
      <point x="208" y="-246"/>
      <point x="112" y="-246" type="curve" smooth="yes"/>
      <point x="35" y="-246"/>
      <point x="-14" y="-214"/>
      <point x="-14" y="-174" type="curve" smooth="yes"/>
      <point x="-14" y="-142"/>
      <point x="16" y="-116"/>
      <point x="102" y="-67" type="curve" smooth="yes"/>
      <point x="107" y="-64"/>
      <point x="118" y="-64"/>
      <point x="124" y="-70" type="curve"/>
      <point x="160" y="-101"/>
      <point x="193" y="-127"/>
      <point x="233" y="-156" type="curve" smooth="yes"/>
      <point x="257" y="-173"/>
      <point x="264" y="-185"/>
    </contour>
  </outline>
</glyph>
<glyph name="h" format="2">
  <advance width="457"/>
  <unicode hex="0068"/>
  <outline>
    <contour>
      <point x="444" y="101" type="curve"/>
      <point x="450" y="111"/>
      <point x="438" y="135"/>
      <point x="425" y="125" type="curve"/>
      <point x="383" y="76"/>
      <point x="366" y="58"/>
      <point x="357" y="58" type="curve" smooth="yes"/>
      <point x="350" y="58"/>
      <point x="351" y="71"/>
      <point x="352" y="74" type="curve"/>
      <point x="410" y="302" type="line" smooth="yes"/>
      <point x="417" y="330"/>
      <point x="436" y="431"/>
      <point x="376" y="431" type="curve" smooth="yes"/>
      <point x="330" y="431"/>
      <point x="274" y="388"/>
      <point x="184" y="261" type="curve" smooth="yes"/>
      <point x="179" y="254"/>
      <point x="174" y="262"/>
      <point x="177" y="276" type="curve" smooth="yes"/>
      <point x="266" y="728" type="line" smooth="yes"/>
      <point x="273" y="765"/>
      <point x="245" y="758"/>
      <point x="219" y="743" type="curve" smooth="yes"/>
      <point x="122" y="688" type="line"/>
      <point x="111" y="683"/>
      <point x="117" y="648"/>
      <point x="134" y="661" type="curve"/>
      <point x="153" y="672"/>
      <point x="167" y="679"/>
      <point x="174" y="681" type="curve"/>
      <point x="178" y="683"/>
      <point x="182" y="676"/>
      <point x="180" y="668" type="curve"/>
      <point x="149" y="504"/>
      <point x="86" y="182"/>
      <point x="52" y="19" type="curve" smooth="yes"/>
      <point x="50" y="11"/>
      <point x="49" y="-8"/>
      <point x="62" y="-7" type="curve"/>
      <point x="78" y="-8"/>
      <point x="88" y="-7"/>
      <point x="99" y="-7" type="curve" smooth="yes"/>
      <point x="106" y="-7"/>
      <point x="113" y="-7"/>
      <point x="117" y="-3" type="curve" smooth="yes"/>
      <point x="122" y="2"/>
      <point x="127" y="27"/>
      <point x="129" y="35" type="curve"/>
      <point x="132" y="51"/>
      <point x="138" y="83"/>
      <point x="156" y="169" type="curve"/>
      <point x="183" y="209"/>
      <point x="308" y="375"/>
      <point x="334" y="375" type="curve" smooth="yes"/>
      <point x="355" y="375"/>
      <point x="338" y="313"/>
      <point x="335" y="303" type="curve" smooth="yes"/>
      <point x="283" y="97" type="line" smooth="yes"/>
      <point x="278" y="78"/>
      <point x="259" y="-12"/>
      <point x="307" y="-12" type="curve" smooth="yes"/>
      <point x="338" y="-12"/>
      <point x="398" y="38"/>
    </contour>
  </outline>
</glyph>
<glyph name="j" format="2">
  <advance width="245"/>
  <unicode hex="006A"/>
  <outline>
    <contour>
      <point x="256" y="579" type="curve" smooth="yes"/>
      <point x="260" y="603"/>
      <point x="272" y="645"/>
      <point x="230" y="644" type="curve" smooth="yes"/>
      <point x="194" y="643"/>
      <point x="184" y="604"/>
      <point x="178" y="559" type="curve" smooth="yes"/>
      <point x="175" y="536"/>
      <point x="192" y="521"/>
      <point x="210" y="521" type="curve" smooth="yes"/>
      <point x="240" y="521"/>
      <point x="250" y="547"/>
    </contour>
    <contour>
      <point x="208" y="339" type="line" smooth="yes"/>
      <point x="213" y="360"/>
      <point x="226" y="424"/>
      <point x="188" y="423" type="curve" smooth="yes"/>
      <point x="162" y="423"/>
      <point x="115" y="387"/>
      <point x="65" y="324" type="curve"/>
      <point x="55" y="316"/>
      <point x="71" y="292"/>
      <point x="85" y="304" type="curve"/>
      <point x="88" y="307"/>
      <point x="98" y="318"/>
      <point x="108" y="328" type="curve" smooth="yes"/>
      <point x="116" y="336"/>
      <point x="140" y="361"/>
      <point x="133" y="330" type="curve" smooth="yes"/>
      <point x="43" y="-57" type="line" smooth="yes"/>
      <point x="37" y="-82"/>
      <point x="35" y="-100"/>
      <point x="26" y="-132" type="curve" smooth="yes"/>
      <point x="7" y="-203"/>
      <point x="-17" y="-255"/>
      <point x="-58" y="-226" type="curve" smooth="yes"/>
      <point x="-65" y="-221"/>
      <point x="-71" y="-211"/>
      <point x="-76" y="-204" type="curve"/>
      <point x="-84" y="-195"/>
      <point x="-93" y="-186"/>
      <point x="-107" y="-184" type="curve" smooth="yes"/>
      <point x="-130" y="-181"/>
      <point x="-143" y="-195"/>
      <point x="-145" y="-216" type="curve" smooth="yes"/>
      <point x="-147" y="-240"/>
      <point x="-123" y="-272"/>
      <point x="-82" y="-272" type="curve" smooth="yes"/>
      <point x="-23" y="-272"/>
      <point x="18" y="-232"/>
      <point x="49" y="-189" type="curve" smooth="yes"/>
      <point x="91" y="-131"/>
      <point x="111" y="-73"/>
      <point x="129" y="4" type="curve" smooth="yes"/>
    </contour>
  </outline>
</glyph>
<glyph name="k" format="2">
  <advance width="459"/>
  <unicode hex="006B"/>
  <outline>
    <contour>
      <point x="452" y="343" type="curve" smooth="yes"/>
      <point x="449" y="387"/>
      <point x="423" y="432"/>
      <point x="388" y="432" type="curve" smooth="yes"/>
      <point x="336" y="432"/>
      <point x="228" y="331"/>
      <point x="188" y="292" type="curve" smooth="yes"/>
      <point x="185" y="289"/>
      <point x="184" y="304"/>
      <point x="186" y="312" type="curve" smooth="yes"/>
      <point x="270" y="728" type="line" smooth="yes"/>
      <point x="278" y="768"/>
      <point x="254" y="762"/>
      <point x="231" y="748" type="curve" smooth="yes"/>
      <point x="133" y="690" type="line"/>
      <point x="114" y="684"/>
      <point x="134" y="651"/>
      <point x="144" y="661" type="curve"/>
      <point x="153" y="666"/>
      <point x="161" y="671"/>
      <point x="169" y="675" type="curve"/>
      <point x="174" y="678"/>
      <point x="189" y="686"/>
      <point x="186" y="671" type="curve" smooth="yes"/>
      <point x="55" y="15" type="line"/>
      <point x="51" y="3"/>
      <point x="54" y="-9"/>
      <point x="72" y="-10" type="curve"/>
      <point x="85" y="-10"/>
      <point x="92" y="-10"/>
      <point x="105" y="-10" type="curve" smooth="yes"/>
      <point x="133" y="-10"/>
      <point x="127" y="8"/>
      <point x="129" y="18" type="curve" smooth="yes"/>
      <point x="162" y="187" type="line" smooth="yes"/>
      <point x="163" y="193"/>
      <point x="168" y="195"/>
      <point x="172" y="191" type="curve"/>
      <point x="188" y="173"/>
      <point x="205" y="148"/>
      <point x="231" y="107" type="curve" smooth="yes"/>
      <point x="258" y="63"/>
      <point x="280" y="32"/>
      <point x="323" y="2" type="curve" smooth="yes"/>
      <point x="336" y="-7"/>
      <point x="349" y="-10"/>
      <point x="366" y="-10" type="curve"/>
      <point x="395" y="11"/>
      <point x="425" y="47"/>
      <point x="449" y="78" type="curve"/>
      <point x="455" y="84"/>
      <point x="441" y="115"/>
      <point x="426" y="99" type="curve"/>
      <point x="426" y="97"/>
      <point x="392" y="63"/>
      <point x="386" y="57" type="curve"/>
      <point x="368" y="54"/>
      <point x="337" y="80"/>
      <point x="312" y="117" type="curve" smooth="yes"/>
      <point x="289" y="151" type="line" smooth="yes"/>
      <point x="279" y="166"/>
      <point x="272" y="176"/>
      <point x="255" y="193" type="curve"/>
      <point x="251" y="198"/>
      <point x="251" y="202"/>
      <point x="258" y="202" type="curve" smooth="yes"/>
      <point x="401" y="201"/>
      <point x="459" y="256"/>
    </contour>
    <contour>
      <point x="387" y="332" type="curve" smooth="yes"/>
      <point x="388" y="271"/>
      <point x="358" y="249"/>
      <point x="314" y="238" type="curve" smooth="yes"/>
      <point x="292" y="233"/>
      <point x="267" y="231"/>
      <point x="241" y="231" type="curve" smooth="yes"/>
      <point x="219" y="231"/>
      <point x="209" y="231"/>
      <point x="188" y="231" type="curve"/>
      <point x="188" y="231"/>
      <point x="173" y="236"/>
      <point x="182" y="245" type="curve" smooth="yes"/>
      <point x="258" y="324"/>
      <point x="329" y="375"/>
      <point x="353" y="375" type="curve" smooth="yes"/>
      <point x="374" y="375"/>
      <point x="387" y="353"/>
    </contour>
  </outline>
</glyph>
<glyph name="l" format="2">
  <advance width="256"/>
  <unicode hex="006C"/>
  <outline>
    <contour>
      <point x="264" y="720" type="line" smooth="yes"/>
      <point x="275" y="776"/>
      <point x="236" y="758"/>
      <point x="208" y="741" type="curve" smooth="yes"/>
      <point x="115" y="685" type="line"/>
      <point x="103" y="681"/>
      <point x="110" y="643"/>
      <point x="126" y="655" type="curve"/>
      <point x="147" y="667"/>
      <point x="162" y="676"/>
      <point x="172" y="680" type="curve"/>
      <point x="182" y="687"/>
      <point x="183" y="677"/>
      <point x="182" y="670" type="curve" smooth="yes"/>
      <point x="68" y="78" type="line" smooth="yes"/>
      <point x="61" y="41"/>
      <point x="55" y="-13"/>
      <point x="102" y="-13" type="curve" smooth="yes"/>
      <point x="132" y="-13"/>
      <point x="176" y="22"/>
      <point x="224" y="81" type="curve"/>
      <point x="230" y="97"/>
      <point x="209" y="114"/>
      <point x="204" y="101" type="curve"/>
      <point x="166" y="57"/>
      <point x="148" y="43"/>
      <point x="141" y="43" type="curve" smooth="yes"/>
      <point x="135" y="43"/>
      <point x="134" y="47"/>
      <point x="137" y="63" type="curve" smooth="yes"/>
    </contour>
  </outline>
</glyph>
<glyph name="m" format="2">
  <advance width="681"/>
  <unicode hex="006D"/>
  <outline>
    <contour>
      <point x="629" y="99" type="curve" smooth="yes"/>
      <point x="636" y="109"/>
      <point x="622" y="138"/>
      <point x="609" y="121" type="curve" smooth="yes"/>
      <point x="605" y="116"/>
      <point x="593" y="100"/>
      <point x="581" y="85" type="curve" smooth="yes"/>
      <point x="557" y="57"/>
      <point x="549" y="57"/>
      <point x="552" y="72" type="curve" smooth="yes"/>
      <point x="603" y="337" type="line" smooth="yes"/>
      <point x="607" y="359"/>
      <point x="617" y="425"/>
      <point x="574" y="425" type="curve" smooth="yes"/>
      <point x="513" y="425"/>
      <point x="443" y="339"/>
      <point x="405" y="273" type="curve"/>
      <point x="403" y="269"/>
      <point x="393" y="262"/>
      <point x="395" y="270" type="curve" smooth="yes"/>
      <point x="401" y="299"/>
      <point x="408" y="345"/>
      <point x="408" y="379" type="curve" smooth="yes"/>
      <point x="408" y="406"/>
      <point x="397" y="427"/>
      <point x="377" y="427" type="curve" smooth="yes"/>
      <point x="338" y="427"/>
      <point x="289" y="379"/>
      <point x="248" y="328" type="curve" smooth="yes"/>
      <point x="206" y="277"/>
      <point x="201" y="268"/>
      <point x="195" y="260" type="curve"/>
      <point x="189" y="250"/>
      <point x="181" y="248"/>
      <point x="182" y="252" type="curve"/>
      <point x="207" y="384" type="line" smooth="yes"/>
      <point x="209" y="396"/>
      <point x="213" y="427"/>
      <point x="188" y="427" type="curve" smooth="yes"/>
      <point x="164" y="427"/>
      <point x="96" y="370"/>
      <point x="54" y="303" type="curve"/>
      <point x="47" y="279"/>
      <point x="69" y="281"/>
      <point x="76" y="289" type="curve" smooth="yes"/>
      <point x="89" y="305"/>
      <point x="100" y="322"/>
      <point x="116" y="336" type="curve" smooth="yes"/>
      <point x="124" y="343"/>
      <point x="127" y="336"/>
      <point x="125" y="324" type="curve" smooth="yes"/>
      <point x="65" y="13" type="line" smooth="yes"/>
      <point x="62" y="-4"/>
      <point x="69" y="-11"/>
      <point x="84" y="-11" type="curve" smooth="yes"/>
      <point x="93" y="-11"/>
      <point x="102" y="-12"/>
      <point x="112" y="-12" type="curve" smooth="yes"/>
      <point x="128" y="-12"/>
      <point x="135" y="1"/>
      <point x="136" y="10" type="curve"/>
      <point x="138" y="16"/>
      <point x="138" y="19"/>
      <point x="139" y="21" type="curve"/>
      <point x="142" y="43"/>
      <point x="146" y="64"/>
      <point x="150" y="86" type="curve" smooth="yes"/>
      <point x="158" y="126"/>
      <point x="167" y="156"/>
      <point x="181" y="180" type="curve" smooth="yes"/>
      <point x="204" y="219"/>
      <point x="293" y="361"/>
      <point x="333" y="361" type="curve" smooth="yes"/>
      <point x="339" y="361"/>
      <point x="336" y="345"/>
      <point x="333" y="332" type="curve" smooth="yes"/>
      <point x="272" y="18" type="line" smooth="yes"/>
      <point x="270" y="8"/>
      <point x="269" y="-11"/>
      <point x="289" y="-11" type="curve" smooth="yes"/>
      <point x="300" y="-11"/>
      <point x="305" y="-11"/>
      <point x="321" y="-11" type="curve"/>
      <point x="331" y="-12"/>
      <point x="339" y="-1"/>
      <point x="342" y="12" type="curve" smooth="yes"/>
      <point x="362" y="115" type="line" smooth="yes"/>
      <point x="366" y="138"/>
      <point x="375" y="162"/>
      <point x="389" y="189" type="curve" smooth="yes"/>
      <point x="425" y="256"/>
      <point x="435" y="266"/>
      <point x="458" y="297" type="curve" smooth="yes"/>
      <point x="483" y="330"/>
      <point x="502" y="351"/>
      <point x="516" y="358" type="curve" smooth="yes"/>
      <point x="536" y="367"/>
      <point x="536" y="357"/>
      <point x="533" y="339" type="curve" smooth="yes"/>
      <point x="513" y="236"/>
      <point x="497" y="159"/>
      <point x="477" y="51" type="curve" smooth="yes"/>
      <point x="473" y="32"/>
      <point x="466" y="-12"/>
      <point x="502" y="-12" type="curve" smooth="yes"/>
      <point x="530" y="-12"/>
      <point x="583" y="34"/>
    </contour>
  </outline>
</glyph>
<glyph name="n" format="2">
  <advance width="469"/>
  <unicode hex="006E"/>
  <outline>
    <contour>
      <point x="453" y="108" type="line"/>
      <point x="454" y="115"/>
      <point x="452" y="123"/>
      <point x="448" y="127" type="curve" smooth="yes"/>
      <point x="444" y="131"/>
      <point x="437" y="134"/>
      <point x="432" y="126" type="curve"/>
      <point x="427" y="120"/>
      <point x="409" y="98"/>
      <point x="391" y="78" type="curve" smooth="yes"/>
      <point x="373" y="57"/>
      <point x="357" y="47"/>
      <point x="352" y="48" type="curve"/>
      <point x="345" y="50"/>
      <point x="353" y="71"/>
      <point x="355" y="76" type="curve"/>
      <point x="384" y="178"/>
      <point x="402" y="256"/>
      <point x="414" y="303" type="curve" smooth="yes"/>
      <point x="423" y="340"/>
      <point x="435" y="429"/>
      <point x="376" y="429" type="curve" smooth="yes"/>
      <point x="307" y="429"/>
      <point x="237" y="333"/>
      <point x="185" y="262" type="curve"/>
      <point x="185" y="262"/>
      <point x="170" y="237"/>
      <point x="175" y="258" type="curve"/>
      <point x="172" y="250"/>
      <point x="197" y="374"/>
      <point x="197" y="374" type="curve"/>
      <point x="202" y="399"/>
      <point x="201" y="428"/>
      <point x="178" y="429" type="curve" smooth="yes"/>
      <point x="145" y="431"/>
      <point x="68" y="330"/>
      <point x="50" y="305" type="curve" smooth="yes"/>
      <point x="40" y="291"/>
      <point x="53" y="263"/>
      <point x="66" y="279" type="curve" smooth="yes"/>
      <point x="79" y="296"/>
      <point x="83" y="303"/>
      <point x="97" y="319" type="curve"/>
      <point x="102" y="324"/>
      <point x="116" y="346"/>
      <point x="111" y="319" type="curve" smooth="yes"/>
      <point x="51" y="14" type="line"/>
      <point x="45" y="-5"/>
      <point x="58" y="-11"/>
      <point x="71" y="-11" type="curve" smooth="yes"/>
      <point x="98" y="-11" type="line" smooth="yes"/>
      <point x="116" y="-11"/>
      <point x="119" y="-8"/>
      <point x="123" y="11" type="curve" smooth="yes"/>
      <point x="154" y="159" type="line"/>
      <point x="180" y="195"/>
      <point x="296" y="362"/>
      <point x="335" y="362" type="curve" smooth="yes"/>
      <point x="349" y="362"/>
      <point x="343" y="331"/>
      <point x="341" y="319" type="curve" smooth="yes"/>
      <point x="326" y="247"/>
      <point x="291" y="122"/>
      <point x="278" y="69" type="curve" smooth="yes"/>
      <point x="270" y="39"/>
      <point x="267" y="-12"/>
      <point x="309" y="-12" type="curve" smooth="yes"/>
      <point x="341" y="-12"/>
      <point x="397" y="24"/>
      <point x="443" y="93" type="curve" smooth="yes"/>
    </contour>
  </outline>
</glyph>
<glyph name="p" format="2">
  <advance width="445"/>
  <unicode hex="0070"/>
  <outline>
    <contour>
      <point x="414" y="274" type="curve" smooth="yes"/>
      <point x="414" y="331"/>
      <point x="395" y="428"/>
      <point x="341" y="428" type="curve" smooth="yes"/>
      <point x="309" y="428"/>
      <point x="280" y="403"/>
      <point x="255" y="374" type="curve" smooth="yes"/>
      <point x="244" y="360"/>
      <point x="233" y="347"/>
      <point x="224" y="334" type="curve" smooth="yes"/>
      <point x="210" y="313"/>
      <point x="195" y="287"/>
      <point x="200" y="315" type="curve" smooth="yes"/>
      <point x="205" y="341"/>
      <point x="210" y="368"/>
      <point x="210" y="394" type="curve" smooth="yes"/>
      <point x="210" y="414"/>
      <point x="205" y="429"/>
      <point x="187" y="429" type="curve" smooth="yes"/>
      <point x="158" y="429"/>
      <point x="90" y="374"/>
      <point x="39" y="298" type="curve" smooth="yes"/>
      <point x="26" y="279"/>
      <point x="50" y="263"/>
      <point x="58" y="273" type="curve" smooth="yes"/>
      <point x="66" y="283"/>
      <point x="91" y="317"/>
      <point x="111" y="334" type="curve" smooth="yes"/>
      <point x="140" y="359"/>
      <point x="127" y="324"/>
      <point x="124" y="307" type="curve" smooth="yes"/>
      <point x="31" y="-145" type="line"/>
      <point x="27" y="-166" type="line" smooth="yes"/>
      <point x="16" y="-222"/>
      <point x="7" y="-233"/>
      <point x="-40" y="-239" type="curve"/>
      <point x="-40" y="-239"/>
      <point x="-52" y="-240"/>
      <point x="-56" y="-241" type="curve"/>
      <point x="-55" y="-242" type="line"/>
      <point x="-62" y="-244"/>
      <point x="-66" y="-253"/>
      <point x="-67" y="-258" type="curve" smooth="yes"/>
      <point x="-68" y="-264"/>
      <point x="-66" y="-276"/>
      <point x="-58" y="-275" type="curve"/>
      <point x="-15" y="-274"/>
      <point x="61" y="-271"/>
      <point x="164" y="-275" type="curve" smooth="yes"/>
      <point x="183" y="-276"/>
      <point x="184" y="-241"/>
      <point x="171" y="-241" type="curve" smooth="yes"/>
      <point x="103" y="-238"/>
      <point x="94" y="-234"/>
      <point x="94" y="-208" type="curve" smooth="yes"/>
      <point x="94" y="-204"/>
      <point x="95" y="-200"/>
      <point x="95" y="-194" type="curve"/>
      <point x="97" y="-184"/>
      <point x="99" y="-170"/>
      <point x="104" y="-147" type="curve" smooth="yes"/>
      <point x="131" y="-21" type="line"/>
      <point x="133" y="-16"/>
      <point x="135" y="-8"/>
      <point x="140" y="-9" type="curve"/>
      <point x="288" y="-49"/>
      <point x="414" y="143"/>
    </contour>
    <contour>
      <point x="339" y="270" type="curve" smooth="yes"/>
      <point x="339" y="140"/>
      <point x="262" y="21"/>
      <point x="185" y="21" type="curve" smooth="yes"/>
      <point x="174" y="21"/>
      <point x="161" y="28"/>
      <point x="153" y="34" type="curve"/>
      <point x="148" y="37"/>
      <point x="146" y="42"/>
      <point x="147" y="48" type="curve" smooth="yes"/>
      <point x="179" y="208" type="line"/>
      <point x="198" y="238"/>
      <point x="224" y="277"/>
      <point x="248" y="310" type="curve" smooth="yes"/>
      <point x="272" y="343"/>
      <point x="294" y="366"/>
      <point x="304" y="366" type="curve" smooth="yes"/>
      <point x="323" y="366"/>
      <point x="339" y="330"/>
    </contour>
  </outline>
</glyph>
<glyph name="q" format="2">
  <advance width="426"/>
  <unicode hex="0071"/>
  <outline>
    <contour>
      <point x="407" y="400" type="line" smooth="yes"/>
      <point x="411" y="421"/>
      <point x="401" y="429"/>
      <point x="385" y="429" type="curve" smooth="yes"/>
      <point x="283" y="429"/>
      <point x="198" y="377"/>
      <point x="134" y="299" type="curve" smooth="yes"/>
      <point x="81" y="236"/>
      <point x="52" y="169"/>
      <point x="52" y="106" type="curve" smooth="yes"/>
      <point x="52" y="46"/>
      <point x="79" y="-15"/>
      <point x="116" y="-15" type="curve" smooth="yes"/>
      <point x="156" y="-15"/>
      <point x="229" y="59"/>
      <point x="263" y="95" type="curve" smooth="yes"/>
      <point x="271" y="103"/>
      <point x="269" y="77"/>
      <point x="268" y="71" type="curve" smooth="yes"/>
      <point x="223" y="-144"/>
      <point x="218" y="-166"/>
      <point x="214" y="-187" type="curve" smooth="yes"/>
      <point x="206" y="-230"/>
      <point x="199" y="-235"/>
      <point x="134" y="-241" type="curve"/>
      <point x="119" y="-238"/>
      <point x="108" y="-273"/>
      <point x="125" y="-275" type="curve"/>
      <point x="202" y="-274"/>
      <point x="253" y="-273"/>
      <point x="343" y="-275" type="curve"/>
      <point x="363" y="-278"/>
      <point x="371" y="-238"/>
      <point x="350" y="-241" type="curve"/>
      <point x="323" y="-241"/>
      <point x="286" y="-246"/>
      <point x="286" y="-209" type="curve" smooth="yes"/>
      <point x="286" y="-188"/>
      <point x="292" y="-169"/>
      <point x="296" y="-148" type="curve" smooth="yes"/>
    </contour>
    <contour>
      <point x="322" y="342" type="curve" smooth="yes"/>
      <point x="290" y="171" type="line"/>
      <point x="209" y="84"/>
      <point x="174" y="49"/>
      <point x="156" y="49" type="curve" smooth="yes"/>
      <point x="140" y="49"/>
      <point x="127" y="69"/>
      <point x="127" y="122" type="curve" smooth="yes"/>
      <point x="127" y="200"/>
      <point x="161" y="283"/>
      <point x="212" y="325" type="curve" smooth="yes"/>
      <point x="239" y="347"/>
      <point x="269" y="360"/>
      <point x="321" y="363" type="curve"/>
      <point x="323" y="363"/>
      <point x="326" y="362"/>
    </contour>
  </outline>
</glyph>
<glyph name="r" format="2">
  <advance width="323"/>
  <unicode hex="0072"/>
  <outline>
    <contour>
      <point x="341" y="392" type="curve" smooth="yes"/>
      <point x="339" y="419"/>
      <point x="318" y="428"/>
      <point x="301" y="428" type="curve" smooth="yes"/>
      <point x="245" y="428"/>
      <point x="194" y="315"/>
      <point x="167" y="246" type="curve" smooth="yes"/>
      <point x="163" y="235"/>
      <point x="159" y="228"/>
      <point x="161" y="242" type="curve"/>
      <point x="163" y="248"/>
      <point x="163" y="252"/>
      <point x="165" y="262" type="curve" smooth="yes"/>
      <point x="170" y="286"/>
      <point x="176" y="317"/>
      <point x="181" y="350" type="curve" smooth="yes"/>
      <point x="184" y="371"/>
      <point x="196" y="428"/>
      <point x="161" y="428" type="curve" smooth="yes"/>
      <point x="137" y="428"/>
      <point x="102" y="390"/>
      <point x="41" y="315" type="curve" smooth="yes"/>
      <point x="27" y="299"/>
      <point x="47" y="276"/>
      <point x="58" y="294" type="curve"/>
      <point x="61" y="298"/>
      <point x="82" y="326"/>
      <point x="96" y="339" type="curve" smooth="yes"/>
      <point x="112" y="354"/>
      <point x="110" y="334"/>
      <point x="109" y="324" type="curve" smooth="yes"/>
      <point x="97" y="235"/>
      <point x="72" y="90"/>
      <point x="57" y="15" type="curve" smooth="yes"/>
      <point x="55" y="3"/>
      <point x="53" y="-12"/>
      <point x="70" y="-12" type="curve" smooth="yes"/>
      <point x="80" y="-12"/>
      <point x="91" y="-12"/>
      <point x="101" y="-12" type="curve" smooth="yes"/>
      <point x="120" y="-12"/>
      <point x="123" y="3"/>
      <point x="125" y="15" type="curve" smooth="yes"/>
      <point x="127" y="27"/>
      <point x="135" y="60"/>
      <point x="137" y="72" type="curve"/>
      <point x="141" y="89"/>
      <point x="147" y="120"/>
      <point x="159" y="153" type="curve" smooth="yes"/>
      <point x="169" y="179"/>
      <point x="186" y="219"/>
      <point x="207" y="263" type="curve" smooth="yes"/>
      <point x="227" y="304"/>
      <point x="250" y="336"/>
      <point x="279" y="341" type="curve"/>
      <point x="285" y="339"/>
      <point x="290" y="337"/>
      <point x="296" y="335" type="curve" smooth="yes"/>
      <point x="330" y="324"/>
      <point x="345" y="353"/>
    </contour>
  </outline>
</glyph>
<glyph name="t" format="2">
  <advance width="294"/>
  <unicode hex="0074"/>
  <outline>
    <contour>
      <point x="289" y="396" type="curve" smooth="yes"/>
      <point x="291" y="408"/>
      <point x="289" y="421"/>
      <point x="281" y="421" type="curve" smooth="yes"/>
      <point x="225" y="421" type="line"/>
      <point x="222" y="420"/>
      <point x="213" y="423"/>
      <point x="213" y="425" type="curve"/>
      <point x="216" y="436"/>
      <point x="224" y="460"/>
      <point x="259" y="548" type="curve"/>
      <point x="259" y="568"/>
      <point x="240" y="562"/>
      <point x="233" y="551" type="curve" smooth="yes"/>
      <point x="195" y="489"/>
      <point x="157" y="435"/>
      <point x="82" y="397" type="curve" smooth="yes"/>
      <point x="70" y="391"/>
      <point x="74" y="373"/>
      <point x="89" y="373" type="curve" smooth="yes"/>
      <point x="120" y="373" type="line"/>
      <point x="128" y="372"/>
      <point x="130" y="364"/>
      <point x="128" y="356" type="curve" smooth="yes"/>
      <point x="111" y="287"/>
      <point x="96" y="223"/>
      <point x="80" y="154" type="curve" smooth="yes"/>
      <point x="65" y="93"/>
      <point x="59" y="51"/>
      <point x="59" y="33" type="curve" smooth="yes"/>
      <point x="59" y="5"/>
      <point x="75" y="-12"/>
      <point x="99" y="-12" type="curve" smooth="yes"/>
      <point x="137" y="-12"/>
      <point x="194" y="24"/>
      <point x="250" y="87" type="curve" smooth="yes"/>
      <point x="261" y="99"/>
      <point x="243" y="128"/>
      <point x="230" y="114" type="curve" smooth="yes"/>
      <point x="214" y="96"/>
      <point x="170" y="62"/>
      <point x="154" y="53" type="curve"/>
      <point x="143" y="46"/>
      <point x="131" y="48"/>
      <point x="137" y="74" type="curve"/>
      <point x="135" y="68"/>
      <point x="202" y="366"/>
      <point x="202" y="366" type="curve"/>
      <point x="204" y="371"/>
      <point x="210" y="372"/>
      <point x="213" y="373" type="curve"/>
      <point x="272" y="373" type="line"/>
      <point x="281" y="372"/>
      <point x="287" y="385"/>
    </contour>
  </outline>
</glyph>
<glyph name="u" format="2">
  <advance width="487"/>
  <unicode hex="0075"/>
  <outline>
    <contour>
      <point x="463" y="106" type="curve"/>
      <point x="468" y="119"/>
      <point x="448" y="143"/>
      <point x="438" y="129" type="curve" smooth="yes"/>
      <point x="428" y="115"/>
      <point x="417" y="101"/>
      <point x="405" y="88" type="curve" smooth="yes"/>
      <point x="381" y="62"/>
      <point x="380" y="75"/>
      <point x="382" y="85" type="curve" smooth="yes"/>
      <point x="445" y="401" type="line" smooth="yes"/>
      <point x="447" y="413"/>
      <point x="450" y="431"/>
      <point x="427" y="430" type="curve" smooth="yes"/>
      <point x="408" y="430"/>
      <point x="407" y="429"/>
      <point x="392" y="430" type="curve" smooth="yes"/>
      <point x="375" y="431"/>
      <point x="373" y="423"/>
      <point x="371" y="411" type="curve" smooth="yes"/>
      <point x="365" y="376"/>
      <point x="360" y="339"/>
      <point x="349" y="305" type="curve" smooth="yes"/>
      <point x="340" y="275"/>
      <point x="330" y="255"/>
      <point x="310" y="227" type="curve" smooth="yes"/>
      <point x="271" y="173"/>
      <point x="231" y="119"/>
      <point x="179" y="71" type="curve" smooth="yes"/>
      <point x="153" y="48"/>
      <point x="159" y="101"/>
      <point x="162" y="111" type="curve"/>
      <point x="210" y="353" type="line" smooth="yes"/>
      <point x="214" y="373"/>
      <point x="225" y="427"/>
      <point x="191" y="427" type="curve" smooth="yes"/>
      <point x="145" y="427"/>
      <point x="75" y="330"/>
      <point x="58" y="307" type="curve" smooth="yes"/>
      <point x="50" y="296"/>
      <point x="66" y="275"/>
      <point x="80" y="292" type="curve" smooth="yes"/>
      <point x="86" y="300"/>
      <point x="111" y="329"/>
      <point x="125" y="339" type="curve"/>
      <point x="135" y="347"/>
      <point x="133" y="331"/>
      <point x="131" y="323" type="curve" smooth="yes"/>
      <point x="89" y="114" type="line" smooth="yes"/>
      <point x="85" y="92"/>
      <point x="65" y="-12"/>
      <point x="114" y="-12" type="curve" smooth="yes"/>
      <point x="158" y="-12"/>
      <point x="245" y="69"/>
      <point x="319" y="182" type="curve" smooth="yes"/>
      <point x="327" y="194"/>
      <point x="324" y="166"/>
      <point x="322" y="158" type="curve" smooth="yes"/>
      <point x="310" y="110"/>
      <point x="302" y="67"/>
      <point x="302" y="23" type="curve" smooth="yes"/>
      <point x="302" y="5"/>
      <point x="309" y="-12"/>
      <point x="326" y="-12" type="curve" smooth="yes"/>
      <point x="349" y="-12"/>
      <point x="414" y="42"/>
    </contour>
  </outline>
</glyph>
<glyph name="v" format="2">
  <advance width="406"/>
  <unicode hex="0076"/>
  <outline>
    <contour>
      <point x="417" y="362" type="curve" smooth="yes"/>
      <point x="417" y="399"/>
      <point x="398" y="429"/>
      <point x="368" y="429" type="curve" smooth="yes"/>
      <point x="347" y="429"/>
      <point x="313" y="402"/>
      <point x="313" y="378" type="curve" smooth="yes"/>
      <point x="313" y="368"/>
      <point x="319" y="361"/>
      <point x="328" y="356" type="curve" smooth="yes"/>
      <point x="337" y="351"/>
      <point x="338" y="350"/>
      <point x="338" y="339" type="curve" smooth="yes"/>
      <point x="338" y="271"/>
      <point x="218" y="48"/>
      <point x="154" y="48" type="curve" smooth="yes"/>
      <point x="144" y="48"/>
      <point x="149" y="85"/>
      <point x="150" y="91" type="curve" smooth="yes"/>
      <point x="188" y="327" type="line" smooth="yes"/>
      <point x="192" y="351"/>
      <point x="196" y="380"/>
      <point x="196" y="389" type="curve" smooth="yes"/>
      <point x="196" y="410"/>
      <point x="188" y="428"/>
      <point x="169" y="428" type="curve" smooth="yes"/>
      <point x="137" y="428"/>
      <point x="86" y="373"/>
      <point x="40" y="309" type="curve" smooth="yes"/>
      <point x="30" y="295"/>
      <point x="51" y="275"/>
      <point x="62" y="290" type="curve" smooth="yes"/>
      <point x="79" y="314"/>
      <point x="95" y="333"/>
      <point x="106" y="342" type="curve" smooth="yes"/>
      <point x="127" y="361"/>
      <point x="118" y="327"/>
      <point x="116" y="316" type="curve" smooth="yes"/>
      <point x="87" y="134" type="line" smooth="yes"/>
      <point x="83" y="107"/>
      <point x="63" y="-12"/>
      <point x="110" y="-12" type="curve" smooth="yes"/>
      <point x="196" y="-12"/>
      <point x="417" y="255"/>
    </contour>
  </outline>
</glyph>
<glyph name="w" format="2">
  <advance width="610"/>
  <unicode hex="0077"/>
  <outline>
    <contour>
      <point x="626" y="366" type="curve" smooth="yes"/>
      <point x="626" y="399"/>
      <point x="606" y="428"/>
      <point x="578" y="428" type="curve" smooth="yes"/>
      <point x="551" y="428"/>
      <point x="526" y="409"/>
      <point x="526" y="379" type="curve" smooth="yes"/>
      <point x="526" y="368"/>
      <point x="532" y="364"/>
      <point x="539" y="357" type="curve"/>
      <point x="544" y="353"/>
      <point x="549" y="348"/>
      <point x="549" y="335" type="curve" smooth="yes"/>
      <point x="549" y="255"/>
      <point x="452" y="101"/>
      <point x="394" y="58" type="curve" smooth="yes"/>
      <point x="363" y="36"/>
      <point x="363" y="57"/>
      <point x="368" y="91" type="curve" smooth="yes"/>
      <point x="378" y="169"/>
      <point x="401" y="324"/>
      <point x="417" y="404" type="curve"/>
      <point x="418" y="414"/>
      <point x="420" y="428"/>
      <point x="400" y="428" type="curve" smooth="yes"/>
      <point x="390" y="428"/>
      <point x="380" y="428"/>
      <point x="369" y="427" type="curve"/>
      <point x="349" y="427"/>
      <point x="348" y="415"/>
      <point x="346" y="400" type="curve" smooth="yes"/>
      <point x="323" y="246" type="line"/>
      <point x="294" y="197"/>
      <point x="188" y="47"/>
      <point x="155" y="47" type="curve" smooth="yes"/>
      <point x="144" y="47"/>
      <point x="152" y="89"/>
      <point x="153" y="96" type="curve" smooth="yes"/>
      <point x="188" y="337" type="line" smooth="yes"/>
      <point x="191" y="357"/>
      <point x="205" y="429"/>
      <point x="168" y="429" type="curve" smooth="yes"/>
      <point x="127" y="429"/>
      <point x="54" y="330"/>
      <point x="36" y="305" type="curve"/>
      <point x="20" y="291"/>
      <point x="48" y="268"/>
      <point x="57" y="283" type="curve"/>
      <point x="63" y="289"/>
      <point x="77" y="308"/>
      <point x="92" y="324" type="curve" smooth="yes"/>
      <point x="115" y="348"/>
      <point x="114" y="326"/>
      <point x="110" y="297" type="curve" smooth="yes"/>
      <point x="84" y="115" type="line" smooth="yes"/>
      <point x="80" y="84"/>
      <point x="61" y="-11"/>
      <point x="114" y="-11" type="curve" smooth="yes"/>
      <point x="174" y="-11"/>
      <point x="259" y="88"/>
      <point x="297" y="148" type="curve"/>
      <point x="301" y="152"/>
      <point x="306" y="155"/>
      <point x="303" y="138" type="curve" smooth="yes"/>
      <point x="298" y="104"/>
      <point x="292" y="69"/>
      <point x="292" y="34" type="curve" smooth="yes"/>
      <point x="292" y="-52"/>
      <point x="381" y="6"/>
      <point x="404" y="25" type="curve" smooth="yes"/>
      <point x="481" y="86"/>
      <point x="626" y="265"/>
    </contour>
  </outline>
</glyph>
<glyph name="x" format="2">
  <advance width="504"/>
  <unicode hex="0078"/>
  <outline>
    <contour>
      <point x="505" y="371" type="curve" smooth="yes"/>
      <point x="505" y="446"/>
      <point x="434" y="437"/>
      <point x="397" y="400" type="curve" smooth="yes"/>
      <point x="357" y="358"/>
      <point x="329" y="317"/>
      <point x="295" y="270" type="curve"/>
      <point x="292" y="267"/>
      <point x="285" y="265"/>
      <point x="284" y="269" type="curve"/>
      <point x="254" y="348" type="line" smooth="yes"/>
      <point x="232" y="406"/>
      <point x="216" y="429"/>
      <point x="183" y="429" type="curve" smooth="yes"/>
      <point x="147" y="429"/>
      <point x="121" y="397"/>
      <point x="68" y="308" type="curve" smooth="yes"/>
      <point x="59" y="293"/>
      <point x="79" y="267"/>
      <point x="94" y="292" type="curve" smooth="yes"/>
      <point x="131" y="353"/>
      <point x="141" y="366"/>
      <point x="156" y="366" type="curve" smooth="yes"/>
      <point x="167" y="366"/>
      <point x="174" y="359"/>
      <point x="188" y="323" type="curve" smooth="yes"/>
      <point x="234" y="205" type="line" smooth="yes"/>
      <point x="237" y="198"/>
      <point x="233" y="189"/>
      <point x="231" y="186" type="curve"/>
      <point x="193" y="139" type="line" smooth="yes"/>
      <point x="153" y="89"/>
      <point x="128" y="69"/>
      <point x="105" y="69" type="curve" smooth="yes"/>
      <point x="92" y="69"/>
      <point x="86" y="75"/>
      <point x="83" y="84" type="curve"/>
      <point x="78" y="95"/>
      <point x="77" y="109"/>
      <point x="75" y="121" type="curve" smooth="yes"/>
      <point x="71" y="152"/>
      <point x="53" y="133"/>
      <point x="45" y="114" type="curve" smooth="yes"/>
      <point x="37" y="93"/>
      <point x="-4" y="-12"/>
      <point x="59" y="-12" type="curve" smooth="yes"/>
      <point x="110" y="-12"/>
      <point x="184" y="77"/>
      <point x="212" y="111" type="curve" smooth="yes"/>
      <point x="244" y="150" type="line"/>
      <point x="248" y="156"/>
      <point x="254" y="152"/>
      <point x="257" y="147" type="curve"/>
      <point x="289" y="64" type="line" smooth="yes"/>
      <point x="312" y="3"/>
      <point x="320" y="-12"/>
      <point x="351" y="-12" type="curve" smooth="yes"/>
      <point x="385" y="-12"/>
      <point x="417" y="2"/>
      <point x="462" y="105" type="curve"/>
      <point x="464" y="109"/>
      <point x="464" y="113"/>
      <point x="463" y="118" type="curve" smooth="yes"/>
      <point x="461" y="127"/>
      <point x="452" y="134"/>
      <point x="446" y="134" type="curve"/>
      <point x="442" y="135"/>
      <point x="435" y="132"/>
      <point x="432" y="125" type="curve" smooth="yes"/>
      <point x="413" y="84"/>
      <point x="399" y="59"/>
      <point x="380" y="59" type="curve" smooth="yes"/>
      <point x="370" y="59"/>
      <point x="361" y="68"/>
      <point x="342" y="119" type="curve" smooth="yes"/>
      <point x="308" y="210" type="line" smooth="yes"/>
      <point x="304" y="221"/>
      <point x="303" y="226"/>
      <point x="308" y="233" type="curve" smooth="yes"/>
      <point x="356" y="300" type="line" smooth="yes"/>
      <point x="386" y="342"/>
      <point x="410" y="360"/>
      <point x="434" y="360" type="curve" smooth="yes"/>
      <point x="454" y="360"/>
      <point x="467" y="347"/>
      <point x="472" y="323" type="curve" smooth="yes"/>
      <point x="475" y="305"/>
      <point x="487" y="291"/>
      <point x="496" y="323" type="curve" smooth="yes"/>
      <point x="503" y="347"/>
      <point x="505" y="355"/>
    </contour>
  </outline>
</glyph>
